<svg width="15" height="15" viewBox="0 0 15 15" fill="none" xmlns="http://www.w3.org/2000/svg">
<g clip-path="url(#clip0_40_144)">
<path d="M12.6567 3.18916C12.3587 2.89108 12.005 2.65462 11.6156 2.4933C11.2263 2.33197 10.8089 2.24893 10.3875 2.24893C9.96605 2.24893 9.54873 2.33197 9.15937 2.4933C8.77002 2.65462 8.41627 2.89108 8.11833 3.18916L7.5 3.8075L6.88166 3.18916C6.27984 2.58734 5.4636 2.24924 4.6125 2.24924C3.7614 2.24924 2.94515 2.58734 2.34333 3.18916C1.74151 3.79098 1.40341 4.60723 1.40341 5.45833C1.40341 6.30943 1.74151 7.12568 2.34333 7.7275L2.96166 8.34583L7.5 12.8842L12.0383 8.34583L12.6567 7.7275C12.9547 7.42956 13.1912 7.07581 13.3525 6.68645C13.5139 6.2971 13.5969 5.87978 13.5969 5.45833C13.5969 5.03688 13.5139 4.61956 13.3525 4.23021C13.1912 3.84086 12.9547 3.4871 12.6567 3.18916V3.18916Z" stroke="#FF5733" stroke-width="1.3" stroke-linecap="round" stroke-linejoin="round"/>
</g>
<defs>
<clipPath id="clip0_40_144">
<rect width="14" height="14" fill="white" transform="translate(0.5 0.5)"/>
</clipPath>
</defs>
</svg>
