<svg width="9" height="13" viewBox="0 0 9 13" fill="none" xmlns="http://www.w3.org/2000/svg">
<path d="M4.53529 0.906296C2.3062 0.906296 0.5 2.4666 0.5 4.3993C0.5 7.7411 4.53529 12.0993 4.53529 12.0993C4.53529 12.0993 8.57059 7.7404 8.57059 4.3993C8.57059 2.4673 6.76439 0.906296 4.53529 0.906296V0.906296ZM4.53529 6.332C3.95737 6.332 3.40312 6.13287 2.99447 5.77843C2.58581 5.42398 2.35624 4.94325 2.35624 4.442C2.35624 3.94074 2.58581 3.46001 2.99447 3.10556C3.40312 2.75112 3.95737 2.552 4.53529 2.552C5.11322 2.552 5.66747 2.75112 6.07612 3.10556C6.48477 3.46001 6.71435 3.94074 6.71435 4.442C6.71435 4.94325 6.48477 5.42398 6.07612 5.77843C5.66747 6.13287 5.11322 6.332 4.53529 6.332Z" fill="#FF9680"/>
</svg>
