<svg width="15" height="13" viewBox="0 0 15 13" fill="none" xmlns="http://www.w3.org/2000/svg">
<path d="M13.6891 4.51719L9.72187 3.94063L7.94844 0.345315C7.9 0.246878 7.82031 0.16719 7.72187 0.118753C7.475 -0.00312227 7.175 0.0984402 7.05156 0.345315L5.27812 3.94063L1.31094 4.51719C1.20156 4.53282 1.10156 4.58438 1.025 4.6625C0.932439 4.75764 0.881434 4.88563 0.883192 5.01835C0.88495 5.15107 0.939327 5.27766 1.03437 5.37032L3.90469 8.16875L3.22656 12.1203C3.21066 12.2122 3.22083 12.3068 3.25592 12.3932C3.29102 12.4796 3.34963 12.5545 3.42511 12.6093C3.50059 12.6642 3.58992 12.6967 3.68297 12.7034C3.77602 12.71 3.86907 12.6904 3.95156 12.6469L7.5 10.7813L11.0484 12.6469C11.1453 12.6984 11.2578 12.7156 11.3656 12.6969C11.6375 12.65 11.8203 12.3922 11.7734 12.1203L11.0953 8.16875L13.9656 5.37032C14.0437 5.29375 14.0953 5.19375 14.1109 5.08438C14.1531 4.81094 13.9625 4.55782 13.6891 4.51719V4.51719Z" fill="#FF5733"/>
</svg>
