<svg width="21" height="21" viewBox="0 0 21 21" fill="none" xmlns="http://www.w3.org/2000/svg">
<path opacity="0.5" d="M8.14166 3.83334C8.31383 3.34539 8.63311 2.92286 9.0555 2.62399C9.47788 2.32512 9.98257 2.16463 10.5 2.16463C11.0174 2.16463 11.5221 2.32512 11.9445 2.62399C12.3669 2.92286 12.6862 3.34539 12.8583 3.83334" stroke="#8F8F8F" stroke-width="1.3" stroke-linecap="round"/>
<path d="M17.5833 5.5H3.41666M16.1942 7.58333L15.8108 13.3333C15.6633 15.545 15.59 16.6508 14.8692 17.325C14.1483 18 13.04 18 10.8225 18H10.1775C7.96082 18 6.85249 18 6.13082 17.325C5.40999 16.6508 5.33666 15.545 5.18916 13.3333L4.80582 7.58333" stroke="#8F8F8F" stroke-width="1.3" stroke-linecap="round"/>
<path opacity="0.5" d="M8.41666 9.66667L8.83332 13.8333M12.5833 9.66667L12.1667 13.8333" stroke="#8F8F8F" stroke-width="1.3" stroke-linecap="round"/>
</svg>
