<svg width="33" height="41" viewBox="0 0 33 41" fill="none" xmlns="http://www.w3.org/2000/svg">
    <path fill-rule="evenodd" clip-rule="evenodd"
          d="M16.5003 0.083313C7.48024 0.083313 0.166992 8.2561 0.166992 17.4375C0.166992 26.5474 5.37937 36.4495 13.5134 40.2511C14.4483 40.6888 15.468 40.9157 16.5003 40.9157C17.5327 40.9157 18.5524 40.6888 19.4873 40.2511C27.6213 36.4495 32.8337 26.5474 32.8337 17.4375C32.8337 8.2561 25.5204 0.083313 16.5003 0.083313ZM16.5003 20.5C17.5833 20.5 18.6219 20.0698 19.3877 19.304C20.1535 18.5382 20.5837 17.4996 20.5837 16.4166C20.5837 15.3337 20.1535 14.2951 19.3877 13.5293C18.6219 12.7635 17.5833 12.3333 16.5003 12.3333C15.4174 12.3333 14.3787 12.7635 13.613 13.5293C12.8472 14.2951 12.417 15.3337 12.417 16.4166C12.417 17.4996 12.8472 18.5382 13.613 19.304C14.3787 20.0698 15.4174 20.5 16.5003 20.5Z"
          fill="#8F8F8F"/>
</svg>

