<svg width="20" height="19" viewBox="0 0 20 19" fill="none" xmlns="http://www.w3.org/2000/svg">
<path d="M16.8756 3.58555C16.4783 3.18811 16.0066 2.87283 15.4875 2.65773C14.9684 2.44262 14.4119 2.33191 13.85 2.33191C13.2881 2.33191 12.7316 2.44262 12.2125 2.65773C11.6934 2.87283 11.2217 3.18811 10.8244 3.58555L10 4.41L9.17555 3.58555C8.37313 2.78312 7.2848 2.33233 6.15 2.33233C5.01519 2.33233 3.92687 2.78312 3.12444 3.58555C2.32201 4.38798 1.87122 5.4763 1.87122 6.61111C1.87122 7.74591 2.32201 8.83424 3.12444 9.63666L3.94889 10.4611L10 16.5122L16.0511 10.4611L16.8756 9.63666C17.273 9.23941 17.5883 8.76774 17.8034 8.24861C18.0185 7.72947 18.1292 7.17304 18.1292 6.61111C18.1292 6.04917 18.0185 5.49274 17.8034 4.97361C17.5883 4.45447 17.273 3.98281 16.8756 3.58555V3.58555Z" stroke="white" stroke-width="1.17613" stroke-linecap="round" stroke-linejoin="round"/>
</svg>
