<svg width="9" height="13" viewBox="0 0 9 13" fill="none" xmlns="http://www.w3.org/2000/svg">
<path d="M4.03529 0.906311C1.8062 0.906311 0 2.46661 0 4.39931C0 7.74111 4.03529 12.0993 4.03529 12.0993C4.03529 12.0993 8.07059 7.74041 8.07059 4.39931C8.07059 2.46731 6.26439 0.906311 4.03529 0.906311V0.906311ZM4.03529 6.33201C3.45737 6.33201 2.90312 6.13289 2.49447 5.77844C2.08581 5.424 1.85624 4.94327 1.85624 4.44201C1.85624 3.94075 2.08581 3.46002 2.49447 3.10558C2.90312 2.75114 3.45737 2.55201 4.03529 2.55201C4.61322 2.55201 5.16747 2.75114 5.57612 3.10558C5.98477 3.46002 6.21435 3.94075 6.21435 4.44201C6.21435 4.94327 5.98477 5.424 5.57612 5.77844C5.16747 6.13289 4.61322 6.33201 4.03529 6.33201Z" fill="#FF9680"/>
</svg>
