<svg width="15" height="13" viewBox="0 0 15 13" fill="none" xmlns="http://www.w3.org/2000/svg">
<path d="M13.606 4.51721L9.63877 3.94064L7.86534 0.34533C7.8169 0.246893 7.73721 0.167205 7.63877 0.118768C7.3919 -0.00310701 7.0919 0.0984555 6.96846 0.34533L5.19502 3.94064L1.22784 4.51721C1.11846 4.53283 1.01846 4.58439 0.941899 4.66252C0.84934 4.75765 0.798335 4.88564 0.800093 5.01836C0.801851 5.15109 0.856227 5.27768 0.951274 5.37033L3.82159 8.16877L3.14346 12.1203C3.12756 12.2123 3.13773 12.3068 3.17282 12.3932C3.20792 12.4797 3.26653 12.5545 3.34201 12.6094C3.41749 12.6642 3.50682 12.6967 3.59987 12.7034C3.69292 12.71 3.78597 12.6904 3.86846 12.6469L7.4169 10.7813L10.9653 12.6469C11.0622 12.6985 11.1747 12.7156 11.2825 12.6969C11.5544 12.65 11.7372 12.3922 11.6903 12.1203L11.0122 8.16877L13.8825 5.37033C13.9606 5.29377 14.0122 5.19377 14.0278 5.08439C14.07 4.81096 13.8794 4.55783 13.606 4.51721V4.51721Z" fill="#FF5733"/>
</svg>
