<svg width="16" height="16" viewBox="0 0 16 16" fill="none" xmlns="http://www.w3.org/2000/svg">
<path opacity="0.5" d="M5 12C5.26522 12 5.51957 12.1054 5.70711 12.2929C5.89464 12.4804 6 12.7348 6 13C6 13.2652 5.89464 13.5196 5.70711 13.7071C5.51957 13.8946 5.26522 14 5 14C4.73478 14 4.48043 13.8946 4.29289 13.7071C4.10536 13.5196 4 13.2652 4 13C4 12.7348 4.10536 12.4804 4.29289 12.2929C4.48043 12.1054 4.73478 12 5 12ZM11 12C11.2652 12 11.5196 12.1054 11.7071 12.2929C11.8946 12.4804 12 12.7348 12 13C12 13.2652 11.8946 13.5196 11.7071 13.7071C11.5196 13.8946 11.2652 14 11 14C10.7348 14 10.4804 13.8946 10.2929 13.7071C10.1054 13.5196 10 13.2652 10 13C10 12.7348 10.1054 12.4804 10.2929 12.2929C10.4804 12.1054 10.7348 12 11 12Z" stroke="white" stroke-width="1.5"/>
<path d="M1.49935 1.52797C1.37417 1.48395 1.23662 1.49145 1.11697 1.54884C0.997325 1.60623 0.905374 1.70879 0.861348 1.83397C0.817322 1.95916 0.824828 2.0967 0.882214 2.21635C0.9396 2.336 1.04217 2.42795 1.16735 2.47197L1.49935 1.52797ZM13.772 6.58864L14.2613 6.68931L14.262 6.68664L13.772 6.58864ZM3.80535 6.50664V4.69197H2.80535V6.50664H3.80535ZM1.67335 1.58931L1.49935 1.52797L1.16735 2.47197L1.34135 2.53264L1.67335 1.58931ZM7.29201 10.8333H10.8267V9.83331H7.29201V10.8333ZM3.80535 4.69197C3.80535 4.22064 3.80601 3.82731 3.77201 3.50797C3.73535 3.17664 3.65868 2.87464 3.47068 2.59997L2.64468 3.16397C2.70468 3.25197 2.75135 3.37331 2.77735 3.61531C2.80468 3.86864 2.80535 4.19864 2.80535 4.69197H3.80535ZM1.34135 2.53264C1.78668 2.68931 2.07935 2.79331 2.29468 2.89997C2.49668 2.99864 2.58601 3.07864 2.64468 3.16464L3.47068 2.59997C3.28135 2.32264 3.02868 2.14531 2.73468 2.00064C2.45468 1.86331 2.09601 1.73797 1.67335 1.58931L1.34135 2.53264ZM2.80535 6.50664C2.80535 7.47531 2.81468 8.17331 2.90535 8.70664C3.00335 9.27597 3.19868 9.68397 3.56201 10.068L4.28801 9.37997C4.07468 9.15464 3.95935 8.93464 3.89135 8.53797C3.81801 8.10464 3.80535 7.49931 3.80535 6.50664H2.80535ZM7.29201 9.83331C6.34735 9.83331 5.69201 9.83197 5.19801 9.76197C4.72135 9.69464 4.47001 9.57197 4.28801 9.37997L3.56201 10.068C3.95801 10.486 4.46001 10.668 5.05735 10.752C5.63735 10.8346 6.37801 10.8333 7.29201 10.8333V9.83331ZM3.30535 4.57997H11.392V3.57997H3.30601L3.30535 4.57997ZM13.282 6.48731L12.9487 8.10397L13.9287 8.30531L14.2613 6.68931L13.282 6.48731ZM11.3933 4.57997C11.964 4.57997 12.4667 4.58064 12.8633 4.62464C13.06 4.64731 13.208 4.67797 13.3113 4.71397C13.4187 4.75197 13.436 4.78064 13.4273 4.76931L14.22 4.15997C14.0633 3.95597 13.8433 3.84064 13.6427 3.77064C13.4257 3.6993 13.2014 3.65235 12.974 3.63064C12.5107 3.57931 11.9453 3.57997 11.3933 3.57997V4.57997ZM14.262 6.68664C14.3753 6.12131 14.4713 5.64664 14.4947 5.26664C14.5193 4.87597 14.4747 4.49064 14.22 4.15997L13.4273 4.76931C13.4687 4.82331 13.514 4.91997 13.4967 5.20531C13.4787 5.50131 13.4007 5.89664 13.282 6.49064L14.262 6.68664ZM10.8267 10.8333C11.3347 10.8333 11.7613 10.834 12.1053 10.792C12.462 10.7486 12.788 10.6526 13.072 10.4213L12.44 9.64597C12.3567 9.71397 12.2387 9.76864 11.9833 9.79931C11.7147 9.83264 11.36 9.83331 10.8267 9.83331V10.8333ZM12.95 8.10397C12.842 8.62597 12.77 8.97264 12.6833 9.22931C12.6013 9.47331 12.5233 9.57797 12.44 9.64597L13.072 10.4213C13.3567 10.1893 13.516 9.88997 13.6307 9.54864C13.7413 9.22064 13.8267 8.80331 13.9293 8.30597L12.95 8.10397Z" fill="white"/>
<path opacity="0.5" d="M11 4.33331L10 9.99998M6 4.33331L7 9.99998" stroke="white" stroke-width="1.5" stroke-linecap="round"/>
</svg>
