<svg width="14" height="13" viewBox="0 0 14 13" fill="none" xmlns="http://www.w3.org/2000/svg">
<path d="M12.8059 4.51719L8.83873 3.94063L7.06529 0.345315C7.01685 0.246878 6.93716 0.16719 6.83873 0.118753C6.59185 -0.00312226 6.29185 0.0984402 6.16841 0.345315L4.39498 3.94063L0.427788 4.51719C0.318413 4.53281 0.218413 4.58438 0.141851 4.6625C0.0492908 4.75764 -0.00171392 4.88563 4.3978e-05 5.01835C0.00180188 5.15107 0.0561785 5.27767 0.151226 5.37032L3.02154 8.16875L2.34341 12.1203C2.32751 12.2122 2.33768 12.3068 2.37278 12.3932C2.40787 12.4796 2.46648 12.5545 2.54196 12.6093C2.61744 12.6642 2.70677 12.6967 2.79982 12.7034C2.89287 12.71 2.98592 12.6904 3.06841 12.6469L6.61685 10.7813L10.1653 12.6469C10.2622 12.6984 10.3747 12.7156 10.4825 12.6969C10.7544 12.65 10.9372 12.3922 10.8903 12.1203L10.2122 8.16875L13.0825 5.37032C13.1606 5.29375 13.2122 5.19375 13.2278 5.08438C13.27 4.81094 13.0794 4.55782 12.8059 4.51719Z" fill="#FF5733"/>
</svg>
