<svg width="24" height="24" viewBox="0 0 24 24" fill="none" xmlns="http://www.w3.org/2000/svg">
<path opacity="0.5" d="M7.5 18C7.89782 18 8.27936 18.158 8.56066 18.4393C8.84196 18.7206 9 19.1022 9 19.5C9 19.8978 8.84196 20.2794 8.56066 20.5607C8.27936 20.842 7.89782 21 7.5 21C7.10218 21 6.72064 20.842 6.43934 20.5607C6.15804 20.2794 6 19.8978 6 19.5C6 19.1022 6.15804 18.7206 6.43934 18.4393C6.72064 18.158 7.10218 18 7.5 18ZM16.5 18C16.8978 18 17.2794 18.158 17.5607 18.4393C17.842 18.7206 18 19.1022 18 19.5C18 19.8978 17.842 20.2794 17.5607 20.5607C17.2794 20.842 16.8978 21 16.5 21C16.1022 21 15.7206 20.842 15.4393 20.5607C15.158 20.2794 15 19.8978 15 19.5C15 19.1022 15.158 18.7206 15.4393 18.4393C15.7206 18.158 16.1022 18 16.5 18Z" stroke="white" stroke-width="1.5"/>
<path d="M2.249 2.29202C2.06123 2.22598 1.85491 2.23724 1.67544 2.32332C1.49597 2.4094 1.35804 2.56325 1.292 2.75102C1.22596 2.9388 1.23722 3.14511 1.3233 3.32458C1.40938 3.50406 1.56323 3.64198 1.751 3.70802L2.249 2.29202ZM20.658 9.88302L21.392 10.034L21.393 10.03L20.658 9.88302ZM5.708 9.76002V7.03802H4.208V9.76002H5.708ZM2.51 2.38402L2.249 2.29202L1.751 3.70802L2.012 3.79902L2.51 2.38402ZM10.938 16.25H16.24V14.75H10.938V16.25ZM5.708 7.03802C5.708 6.33102 5.709 5.74102 5.658 5.26202C5.603 4.76502 5.488 4.31202 5.206 3.90002L3.967 4.74602C4.057 4.87802 4.127 5.06002 4.166 5.42302C4.207 5.80302 4.208 6.29802 4.208 7.03802H5.708ZM2.012 3.79902C2.68 4.03402 3.119 4.19002 3.442 4.35002C3.745 4.49802 3.879 4.61802 3.967 4.74702L5.206 3.90002C4.922 3.48402 4.543 3.21802 4.102 3.00102C3.682 2.79502 3.144 2.60702 2.51 2.38402L2.012 3.79902ZM4.208 9.76002C4.208 11.213 4.222 12.26 4.358 13.06C4.505 13.914 4.798 14.526 5.343 15.102L6.432 14.07C6.112 13.732 5.939 13.402 5.837 12.807C5.727 12.157 5.708 11.249 5.708 9.76002H4.208ZM10.938 14.75C9.521 14.75 8.538 14.748 7.797 14.643C7.082 14.542 6.705 14.358 6.432 14.07L5.343 15.102C5.937 15.729 6.69 16.002 7.586 16.128C8.456 16.252 9.567 16.25 10.938 16.25V14.75ZM4.958 6.87002H17.088V5.37002H4.959L4.958 6.87002ZM19.923 9.73102L19.423 12.156L20.893 12.458L21.392 10.034L19.923 9.73102ZM17.09 6.87002C17.946 6.87002 18.7 6.87102 19.295 6.93702C19.59 6.97102 19.812 7.01702 19.967 7.07102C20.128 7.12802 20.154 7.17102 20.141 7.15402L21.33 6.24002C21.095 5.93402 20.765 5.76102 20.464 5.65602C20.1385 5.54901 19.8021 5.47858 19.461 5.44602C18.766 5.36902 17.918 5.37002 17.09 5.37002V6.87002ZM21.393 10.03C21.563 9.18202 21.707 8.47002 21.742 7.90002C21.779 7.31402 21.712 6.73602 21.33 6.24002L20.141 7.15402C20.203 7.23502 20.271 7.38002 20.245 7.80802C20.218 8.25202 20.101 8.84502 19.923 9.73602L21.393 10.03ZM16.24 16.25C17.002 16.25 17.642 16.251 18.158 16.188C18.693 16.123 19.182 15.979 19.608 15.632L18.66 14.469C18.535 14.571 18.358 14.653 17.975 14.699C17.572 14.749 17.04 14.75 16.24 14.75V16.25ZM19.425 12.156C19.263 12.939 19.155 13.459 19.025 13.844C18.902 14.21 18.785 14.367 18.66 14.469L19.608 15.632C20.035 15.284 20.274 14.835 20.446 14.323C20.612 13.831 20.74 13.205 20.894 12.459L19.425 12.156Z" fill="white"/>
<path opacity="0.5" d="M16.5 6.5L15 15M9 6.5L10.5 15" stroke="white" stroke-width="1.5" stroke-linecap="round"/>
</svg>
