<svg width="38" height="38" viewBox="0 0 38 38" fill="none" xmlns="http://www.w3.org/2000/svg">
<path fill-rule="evenodd" clip-rule="evenodd" d="M19.0001 3.16665C12.0049 3.16665 6.3334 9.50473 6.3334 16.625C6.3334 23.6898 10.3756 31.369 16.6836 34.3172C17.4087 34.6566 18.1995 34.8326 19.0001 34.8326C19.8006 34.8326 20.5914 34.6566 21.3165 34.3172C27.6245 31.369 31.6667 23.6898 31.6667 16.625C31.6667 9.50473 25.9952 3.16665 19.0001 3.16665ZM19.0001 19C19.8399 19 20.6454 18.6664 21.2392 18.0725C21.8331 17.4786 22.1667 16.6732 22.1667 15.8333C22.1667 14.9935 21.8331 14.188 21.2392 13.5941C20.6454 13.0003 19.8399 12.6666 19.0001 12.6666C18.1602 12.6666 17.3548 13.0003 16.7609 13.5941C16.167 14.188 15.8334 14.9935 15.8334 15.8333C15.8334 16.6732 16.167 17.4786 16.7609 18.0725C17.3548 18.6664 18.1602 19 19.0001 19Z" fill="#FF5733"/>
</svg>
