<svg width="20" height="20" viewBox="0 0 20 20" fill="none" xmlns="http://www.w3.org/2000/svg">
<path d="M10.8334 6.66667C10.8334 4.36667 8.78335 2.5 6.25002 2.5C3.71669 2.5 1.66669 4.36667 1.66669 6.66667H3.33335L4.16669 5.83333L5.00002 6.66667H8.33335M10.8334 5.95C11.6772 5.32612 12.7006 4.99278 13.75 5C16.2834 5 18.3334 6.86667 18.3334 9.16667H15.8334L15 8.33333L14.1667 9.16667H11.6667" stroke="#B8B8B8" stroke-linecap="round" stroke-linejoin="round"/>
<path d="M4.90835 8.09164C3.11668 9.88331 2.99168 12.65 4.61668 14.2833L8.15001 10.7416L8.73335 10.1583L9.32501 9.56664L11.0917 7.79998C9.46668 6.16664 6.70001 6.29998 4.90835 8.09164Z" stroke="#B8B8B8" stroke-linecap="round" stroke-linejoin="round"/>
<path d="M9.16671 12.9167C9.58337 15 9.02504 16.6667 8.33337 18.3334H11.6667C13.3334 13.75 11.25 8.33335 10.8334 6.66669" stroke="#B8B8B8" stroke-linecap="round" stroke-linejoin="round"/>
</svg>
