<svg width="100" height="100" viewBox="0 0 100 100" fill="none" xmlns="http://www.w3.org/2000/svg">
<g clip-path="url(#clip0_3_225)">
<path d="M100 0H0V100H100V0Z" fill="white"/>
<path d="M34.4827 10.3448H37.931V6.89655C36.0266 6.89655 34.4827 8.44037 34.4827 10.3448Z" fill="#FF5733"/>
<path d="M41.3793 6.89655H37.931V10.3448H41.3793V6.89655Z" fill="#FF5733"/>
<path d="M44.8275 6.89655H41.3793V10.3448H44.8275V6.89655Z" fill="#FF5733"/>
<path d="M48.2759 6.89655H44.8276V10.3448H48.2759V6.89655Z" fill="#FF5733"/>
<path d="M50 10.3448C49.5981 10.3448 48.2759 10.3448 48.2759 10.3448C48.2759 10.3448 48.2759 9.17098 48.2759 8.62068C48.2759 8.19086 48.2759 6.89655 48.2759 6.89655C48.2759 6.89655 49.4777 6.89655 50 6.89655C50.9522 6.89655 51.7242 7.66847 51.7242 8.62068C51.7242 9.57285 50.9522 10.3448 50 10.3448Z" fill="#FF5733"/>
<path d="M63.7931 6.89655C64.7454 6.89655 65.5172 7.66848 65.5172 8.62068C65.5172 9.57294 64.7454 10.3448 63.7931 10.3448C62.8409 10.3448 62.069 9.57294 62.069 8.62068C62.069 7.66848 62.8409 6.89655 63.7931 6.89655Z" fill="#FF5733"/>
<path d="M34.4827 12.069C34.4827 11.6671 34.4827 10.3448 34.4827 10.3448C34.4827 10.3448 35.6565 10.3448 36.2069 10.3448C36.6367 10.3448 37.931 10.3448 37.931 10.3448C37.931 10.3448 37.931 11.5466 37.931 12.069C37.931 13.0211 37.159 13.7931 36.2069 13.7931C35.2547 13.7931 34.4827 13.0211 34.4827 12.069Z" fill="#FF5733"/>
<path d="M48.2759 10.3448H44.8276V13.7931H48.2759V10.3448Z" fill="#FF5733"/>
<path d="M39.6552 13.7931C40.6074 13.7931 41.3793 14.565 41.3793 15.5172C41.3793 16.4695 40.6074 17.2414 39.6552 17.2414C38.703 17.2414 37.931 16.4695 37.931 15.5172C37.931 14.565 38.703 13.7931 39.6552 13.7931Z" fill="#FF5733"/>
<path d="M48.2759 17.2414V13.7931H44.8276C44.8276 15.6975 46.3714 17.2414 48.2759 17.2414Z" fill="#FF5733"/>
<path d="M51.7242 13.7931H48.2759V17.2414H51.7242V13.7931Z" fill="#FF5733"/>
<path d="M55.1724 13.7931H51.7241V17.2414H55.1724V13.7931Z" fill="#FF5733"/>
<path d="M56.8966 17.2414C56.4947 17.2414 55.1724 17.2414 55.1724 17.2414C55.1724 17.2414 55.1724 16.0675 55.1724 15.5172C55.1724 15.0874 55.1724 13.7931 55.1724 13.7931C55.1724 13.7931 56.3742 13.7931 56.8966 13.7931C57.8487 13.7931 58.6207 14.565 58.6207 15.5172C58.6207 16.4694 57.8487 17.2414 56.8966 17.2414Z" fill="#FF5733"/>
<path d="M36.2069 17.2414C37.1591 17.2414 37.931 18.0133 37.931 18.9655C37.931 19.9178 37.1591 20.6897 36.2069 20.6897C35.2547 20.6897 34.4827 19.9178 34.4827 18.9655C34.4827 18.0133 35.2547 17.2414 36.2069 17.2414Z" fill="#FF5733"/>
<path d="M44.8275 18.9655C44.8275 19.3674 44.8275 20.6897 44.8275 20.6897C44.8275 20.6897 43.6538 20.6897 43.1034 20.6896C42.6736 20.6897 41.3793 20.6896 41.3793 20.6896C41.3793 20.6896 41.3793 19.4879 41.3793 18.9655C41.3793 18.0133 42.1512 17.2414 43.1034 17.2414C44.0556 17.2414 44.8275 18.0133 44.8275 18.9655Z" fill="#FF5733"/>
<path d="M62.0689 18.9655C62.0689 19.3674 62.0689 20.6897 62.0689 20.6897C62.0689 20.6897 60.8952 20.6897 60.3448 20.6896C59.915 20.6897 58.6207 20.6896 58.6207 20.6896C58.6207 20.6896 58.6207 19.4879 58.6207 18.9655C58.6207 18.0133 59.3926 17.2414 60.3448 17.2414C61.297 17.2414 62.0689 18.0133 62.0689 18.9655Z" fill="#FF5733"/>
<path d="M37.931 24.1379H41.3793V20.6897C39.4749 20.6897 37.931 22.2335 37.931 24.1379Z" fill="#FF5733"/>
<path d="M44.8275 20.6897H41.3793V24.1379C43.2837 24.1379 44.8275 22.5941 44.8275 20.6897Z" fill="#FF5733"/>
<path d="M53.4483 20.6897C53.8501 20.6897 55.1724 20.6897 55.1724 20.6897C55.1724 20.6897 55.1724 21.8633 55.1724 22.4138C55.1724 22.8435 55.1724 24.1379 55.1724 24.1379C55.1724 24.1379 53.9709 24.1379 53.4483 24.1379C52.4957 24.1379 51.7241 23.3657 51.7241 22.4138C51.7241 21.4618 52.4957 20.6897 53.4483 20.6897Z" fill="#FF5733"/>
<path d="M58.6207 20.6897H55.1724V24.1379H58.6207V20.6897Z" fill="#FF5733"/>
<path d="M62.0689 20.6897H58.6207V24.1379H62.0689V20.6897Z" fill="#FF5733"/>
<path d="M63.7931 24.1379C63.3912 24.1379 62.069 24.1379 62.069 24.1379C62.069 24.1379 62.069 22.9641 62.069 22.4138C62.069 21.984 62.069 20.6897 62.069 20.6897C62.069 20.6897 63.2708 20.6897 63.7931 20.6897C64.7453 20.6897 65.5172 21.4616 65.5172 22.4138C65.5172 23.366 64.7453 24.1379 63.7931 24.1379Z" fill="#FF5733"/>
<path d="M37.931 25.8621C37.931 25.4602 37.931 24.1379 37.931 24.1379C37.931 24.1379 39.1048 24.1379 39.6552 24.1379C40.085 24.1379 41.3793 24.1379 41.3793 24.1379C41.3793 24.1379 41.3793 25.3397 41.3793 25.8621C41.3793 26.8142 40.6073 27.5862 39.6552 27.5862C38.703 27.5862 37.931 26.8142 37.931 25.8621Z" fill="#FF5733"/>
<path d="M46.5517 24.1379C46.9536 24.1379 48.2759 24.1379 48.2759 24.1379C48.2759 24.1379 48.2759 25.3116 48.2759 25.8621C48.2759 26.2918 48.2759 27.5862 48.2759 27.5862C48.2759 27.5862 47.0743 27.5862 46.5517 27.5862C45.5992 27.5862 44.8276 26.8139 44.8276 25.8621C44.8276 24.9101 45.5992 24.1379 46.5517 24.1379Z" fill="#FF5733"/>
<path d="M48.2759 24.1379V27.5862H51.7242C51.7242 25.6817 50.1803 24.1379 48.2759 24.1379Z" fill="#FF5733"/>
<path d="M58.6207 24.1379H55.1724V27.5862H58.6207V24.1379Z" fill="#FF5733"/>
<path d="M37.931 29.3103C37.931 29.7122 37.931 31.0345 37.931 31.0345C37.931 31.0345 36.7573 31.0345 36.2069 31.0344C35.777 31.0345 34.4827 31.0344 34.4827 31.0344C34.4827 31.0344 34.4827 29.8327 34.4827 29.3103C34.4828 28.3581 35.2547 27.5862 36.2068 27.5862C37.159 27.5862 37.931 28.3581 37.931 29.3103Z" fill="#FF5733"/>
<path d="M44.8275 29.3103C44.8275 29.7122 44.8275 31.0345 44.8275 31.0345C44.8275 31.0345 43.6538 31.0345 43.1034 31.0344C42.6736 31.0345 41.3793 31.0344 41.3793 31.0344C41.3793 31.0344 41.3793 29.8327 41.3793 29.3103C41.3793 28.3581 42.1512 27.5862 43.1034 27.5862C44.0556 27.5862 44.8275 28.3581 44.8275 29.3103Z" fill="#FF5733"/>
<path d="M48.2759 29.3103C48.2759 28.9085 48.2759 27.5862 48.2759 27.5862C48.2759 27.5862 49.4497 27.5862 50 27.5862C50.4298 27.5862 51.7242 27.5862 51.7242 27.5862C51.7242 27.5862 51.7242 28.788 51.7242 29.3103C51.7242 30.2625 50.9522 31.0345 50 31.0345C49.0478 31.0345 48.2759 30.2625 48.2759 29.3103Z" fill="#FF5733"/>
<path d="M58.6207 27.5862H55.1724V31.0345H58.6207V27.5862Z" fill="#FF5733"/>
<path d="M65.5172 29.3103C65.5172 29.7122 65.5172 31.0345 65.5172 31.0345C65.5172 31.0345 64.3435 31.0345 63.7931 31.0344C63.3633 31.0345 62.069 31.0344 62.069 31.0344C62.069 31.0344 62.069 29.8327 62.069 29.3103C62.069 28.3581 62.8409 27.5862 63.7931 27.5862C64.7453 27.5862 65.5172 28.3581 65.5172 29.3103Z" fill="#FF5733"/>
<path d="M37.931 34.4828V31.0345H34.4827C34.4827 32.9389 36.0265 34.4828 37.931 34.4828Z" fill="#FF5733"/>
<path d="M41.3793 31.0345H37.931V34.4828H41.3793V31.0345Z" fill="#FF5733"/>
<path d="M44.8275 31.0345H41.3793V34.4828H44.8275V31.0345Z" fill="#FF5733"/>
<path d="M46.5517 34.4828C46.1498 34.4828 44.8276 34.4828 44.8276 34.4828C44.8276 34.4828 44.8276 33.3089 44.8276 32.7586C44.8276 32.3288 44.8276 31.0345 44.8276 31.0345C44.8276 31.0345 46.0294 31.0345 46.5517 31.0345C47.5039 31.0345 48.2759 31.8064 48.2759 32.7586C48.2759 33.7108 47.5039 34.4828 46.5517 34.4828Z" fill="#FF5733"/>
<path d="M51.7241 34.4828H55.1724V31.0345C53.268 31.0345 51.7241 32.5783 51.7241 34.4828Z" fill="#FF5733"/>
<path d="M58.6207 31.0345H55.1724V34.4828H58.6207V31.0345Z" fill="#FF5733"/>
<path d="M62.0689 31.0345H58.6207V34.4828H62.0689V31.0345Z" fill="#FF5733"/>
<path d="M65.5172 31.0345H62.069V34.4828H65.5172V31.0345Z" fill="#FF5733"/>
<path d="M8.62068 34.4828C9.57294 34.4828 10.3448 35.2547 10.3448 36.2069C10.3448 37.1592 9.57294 37.931 8.62068 37.931C7.66848 37.931 6.89655 37.1592 6.89655 36.2069C6.89655 35.2547 7.66848 34.4828 8.62068 34.4828Z" fill="#FF5733"/>
<path d="M13.7931 37.931H17.2414V34.4828C15.337 34.4828 13.7931 36.0266 13.7931 37.931Z" fill="#FF5733"/>
<path d="M18.9655 37.931C18.5637 37.931 17.2414 37.931 17.2414 37.931C17.2414 37.931 17.2414 36.7572 17.2414 36.2069C17.2414 35.7771 17.2414 34.4828 17.2414 34.4828C17.2414 34.4828 18.4432 34.4828 18.9655 34.4828C19.9177 34.4828 20.6897 35.2547 20.6897 36.2069C20.6897 37.1591 19.9177 37.931 18.9655 37.931Z" fill="#FF5733"/>
<path d="M25.8621 34.4828C26.2639 34.4828 27.5862 34.4828 27.5862 34.4828C27.5862 34.4828 27.5862 35.6564 27.5862 36.2069C27.5862 36.6366 27.5862 37.931 27.5862 37.931C27.5862 37.931 26.3847 37.931 25.8621 37.931C24.9095 37.931 24.1379 37.1588 24.1379 36.2069C24.1379 35.2549 24.9095 34.4828 25.8621 34.4828Z" fill="#FF5733"/>
<path d="M31.0345 34.4828H27.5862V37.931H31.0345V34.4828Z" fill="#FF5733"/>
<path d="M31.0345 34.4828V37.931H34.4828C34.4828 36.0266 32.9389 34.4828 31.0345 34.4828Z" fill="#FF5733"/>
<path d="M41.3793 36.2069C41.3793 35.805 41.3793 34.4828 41.3793 34.4828C41.3793 34.4828 42.5531 34.4828 43.1034 34.4828C43.5332 34.4828 44.8275 34.4828 44.8275 34.4828C44.8275 34.4828 44.8275 35.6846 44.8275 36.2069C44.8275 37.1591 44.0556 37.931 43.1034 37.931C42.1512 37.931 41.3793 37.1591 41.3793 36.2069Z" fill="#FF5733"/>
<path d="M48.2759 37.931H51.7242V34.4828C49.8197 34.4828 48.2759 36.0266 48.2759 37.931Z" fill="#FF5733"/>
<path d="M55.1724 34.4828H51.7241V37.931H55.1724V34.4828Z" fill="#FF5733"/>
<path d="M58.6207 34.4828H55.1724V37.931H58.6207V34.4828Z" fill="#FF5733"/>
<path d="M62.0689 34.4828H58.6207V37.931H62.0689V34.4828Z" fill="#FF5733"/>
<path d="M65.5172 34.4828H62.069V37.931H65.5172V34.4828Z" fill="#FF5733"/>
<path d="M70.6897 34.4828C71.6419 34.4828 72.4138 35.2547 72.4138 36.2069C72.4138 37.1592 71.6419 37.931 70.6897 37.931C69.7374 37.931 68.9655 37.1592 68.9655 36.2069C68.9655 35.2547 69.7374 34.4828 70.6897 34.4828Z" fill="#FF5733"/>
<path d="M81.0345 34.4828C81.9868 34.4828 82.7586 35.2547 82.7586 36.2069C82.7586 37.1592 81.9868 37.931 81.0345 37.931C80.0823 37.931 79.3104 37.1592 79.3104 36.2069C79.3104 35.2547 80.0823 34.4828 81.0345 34.4828Z" fill="#FF5733"/>
<path d="M86.2069 37.931H89.6552V34.4828C87.7508 34.4828 86.2069 36.0266 86.2069 37.931Z" fill="#FF5733"/>
<path d="M91.3793 37.931C90.9774 37.931 89.6552 37.931 89.6552 37.931C89.6552 37.931 89.6552 36.7572 89.6552 36.2069C89.6552 35.7771 89.6552 34.4828 89.6552 34.4828C89.6552 34.4828 90.857 34.4828 91.3793 34.4828C92.3315 34.4828 93.1034 35.2547 93.1034 36.2069C93.1034 37.1591 92.3315 37.931 91.3793 37.931Z" fill="#FF5733"/>
<path d="M12.069 37.931C12.4708 37.931 13.7931 37.931 13.7931 37.931C13.7931 37.931 13.7931 39.1047 13.7931 39.6552C13.7931 40.0849 13.7931 41.3793 13.7931 41.3793C13.7931 41.3793 12.5916 41.3793 12.069 41.3793C11.1164 41.3793 10.3448 40.607 10.3448 39.6552C10.3448 38.7032 11.1164 37.931 12.069 37.931Z" fill="#FF5733"/>
<path d="M17.2414 37.931H13.7931V41.3793H17.2414V37.931Z" fill="#FF5733"/>
<path d="M22.4138 37.931C23.366 37.931 24.1379 38.703 24.1379 39.6552C24.1379 40.6074 23.366 41.3793 22.4138 41.3793C21.4616 41.3793 20.6896 40.6074 20.6896 39.6552C20.6896 38.703 21.4616 37.931 22.4138 37.931Z" fill="#FF5733"/>
<path d="M34.4828 37.931H31.0345V41.3793H34.4828V37.931Z" fill="#FF5733"/>
<path d="M34.4827 37.931V41.3793H37.931C37.931 39.4748 36.3872 37.931 34.4827 37.931Z" fill="#FF5733"/>
<path d="M44.8276 41.3793H48.2759V37.931C46.3714 37.931 44.8276 39.4749 44.8276 41.3793Z" fill="#FF5733"/>
<path d="M51.7242 37.931H48.2759V41.3793C50.1803 41.3793 51.7242 39.8355 51.7242 37.931Z" fill="#FF5733"/>
<path d="M65.5172 37.931H62.069V41.3793H65.5172V37.931Z" fill="#FF5733"/>
<path d="M67.2413 41.3793C66.8395 41.3793 65.5172 41.3793 65.5172 41.3793C65.5172 41.3793 65.5172 40.2055 65.5172 39.6552C65.5172 39.2253 65.5172 37.931 65.5172 37.931C65.5172 37.931 66.719 37.931 67.2413 37.931C68.1935 37.931 68.9655 38.703 68.9655 39.6552C68.9655 40.6073 68.1935 41.3793 67.2413 41.3793Z" fill="#FF5733"/>
<path d="M75.8621 39.6552C75.8621 40.057 75.8621 41.3793 75.8621 41.3793C75.8621 41.3793 74.6883 41.3793 74.138 41.3792C73.7081 41.3793 72.4138 41.3792 72.4138 41.3792C72.4138 41.3792 72.4138 40.1776 72.4138 39.6551C72.4139 38.703 73.1857 37.931 74.1379 37.931C75.0901 37.931 75.8621 38.703 75.8621 39.6552Z" fill="#FF5733"/>
<path d="M86.2069 39.6552C86.2069 39.2533 86.2069 37.931 86.2069 37.931C86.2069 37.931 87.3807 37.931 87.931 37.931C88.3609 37.931 89.6552 37.931 89.6552 37.931C89.6552 37.931 89.6552 39.1328 89.6552 39.6552C89.6552 40.6073 88.8832 41.3793 87.931 41.3793C86.9788 41.3793 86.2069 40.6073 86.2069 39.6552Z" fill="#FF5733"/>
<path d="M17.2414 41.3793H13.7931V44.8276H17.2414V41.3793Z" fill="#FF5733"/>
<path d="M18.9655 44.8276C18.5637 44.8276 17.2414 44.8276 17.2414 44.8276C17.2414 44.8276 17.2414 43.6537 17.2414 43.1034C17.2414 42.6736 17.2414 41.3793 17.2414 41.3793C17.2414 41.3793 18.4432 41.3793 18.9655 41.3793C19.9177 41.3793 20.6897 42.1512 20.6897 43.1034C20.6897 44.0556 19.9177 44.8276 18.9655 44.8276Z" fill="#FF5733"/>
<path d="M24.1379 44.8276H27.5862V41.3793C25.6818 41.3793 24.1379 42.9231 24.1379 44.8276Z" fill="#FF5733"/>
<path d="M31.0345 41.3793H27.5862V44.8276H31.0345V41.3793Z" fill="#FF5733"/>
<path d="M34.4828 41.3793H31.0345V44.8276H34.4828V41.3793Z" fill="#FF5733"/>
<path d="M37.931 41.3793H34.4827V44.8276C36.3872 44.8276 37.931 43.2837 37.931 41.3793Z" fill="#FF5733"/>
<path d="M41.3793 44.8276H44.8275V41.3793C42.9231 41.3793 41.3793 42.9231 41.3793 44.8276Z" fill="#FF5733"/>
<path d="M48.2759 41.3793H44.8276V44.8276H48.2759V41.3793Z" fill="#FF5733"/>
<path d="M58.6207 43.1034C58.6207 43.5053 58.6207 44.8276 58.6207 44.8276C58.6207 44.8276 57.4469 44.8276 56.8966 44.8275C56.4667 44.8276 55.1724 44.8275 55.1724 44.8275C55.1724 44.8275 55.1724 43.6258 55.1724 43.1034C55.1725 42.1512 55.9443 41.3793 56.8965 41.3793C57.8487 41.3793 58.6207 42.1512 58.6207 43.1034Z" fill="#FF5733"/>
<path d="M65.5172 41.3793H62.069V44.8276H65.5172V41.3793Z" fill="#FF5733"/>
<path d="M72.4138 43.1034C72.4138 42.7016 72.4138 41.3793 72.4138 41.3793C72.4138 41.3793 73.5876 41.3793 74.138 41.3793C74.5678 41.3793 75.8621 41.3793 75.8621 41.3793C75.8621 41.3793 75.8621 42.5811 75.8621 43.1034C75.8621 44.0556 75.0901 44.8276 74.138 44.8276C73.1857 44.8276 72.4138 44.0556 72.4138 43.1034Z" fill="#FF5733"/>
<path d="M10.3448 46.5517C10.3448 46.9535 10.3448 48.2759 10.3448 48.2759C10.3448 48.2759 9.17107 48.2759 8.62068 48.2758C8.19086 48.2759 6.89655 48.2758 6.89655 48.2758C6.89655 48.2758 6.89655 47.0741 6.89655 46.5517C6.89659 45.5995 7.66847 44.8276 8.62064 44.8276C9.57285 44.8276 10.3448 45.5995 10.3448 46.5517Z" fill="#FF5733"/>
<path d="M17.2414 44.8276H13.7931V48.2759H17.2414V44.8276Z" fill="#FF5733"/>
<path d="M27.5862 44.8276H24.1379V48.2759H27.5862V44.8276Z" fill="#FF5733"/>
<path d="M39.6552 44.8276C40.057 44.8276 41.3793 44.8276 41.3793 44.8276C41.3793 44.8276 41.3793 46.0012 41.3793 46.5517C41.3793 46.9814 41.3793 48.2759 41.3793 48.2759C41.3793 48.2759 40.1778 48.2759 39.6552 48.2759C38.7026 48.2759 37.931 47.5036 37.931 46.5517C37.931 45.5997 38.7026 44.8276 39.6552 44.8276Z" fill="#FF5733"/>
<path d="M44.8275 44.8276H41.3793V48.2759H44.8275V44.8276Z" fill="#FF5733"/>
<path d="M48.2759 44.8276H44.8276V48.2759H48.2759V44.8276Z" fill="#FF5733"/>
<path d="M53.4483 44.8276C53.8501 44.8276 55.1724 44.8276 55.1724 44.8276C55.1724 44.8276 55.1724 46.0012 55.1724 46.5517C55.1724 46.9814 55.1724 48.2759 55.1724 48.2759C55.1724 48.2759 53.9709 48.2759 53.4483 48.2759C52.4957 48.2759 51.7241 47.5036 51.7241 46.5517C51.7241 45.5997 52.4957 44.8276 53.4483 44.8276Z" fill="#FF5733"/>
<path d="M58.6207 44.8276H55.1724V48.2759H58.6207V44.8276Z" fill="#FF5733"/>
<path d="M62.0689 44.8276H58.6207V48.2759H62.0689V44.8276Z" fill="#FF5733"/>
<path d="M65.5172 44.8276H62.069V48.2759H65.5172V44.8276Z" fill="#FF5733"/>
<path d="M68.9655 44.8276H65.5172V48.2759H68.9655V44.8276Z" fill="#FF5733"/>
<path d="M68.9655 44.8276V48.2759H72.4138C72.4138 46.3714 70.8699 44.8276 68.9655 44.8276Z" fill="#FF5733"/>
<path d="M81.0345 44.8276C81.4364 44.8276 82.7586 44.8276 82.7586 44.8276C82.7586 44.8276 82.7586 46.0012 82.7586 46.5517C82.7586 46.9814 82.7586 48.2759 82.7586 48.2759C82.7586 48.2759 81.5571 48.2759 81.0345 48.2759C80.082 48.2759 79.3104 47.5036 79.3104 46.5517C79.3104 45.5997 80.082 44.8276 81.0345 44.8276Z" fill="#FF5733"/>
<path d="M82.7586 44.8276V48.2759H86.2069C86.2069 46.3714 84.663 44.8276 82.7586 44.8276Z" fill="#FF5733"/>
<path d="M10.3448 51.7241V48.2758H6.89655C6.89655 50.1803 8.44036 51.7241 10.3448 51.7241Z" fill="#FF5733"/>
<path d="M13.7931 48.2758H10.3448V51.7241H13.7931V48.2758Z" fill="#FF5733"/>
<path d="M17.2414 48.2758H13.7931V51.7241H17.2414V48.2758Z" fill="#FF5733"/>
<path d="M20.6897 48.2758H17.2414V51.7241H20.6897V48.2758Z" fill="#FF5733"/>
<path d="M24.1379 48.2758H20.6896V51.7241H24.1379V48.2758Z" fill="#FF5733"/>
<path d="M27.5862 48.2758H24.1379V51.7241H27.5862V48.2758Z" fill="#FF5733"/>
<path d="M31.0345 48.2758H27.5862V51.7241H31.0345V48.2758Z" fill="#FF5733"/>
<path d="M31.0345 48.2758V51.7241H34.4828C34.4828 49.8197 32.9389 48.2758 31.0345 48.2758Z" fill="#FF5733"/>
<path d="M48.2759 48.2758H44.8276V51.7241H48.2759V48.2758Z" fill="#FF5733"/>
<path d="M62.0689 48.2758H58.6207V51.7241H62.0689V48.2758Z" fill="#FF5733"/>
<path d="M68.9655 51.7241V48.2758H65.5172C65.5172 50.1803 67.061 51.7241 68.9655 51.7241Z" fill="#FF5733"/>
<path d="M72.4138 48.2758H68.9655V51.7241H72.4138V48.2758Z" fill="#FF5733"/>
<path d="M75.8621 48.2758H72.4138V51.7241H75.8621V48.2758Z" fill="#FF5733"/>
<path d="M75.8621 48.2758V51.7241H79.3103C79.3103 49.8197 77.7665 48.2758 75.8621 48.2758Z" fill="#FF5733"/>
<path d="M86.2069 51.7241V48.2758H82.7586C82.7586 50.1803 84.3024 51.7241 86.2069 51.7241Z" fill="#FF5733"/>
<path d="M89.6552 48.2758H86.2069V51.7241H89.6552V48.2758Z" fill="#FF5733"/>
<path d="M89.6552 48.2758V51.7241H93.1034C93.1034 49.8197 91.5596 48.2758 89.6552 48.2758Z" fill="#FF5733"/>
<path d="M20.6897 51.7241H17.2414V55.1724H20.6897V51.7241Z" fill="#FF5733"/>
<path d="M27.5862 51.7241H24.1379V55.1724H27.5862V51.7241Z" fill="#FF5733"/>
<path d="M34.4828 51.7241H31.0345V55.1724H34.4828V51.7241Z" fill="#FF5733"/>
<path d="M37.931 51.7241H34.4827V55.1724H37.931V51.7241Z" fill="#FF5733"/>
<path d="M41.3793 51.7241H37.931V55.1724H41.3793V51.7241Z" fill="#FF5733"/>
<path d="M44.8275 51.7241H41.3793V55.1724H44.8275V51.7241Z" fill="#FF5733"/>
<path d="M48.2759 51.7241H44.8276V55.1724C46.732 55.1724 48.2759 53.6286 48.2759 51.7241Z" fill="#FF5733"/>
<path d="M53.4483 51.7241C54.4005 51.7241 55.1724 52.4961 55.1724 53.4483C55.1724 54.4005 54.4005 55.1724 53.4483 55.1724C52.4961 55.1724 51.7241 54.4005 51.7241 53.4483C51.7241 52.4961 52.4961 51.7241 53.4483 51.7241Z" fill="#FF5733"/>
<path d="M62.0689 55.1724V51.7241H58.6207C58.6207 53.6286 60.1645 55.1724 62.0689 55.1724Z" fill="#FF5733"/>
<path d="M62.069 51.7241V55.1724H65.5172C65.5172 53.268 63.9734 51.7241 62.069 51.7241Z" fill="#FF5733"/>
<path d="M72.4138 55.1724V51.7241H68.9655C68.9655 53.6286 70.5093 55.1724 72.4138 55.1724Z" fill="#FF5733"/>
<path d="M75.8621 51.7241H72.4138V55.1724H75.8621V51.7241Z" fill="#FF5733"/>
<path d="M79.3103 51.7241H75.8621V55.1724H79.3103V51.7241Z" fill="#FF5733"/>
<path d="M89.6552 53.4483C89.6552 53.0464 89.6552 51.7241 89.6552 51.7241C89.6552 51.7241 90.829 51.7241 91.3793 51.7241C91.8091 51.7241 93.1034 51.7241 93.1034 51.7241C93.1034 51.7241 93.1034 52.9259 93.1034 53.4483C93.1034 54.4004 92.3315 55.1724 91.3793 55.1724C90.4271 55.1724 89.6552 54.4004 89.6552 53.4483Z" fill="#FF5733"/>
<path d="M12.069 55.1724C13.0212 55.1724 13.7931 55.9443 13.7931 56.8965C13.7931 57.8488 13.0212 58.6207 12.069 58.6207C11.1168 58.6207 10.3448 57.8488 10.3448 56.8965C10.3448 55.9443 11.1168 55.1724 12.069 55.1724Z" fill="#FF5733"/>
<path d="M20.6897 55.1724H17.2414V58.6207H20.6897V55.1724Z" fill="#FF5733"/>
<path d="M27.5862 58.6207V55.1724H24.1379C24.1379 57.0768 25.6818 58.6207 27.5862 58.6207Z" fill="#FF5733"/>
<path d="M31.0345 55.1724H27.5862V58.6207H31.0345V55.1724Z" fill="#FF5733"/>
<path d="M34.4828 55.1724H31.0345V58.6207C32.9389 58.6207 34.4828 57.0768 34.4828 55.1724Z" fill="#FF5733"/>
<path d="M44.8275 55.1724H41.3793V58.6207H44.8275V55.1724Z" fill="#FF5733"/>
<path d="M51.7242 56.8965C51.7242 57.2984 51.7242 58.6207 51.7242 58.6207C51.7242 58.6207 50.5504 58.6207 50 58.6206C49.5702 58.6207 48.2759 58.6206 48.2759 58.6206C48.2759 58.6206 48.2759 57.4189 48.2759 56.8965C48.2759 55.9443 49.0478 55.1724 50 55.1724C50.9522 55.1724 51.7242 55.9443 51.7242 56.8965Z" fill="#FF5733"/>
<path d="M56.8966 55.1724C57.8488 55.1724 58.6207 55.9443 58.6207 56.8965C58.6207 57.8488 57.8488 58.6207 56.8966 58.6207C55.9444 58.6207 55.1724 57.8488 55.1724 56.8965C55.1724 55.9443 55.9444 55.1724 56.8966 55.1724Z" fill="#FF5733"/>
<path d="M65.5172 58.6207V55.1724H62.069C62.069 57.0768 63.6128 58.6207 65.5172 58.6207Z" fill="#FF5733"/>
<path d="M65.5172 55.1724V58.6207H68.9655C68.9655 56.7162 67.4216 55.1724 65.5172 55.1724Z" fill="#FF5733"/>
<path d="M79.3103 55.1724H75.8621V58.6207H79.3103V55.1724Z" fill="#FF5733"/>
<path d="M84.4827 55.1724C84.8846 55.1724 86.2069 55.1724 86.2069 55.1724C86.2069 55.1724 86.2069 56.3461 86.2069 56.8965C86.2069 57.3262 86.2069 58.6207 86.2069 58.6207C86.2069 58.6207 85.0054 58.6207 84.4827 58.6207C83.5302 58.6207 82.7586 57.8484 82.7586 56.8965C82.7586 55.9446 83.5302 55.1724 84.4827 55.1724Z" fill="#FF5733"/>
<path d="M87.931 58.6207C87.5292 58.6207 86.2069 58.6207 86.2069 58.6207C86.2069 58.6207 86.2069 57.4468 86.2069 56.8965C86.2069 56.4667 86.2069 55.1724 86.2069 55.1724C86.2069 55.1724 87.4087 55.1724 87.931 55.1724C88.8832 55.1724 89.6552 55.9443 89.6552 56.8965C89.6552 57.8487 88.8832 58.6207 87.931 58.6207Z" fill="#FF5733"/>
<path d="M8.62068 58.6207C9.57294 58.6207 10.3448 59.3926 10.3448 60.3448C10.3448 61.2971 9.57294 62.069 8.62068 62.069C7.66848 62.069 6.89655 61.2971 6.89655 60.3448C6.89655 59.3926 7.66848 58.6207 8.62068 58.6207Z" fill="#FF5733"/>
<path d="M15.5172 58.6207C15.9191 58.6207 17.2414 58.6207 17.2414 58.6207C17.2414 58.6207 17.2414 59.7944 17.2414 60.3448C17.2414 60.7745 17.2414 62.069 17.2414 62.069C17.2414 62.069 16.0399 62.069 15.5172 62.069C14.5647 62.069 13.7931 61.2967 13.7931 60.3448C13.7931 59.3928 14.5647 58.6207 15.5172 58.6207Z" fill="#FF5733"/>
<path d="M20.6897 58.6207H17.2414V62.069C19.1458 62.069 20.6897 60.5251 20.6897 58.6207Z" fill="#FF5733"/>
<path d="M36.2069 58.6207C36.6087 58.6207 37.931 58.6207 37.931 58.6207C37.931 58.6207 37.931 59.7944 37.931 60.3448C37.931 60.7745 37.931 62.069 37.931 62.069C37.931 62.069 36.7295 62.069 36.2069 62.069C35.2543 62.069 34.4827 61.2967 34.4827 60.3448C34.4827 59.3928 35.2543 58.6207 36.2069 58.6207Z" fill="#FF5733"/>
<path d="M41.3793 58.6207H37.931V62.069H41.3793V58.6207Z" fill="#FF5733"/>
<path d="M44.8275 58.6207H41.3793V62.069C43.2837 62.069 44.8275 60.5251 44.8275 58.6207Z" fill="#FF5733"/>
<path d="M51.7242 62.069V58.6207H48.2759C48.2759 60.5251 49.8197 62.069 51.7242 62.069Z" fill="#FF5733"/>
<path d="M53.4483 62.069C53.0464 62.069 51.7241 62.069 51.7241 62.069C51.7241 62.069 51.7241 60.8951 51.7241 60.3448C51.7241 59.915 51.7241 58.6207 51.7241 58.6207C51.7241 58.6207 52.9259 58.6207 53.4483 58.6207C54.4004 58.6207 55.1724 59.3926 55.1724 60.3448C55.1724 61.297 54.4004 62.069 53.4483 62.069Z" fill="#FF5733"/>
<path d="M68.9655 58.6207H65.5172V62.069H68.9655V58.6207Z" fill="#FF5733"/>
<path d="M72.4138 62.069H75.8621V58.6207C73.9577 58.6207 72.4138 60.1645 72.4138 62.069Z" fill="#FF5733"/>
<path d="M79.3103 58.6207H75.8621V62.069H79.3103V58.6207Z" fill="#FF5733"/>
<path d="M93.1034 60.3448C93.1034 60.7467 93.1034 62.069 93.1034 62.069C93.1034 62.069 91.9297 62.069 91.3793 62.0689C90.9495 62.069 89.6552 62.0689 89.6552 62.0689C89.6552 62.0689 89.6552 60.8672 89.6552 60.3448C89.6552 59.3926 90.4271 58.6207 91.3792 58.6207C92.3315 58.6207 93.1034 59.3926 93.1034 60.3448Z" fill="#FF5733"/>
<path d="M22.4138 62.069C23.366 62.069 24.1379 62.8409 24.1379 63.7931C24.1379 64.7453 23.366 65.5172 22.4138 65.5172C21.4616 65.5172 20.6896 64.7453 20.6896 63.7931C20.6896 62.8409 21.4616 62.069 22.4138 62.069Z" fill="#FF5733"/>
<path d="M29.3103 62.069C30.2626 62.069 31.0345 62.8409 31.0345 63.7931C31.0345 64.7453 30.2626 65.5172 29.3103 65.5172C28.3581 65.5172 27.5862 64.7453 27.5862 63.7931C27.5862 62.8409 28.3581 62.069 29.3103 62.069Z" fill="#FF5733"/>
<path d="M46.5517 62.069C47.504 62.069 48.2759 62.8409 48.2759 63.7931C48.2759 64.7453 47.504 65.5172 46.5517 65.5172C45.5995 65.5172 44.8276 64.7453 44.8276 63.7931C44.8276 62.8409 45.5995 62.069 46.5517 62.069Z" fill="#FF5733"/>
<path d="M62.069 65.5172H65.5172V62.069C63.6128 62.069 62.069 63.6128 62.069 65.5172Z" fill="#FF5733"/>
<path d="M68.9655 62.069H65.5172V65.5172H68.9655V62.069Z" fill="#FF5733"/>
<path d="M72.4138 62.069H68.9655V65.5172H72.4138V62.069Z" fill="#FF5733"/>
<path d="M75.8621 62.069H72.4138V65.5172H75.8621V62.069Z" fill="#FF5733"/>
<path d="M79.3103 62.069H75.8621V65.5172H79.3103V62.069Z" fill="#FF5733"/>
<path d="M82.7586 62.069H79.3104V65.5172H82.7586V62.069Z" fill="#FF5733"/>
<path d="M86.2069 62.069H82.7586V65.5172H86.2069V62.069Z" fill="#FF5733"/>
<path d="M89.6552 62.069H86.2069V65.5172H89.6552V62.069Z" fill="#FF5733"/>
<path d="M93.1034 62.069H89.6552V65.5172H93.1034V62.069Z" fill="#FF5733"/>
<path d="M37.931 67.2414C37.931 67.6432 37.931 68.9655 37.931 68.9655C37.931 68.9655 36.7573 68.9655 36.2069 68.9654C35.777 68.9655 34.4827 68.9654 34.4827 68.9654C34.4827 68.9654 34.4827 67.7638 34.4827 67.2413C34.4828 66.2892 35.2547 65.5172 36.2068 65.5172C37.159 65.5172 37.931 66.2892 37.931 67.2414Z" fill="#FF5733"/>
<path d="M43.1034 65.5172C44.0557 65.5172 44.8275 66.2892 44.8275 67.2414C44.8275 68.1936 44.0557 68.9655 43.1034 68.9655C42.1512 68.9655 41.3793 68.1936 41.3793 67.2414C41.3793 66.2892 42.1512 65.5172 43.1034 65.5172Z" fill="#FF5733"/>
<path d="M48.2759 68.9655H51.7242V65.5172C49.8197 65.5172 48.2759 67.0611 48.2759 68.9655Z" fill="#FF5733"/>
<path d="M53.4483 68.9655C53.0464 68.9655 51.7241 68.9655 51.7241 68.9655C51.7241 68.9655 51.7241 67.7917 51.7241 67.2414C51.7241 66.8116 51.7241 65.5172 51.7241 65.5172C51.7241 65.5172 52.9259 65.5172 53.4483 65.5172C54.4004 65.5172 55.1724 66.2892 55.1724 67.2414C55.1724 68.1935 54.4004 68.9655 53.4483 68.9655Z" fill="#FF5733"/>
<path d="M60.3448 65.5172C60.7467 65.5172 62.0689 65.5172 62.0689 65.5172C62.0689 65.5172 62.0689 66.6909 62.0689 67.2414C62.0689 67.6711 62.0689 68.9655 62.0689 68.9655C62.0689 68.9655 60.8674 68.9655 60.3448 68.9655C59.3923 68.9655 58.6207 68.1932 58.6207 67.2414C58.6207 66.2894 59.3923 65.5172 60.3448 65.5172Z" fill="#FF5733"/>
<path d="M65.5172 65.5172H62.069V68.9655H65.5172V65.5172Z" fill="#FF5733"/>
<path d="M79.3103 65.5172H75.8621V68.9655H79.3103V65.5172Z" fill="#FF5733"/>
<path d="M86.2069 65.5172H82.7586V68.9655H86.2069V65.5172Z" fill="#FF5733"/>
<path d="M93.1034 65.5172H89.6552V68.9655H93.1034V65.5172Z" fill="#FF5733"/>
<path d="M37.931 68.9655H34.4827V72.4138H37.931V68.9655Z" fill="#FF5733"/>
<path d="M46.5517 68.9655C46.9536 68.9655 48.2759 68.9655 48.2759 68.9655C48.2759 68.9655 48.2759 70.1392 48.2759 70.6897C48.2759 71.1193 48.2759 72.4138 48.2759 72.4138C48.2759 72.4138 47.0743 72.4138 46.5517 72.4138C45.5992 72.4138 44.8276 71.6415 44.8276 70.6897C44.8276 69.7377 45.5992 68.9655 46.5517 68.9655Z" fill="#FF5733"/>
<path d="M51.7242 68.9655H48.2759V72.4138H51.7242V68.9655Z" fill="#FF5733"/>
<path d="M65.5172 68.9655H62.069V72.4138H65.5172V68.9655Z" fill="#FF5733"/>
<path d="M70.6897 68.9655C71.6419 68.9655 72.4138 69.7374 72.4138 70.6897C72.4138 71.6419 71.6419 72.4138 70.6897 72.4138C69.7374 72.4138 68.9655 71.6419 68.9655 70.6897C68.9655 69.7374 69.7374 68.9655 70.6897 68.9655Z" fill="#FF5733"/>
<path d="M79.3103 68.9655H75.8621V72.4138H79.3103V68.9655Z" fill="#FF5733"/>
<path d="M86.2069 72.4138V68.9655H82.7586C82.7586 70.8699 84.3024 72.4138 86.2069 72.4138Z" fill="#FF5733"/>
<path d="M89.6552 68.9655H86.2069V72.4138H89.6552V68.9655Z" fill="#FF5733"/>
<path d="M93.1034 68.9655H89.6552V72.4138H93.1034V68.9655Z" fill="#FF5733"/>
<path d="M37.931 75.8621V72.4138H34.4827C34.4827 74.3182 36.0265 75.8621 37.931 75.8621Z" fill="#FF5733"/>
<path d="M37.931 72.4138V75.8621H41.3793C41.3793 73.9576 39.8355 72.4138 37.931 72.4138Z" fill="#FF5733"/>
<path d="M51.7242 72.4138H48.2759V75.8621H51.7242V72.4138Z" fill="#FF5733"/>
<path d="M60.3448 72.4138C60.7467 72.4138 62.0689 72.4138 62.0689 72.4138C62.0689 72.4138 62.0689 73.5875 62.0689 74.1379C62.0689 74.5676 62.0689 75.8621 62.0689 75.8621C62.0689 75.8621 60.8674 75.8621 60.3448 75.8621C59.3923 75.8621 58.6207 75.0898 58.6207 74.1379C58.6207 73.1859 59.3923 72.4138 60.3448 72.4138Z" fill="#FF5733"/>
<path d="M65.5172 72.4138H62.069V75.8621H65.5172V72.4138Z" fill="#FF5733"/>
<path d="M79.3103 72.4138H75.8621V75.8621H79.3103V72.4138Z" fill="#FF5733"/>
<path d="M89.6552 75.8621V72.4138H86.2069C86.2069 74.3182 87.7507 75.8621 89.6552 75.8621Z" fill="#FF5733"/>
<path d="M93.1034 72.4138H89.6552V75.8621C91.5596 75.8621 93.1034 74.3182 93.1034 72.4138Z" fill="#FF5733"/>
<path d="M37.931 77.5862C37.931 77.1843 37.931 75.8621 37.931 75.8621C37.931 75.8621 39.1048 75.8621 39.6552 75.8621C40.085 75.8621 41.3793 75.8621 41.3793 75.8621C41.3793 75.8621 41.3793 77.0639 41.3793 77.5862C41.3793 78.5384 40.6073 79.3103 39.6552 79.3103C38.703 79.3103 37.931 78.5384 37.931 77.5862Z" fill="#FF5733"/>
<path d="M46.5517 75.8621C46.9536 75.8621 48.2759 75.8621 48.2759 75.8621C48.2759 75.8621 48.2759 77.0357 48.2759 77.5862C48.2759 78.0159 48.2759 79.3103 48.2759 79.3103C48.2759 79.3103 47.0743 79.3103 46.5517 79.3103C45.5992 79.3103 44.8276 78.5381 44.8276 77.5862C44.8276 76.6342 45.5992 75.8621 46.5517 75.8621Z" fill="#FF5733"/>
<path d="M51.7242 75.8621H48.2759V79.3103H51.7242V75.8621Z" fill="#FF5733"/>
<path d="M51.7241 75.8621V79.3103H55.1724C55.1724 77.4059 53.6285 75.8621 51.7241 75.8621Z" fill="#FF5733"/>
<path d="M65.5172 79.3103V75.8621H62.069C62.069 77.7665 63.6128 79.3103 65.5172 79.3103Z" fill="#FF5733"/>
<path d="M68.9655 75.8621H65.5172V79.3103H68.9655V75.8621Z" fill="#FF5733"/>
<path d="M72.4138 75.8621H68.9655V79.3103H72.4138V75.8621Z" fill="#FF5733"/>
<path d="M75.8621 75.8621H72.4138V79.3103H75.8621V75.8621Z" fill="#FF5733"/>
<path d="M79.3103 75.8621H75.8621V79.3103H79.3103V75.8621Z" fill="#FF5733"/>
<path d="M79.3104 75.8621V79.3103H82.7586C82.7586 77.4059 81.2148 75.8621 79.3104 75.8621Z" fill="#FF5733"/>
<path d="M37.931 81.0345C37.931 81.4363 37.931 82.7586 37.931 82.7586C37.931 82.7586 36.7573 82.7586 36.2069 82.7585C35.777 82.7586 34.4827 82.7585 34.4827 82.7585C34.4827 82.7585 34.4827 81.5569 34.4827 81.0344C34.4828 80.0823 35.2547 79.3103 36.2068 79.3103C37.159 79.3103 37.931 80.0823 37.931 81.0345Z" fill="#FF5733"/>
<path d="M51.7242 79.3103H48.2759V82.7586H51.7242V79.3103Z" fill="#FF5733"/>
<path d="M55.1724 79.3103H51.7241V82.7586H55.1724V79.3103Z" fill="#FF5733"/>
<path d="M56.8966 82.7586C56.4947 82.7586 55.1724 82.7586 55.1724 82.7586C55.1724 82.7586 55.1724 81.5848 55.1724 81.0345C55.1724 80.6047 55.1724 79.3103 55.1724 79.3103C55.1724 79.3103 56.3742 79.3103 56.8966 79.3103C57.8487 79.3103 58.6207 80.0823 58.6207 81.0345C58.6207 81.9866 57.8487 82.7586 56.8966 82.7586Z" fill="#FF5733"/>
<path d="M72.4138 79.3103H68.9655V82.7586H72.4138V79.3103Z" fill="#FF5733"/>
<path d="M79.3103 79.3103H75.8621V82.7586H79.3103V79.3103Z" fill="#FF5733"/>
<path d="M82.7586 79.3103H79.3104V82.7586H82.7586V79.3103Z" fill="#FF5733"/>
<path d="M86.2069 79.3103H82.7586V82.7586H86.2069V79.3103Z" fill="#FF5733"/>
<path d="M89.6552 79.3103H86.2069V82.7586H89.6552V79.3103Z" fill="#FF5733"/>
<path d="M91.3793 82.7586C90.9774 82.7586 89.6552 82.7586 89.6552 82.7586C89.6552 82.7586 89.6552 81.5848 89.6552 81.0345C89.6552 80.6047 89.6552 79.3103 89.6552 79.3103C89.6552 79.3103 90.857 79.3103 91.3793 79.3103C92.3315 79.3103 93.1034 80.0823 93.1034 81.0345C93.1034 81.9866 92.3315 82.7586 91.3793 82.7586Z" fill="#FF5733"/>
<path d="M34.4827 84.4827C34.4827 84.0809 34.4827 82.7586 34.4827 82.7586C34.4827 82.7586 35.6565 82.7586 36.2069 82.7586C36.6367 82.7586 37.931 82.7586 37.931 82.7586C37.931 82.7586 37.931 83.9604 37.931 84.4827C37.931 85.4349 37.159 86.2069 36.2069 86.2069C35.2547 86.2069 34.4827 85.4349 34.4827 84.4827Z" fill="#FF5733"/>
<path d="M41.3793 86.2069H44.8275V82.7586C42.9231 82.7586 41.3793 84.3024 41.3793 86.2069Z" fill="#FF5733"/>
<path d="M48.2759 82.7586H44.8276V86.2069H48.2759V82.7586Z" fill="#FF5733"/>
<path d="M51.7242 82.7586H48.2759V86.2069H51.7242V82.7586Z" fill="#FF5733"/>
<path d="M55.1724 82.7586H51.7241V86.2069C53.6285 86.2069 55.1724 84.663 55.1724 82.7586Z" fill="#FF5733"/>
<path d="M65.5172 86.2069H68.9655V82.7586C67.0611 82.7586 65.5172 84.3024 65.5172 86.2069Z" fill="#FF5733"/>
<path d="M72.4138 82.7586H68.9655V86.2069H72.4138V82.7586Z" fill="#FF5733"/>
<path d="M79.3103 82.7586H75.8621V86.2069H79.3103V82.7586Z" fill="#FF5733"/>
<path d="M86.2069 82.7586H82.7586V86.2069H86.2069V82.7586Z" fill="#FF5733"/>
<path d="M89.6552 82.7586H86.2069V86.2069C88.1113 86.2069 89.6552 84.663 89.6552 82.7586Z" fill="#FF5733"/>
<path d="M41.3793 87.931C41.3793 87.5292 41.3793 86.2069 41.3793 86.2069C41.3793 86.2069 42.5531 86.2069 43.1034 86.2069C43.5332 86.2069 44.8275 86.2069 44.8275 86.2069C44.8275 86.2069 44.8275 87.4087 44.8275 87.931C44.8275 88.8832 44.0556 89.6552 43.1034 89.6552C42.1512 89.6552 41.3793 88.8832 41.3793 87.931Z" fill="#FF5733"/>
<path d="M60.3448 86.2069C61.2971 86.2069 62.0689 86.9788 62.0689 87.931C62.0689 88.8833 61.2971 89.6552 60.3448 89.6552C59.3926 89.6552 58.6207 88.8833 58.6207 87.931C58.6207 86.9788 59.3926 86.2069 60.3448 86.2069Z" fill="#FF5733"/>
<path d="M68.9655 89.6552V86.2069H65.5172C65.5172 88.1113 67.061 89.6552 68.9655 89.6552Z" fill="#FF5733"/>
<path d="M72.4138 86.2069H68.9655V89.6552C70.8699 89.6552 72.4138 88.1113 72.4138 86.2069Z" fill="#FF5733"/>
<path d="M79.3103 86.2069H75.8621V89.6552H79.3103V86.2069Z" fill="#FF5733"/>
<path d="M86.2069 86.2069H82.7586V89.6552H86.2069V86.2069Z" fill="#FF5733"/>
<path d="M36.2069 89.6552C36.6087 89.6552 37.931 89.6552 37.931 89.6552C37.931 89.6552 37.931 90.8288 37.931 91.3793C37.931 91.809 37.931 93.1034 37.931 93.1034C37.931 93.1034 36.7295 93.1034 36.2069 93.1034C35.2543 93.1034 34.4827 92.3312 34.4827 91.3793C34.4827 90.4273 35.2543 89.6552 36.2069 89.6552Z" fill="#FF5733"/>
<path d="M39.6552 93.1034C39.2533 93.1034 37.931 93.1034 37.931 93.1034C37.931 93.1034 37.931 91.9296 37.931 91.3793C37.931 90.9495 37.931 89.6552 37.931 89.6552C37.931 89.6552 39.1328 89.6552 39.6552 89.6552C40.6073 89.6552 41.3793 90.4271 41.3793 91.3793C41.3793 92.3315 40.6073 93.1034 39.6552 93.1034Z" fill="#FF5733"/>
<path d="M50 89.6552C50.9523 89.6552 51.7242 90.4271 51.7242 91.3793C51.7242 92.3316 50.9523 93.1034 50 93.1034C49.0478 93.1034 48.2759 92.3316 48.2759 91.3793C48.2759 90.4271 49.0478 89.6552 50 89.6552Z" fill="#FF5733"/>
<path d="M56.8966 89.6552C57.8488 89.6552 58.6207 90.4271 58.6207 91.3793C58.6207 92.3316 57.8488 93.1034 56.8966 93.1034C55.9444 93.1034 55.1724 92.3316 55.1724 91.3793C55.1724 90.4271 55.9444 89.6552 56.8966 89.6552Z" fill="#FF5733"/>
<path d="M74.138 89.6552C74.5398 89.6552 75.8621 89.6552 75.8621 89.6552C75.8621 89.6552 75.8621 90.8288 75.8621 91.3793C75.8621 91.809 75.8621 93.1034 75.8621 93.1034C75.8621 93.1034 74.6606 93.1034 74.138 93.1034C73.1854 93.1034 72.4138 92.3312 72.4138 91.3793C72.4138 90.4273 73.1854 89.6552 74.138 89.6552Z" fill="#FF5733"/>
<path d="M79.3103 89.6552H75.8621V93.1034H79.3103V89.6552Z" fill="#FF5733"/>
<path d="M82.7586 89.6552H79.3104V93.1034H82.7586V89.6552Z" fill="#FF5733"/>
<path d="M86.2069 89.6552H82.7586V93.1034H86.2069V89.6552Z" fill="#FF5733"/>
<path d="M89.6552 89.6552H86.2069V93.1034H89.6552V89.6552Z" fill="#FF5733"/>
<path d="M91.3793 93.1034C90.9774 93.1034 89.6552 93.1034 89.6552 93.1034C89.6552 93.1034 89.6552 91.9296 89.6552 91.3793C89.6552 90.9495 89.6552 89.6552 89.6552 89.6552C89.6552 89.6552 90.857 89.6552 91.3793 89.6552C92.3315 89.6552 93.1034 90.4271 93.1034 91.3793C93.1034 92.3315 92.3315 93.1034 91.3793 93.1034Z" fill="#FF5733"/>
<path d="M22.7935 6.89847H15.1375C11.4062 6.89847 8.24513 9.36368 7.23448 12.7331C7.12996 13.0816 7.04837 13.4398 6.99165 13.806C6.92913 14.2101 6.89655 14.6238 6.89655 15.045V22.8828C6.89655 27.3771 10.5945 31.0318 15.1375 31.0318L18.9655 31.0325L22.7935 31.0316C27.3363 31.0316 31.0345 27.3768 31.0345 22.8826V15.045C31.0345 10.553 27.3365 6.89847 22.7935 6.89847ZM27.4138 22.8828C27.4138 25.3797 25.3413 27.4111 22.7926 27.4111L18.9655 27.4118L15.1384 27.4109C12.5897 27.4109 10.5172 25.3794 10.5172 22.8828V15.045C10.5172 14.2651 10.7195 13.5308 11.0755 12.8893C11.4183 12.2721 11.9032 11.7413 12.4871 11.3394C13.2378 10.8226 14.1519 10.5192 15.1372 10.5192H22.7935C25.3413 10.5192 27.4138 12.5494 27.4138 15.045V22.8828Z" fill="#FF5733"/>
<path d="M84.8625 6.89847H77.2064C73.4752 6.89847 70.3141 9.36368 69.3034 12.7331C69.1989 13.0816 69.1173 13.4398 69.0606 13.806C68.9981 14.2101 68.9655 14.6238 68.9655 15.045V22.8828C68.9655 27.3771 72.6634 31.0318 77.2064 31.0318L81.0345 31.0325L84.8625 31.0316C89.4053 31.0316 93.1034 27.3768 93.1034 22.8826V15.045C93.1034 10.553 89.4055 6.89847 84.8625 6.89847ZM89.4828 22.8828C89.4828 25.3797 87.4103 27.4111 84.8616 27.4111L81.0345 27.4118L77.2074 27.4109C74.6587 27.4109 72.5862 25.3794 72.5862 22.8828V15.045C72.5862 14.2651 72.7885 13.5308 73.1445 12.8893C73.4873 12.2721 73.9722 11.7413 74.5561 11.3394C75.3068 10.8226 76.2209 10.5192 77.2062 10.5192H84.8625C87.4103 10.5192 89.4828 12.5494 89.4828 15.045V22.8828Z" fill="#FF5733"/>
<path d="M22.7935 68.9674H15.1375C11.4062 68.9674 8.24513 71.4326 7.23448 74.8021C7.12996 75.1506 7.04837 75.5088 6.99165 75.875C6.92913 76.2791 6.89655 76.6928 6.89655 77.114V84.9518C6.89655 89.4461 10.5945 93.1008 15.1375 93.1008L18.9655 93.1015L22.7935 93.1005C27.3363 93.1005 31.0345 89.4458 31.0345 84.9516V77.114C31.0345 72.6219 27.3365 68.9674 22.7935 68.9674ZM27.4138 84.9518C27.4138 87.4486 25.3413 89.4801 22.7926 89.4801L18.9655 89.4808L15.1384 89.4798C12.5897 89.4798 10.5172 87.4484 10.5172 84.9518V77.114C10.5172 76.3341 10.7195 75.5998 11.0755 74.9582C11.4183 74.341 11.9032 73.8102 12.4871 73.4083C13.2378 72.8915 14.1519 72.5881 15.1372 72.5881H22.7935C25.3413 72.5881 27.4138 74.6184 27.4138 77.114V84.9518Z" fill="#FF5733"/>
<path d="M16.6225 24.1379C15.0615 24.1379 13.7916 22.8932 13.7916 21.3647V16.5649C13.7916 16.0874 13.9158 15.638 14.1331 15.2448C14.343 14.8664 14.6401 14.5411 14.9979 14.2957C15.4576 13.9794 16.0178 13.7931 16.6209 13.7931H21.3099C22.8695 13.7931 24.1393 15.0363 24.1393 16.5648V21.3646C24.1393 22.893 22.8696 24.1378 21.3099 24.1378H18.9655L16.6225 24.1379Z" fill="#FF5733"/>
<path d="M78.6915 24.1379C77.1304 24.1379 75.8606 22.8932 75.8606 21.3647V16.5649C75.8606 16.0874 75.9847 15.638 76.2021 15.2448C76.412 14.8664 76.7091 14.5411 77.0669 14.2957C77.5265 13.9794 78.0868 13.7931 78.6899 13.7931H83.3789C84.9385 13.7931 86.2083 15.0363 86.2083 16.5648V21.3646C86.2083 22.893 84.9386 24.1378 83.3789 24.1378H81.0345L78.6915 24.1379Z" fill="#FF5733"/>
<path d="M16.6225 86.2069C15.0615 86.2069 13.7916 84.9622 13.7916 83.4336V78.6339C13.7916 78.1563 13.9158 77.707 14.1331 77.3138C14.343 76.9353 14.6401 76.6101 14.9979 76.3647C15.4576 76.0484 16.0178 75.8621 16.6209 75.8621H21.3099C22.8695 75.8621 24.1393 77.1053 24.1393 78.6338V83.4335C24.1393 84.962 22.8696 86.2068 21.3099 86.2068H18.9655L16.6225 86.2069Z" fill="#FF5733"/>
</g>
<defs>
<clipPath id="clip0_3_225">
<rect width="100" height="100" fill="white"/>
</clipPath>
</defs>
</svg>
