<svg width="20" height="20" viewBox="0 0 20 20" fill="none" xmlns="http://www.w3.org/2000/svg">
<path fill-rule="evenodd" clip-rule="evenodd" d="M10.025 12.475C10.1421 12.5922 10.2078 12.7511 10.2078 12.9167C10.2078 13.0823 10.1421 13.2412 10.025 13.3584L8.35835 15.025C8.30113 15.0864 8.23213 15.1357 8.15546 15.1698C8.0788 15.204 7.99604 15.2224 7.91212 15.2238C7.8282 15.2253 7.74484 15.2099 7.66702 15.1785C7.58919 15.147 7.5185 15.1002 7.45915 15.0409C7.3998 14.9815 7.35301 14.9108 7.32158 14.833C7.29014 14.7552 7.27471 14.6718 7.27619 14.5879C7.27767 14.504 7.29604 14.4212 7.3302 14.3446C7.36436 14.2679 7.41361 14.1989 7.47501 14.1417L9.14168 12.475C9.25887 12.358 9.41772 12.2922 9.58335 12.2922C9.74897 12.2922 9.90783 12.358 10.025 12.475ZM13.775 12.475C13.8921 12.5922 13.9578 12.7511 13.9578 12.9167C13.9578 13.0823 13.8921 13.2412 13.775 13.3584L12.1083 15.025C12.0511 15.0864 11.9821 15.1357 11.9055 15.1698C11.8288 15.204 11.746 15.2224 11.6621 15.2238C11.5782 15.2253 11.4948 15.2099 11.417 15.1785C11.3392 15.147 11.2685 15.1002 11.2091 15.0409C11.1498 14.9815 11.103 14.9108 11.0716 14.833C11.0401 14.7552 11.0247 14.6718 11.0262 14.5879C11.0277 14.504 11.046 14.4212 11.0802 14.3446C11.1144 14.2679 11.1636 14.1989 11.225 14.1417L12.8917 12.475C13.0089 12.358 13.1677 12.2922 13.3333 12.2922C13.499 12.2922 13.6578 12.358 13.775 12.475ZM6.69168 15.3917C6.80872 15.5089 6.87446 15.6677 6.87446 15.8334C6.87446 15.999 6.80872 16.1578 6.69168 16.275L5.02501 17.9417C4.90654 18.0521 4.74983 18.1122 4.58791 18.1093C4.42599 18.1065 4.27151 18.0409 4.157 17.9264C4.04249 17.8119 3.97689 17.6574 3.97404 17.4955C3.97118 17.3335 4.03128 17.1768 4.14168 17.0584L5.80835 15.3917C5.92554 15.2746 6.08439 15.2089 6.25001 15.2089C6.41564 15.2089 6.57449 15.2746 6.69168 15.3917ZM14.6083 15.3917C14.7254 15.5089 14.7911 15.6677 14.7911 15.8334C14.7911 15.999 14.7254 16.1578 14.6083 16.275L12.9417 17.9417C12.8845 18.0031 12.8155 18.0523 12.7388 18.0865C12.6621 18.1207 12.5794 18.139 12.4954 18.1405C12.4115 18.142 12.3282 18.1266 12.2503 18.0951C12.1725 18.0637 12.1018 18.0169 12.0425 17.9576C11.9831 17.8982 11.9363 17.8275 11.9049 17.7497C11.8735 17.6719 11.858 17.5885 11.8595 17.5046C11.861 17.4207 11.8794 17.3379 11.9135 17.2612C11.9477 17.1846 11.9969 17.1156 12.0583 17.0584L13.725 15.3917C13.8422 15.2746 14.0011 15.2089 14.1667 15.2089C14.3323 15.2089 14.4912 15.2746 14.6083 15.3917ZM10.4417 16.225C10.5587 16.3422 10.6245 16.5011 10.6245 16.6667C10.6245 16.8323 10.5587 16.9912 10.4417 17.1084L8.77501 18.775C8.7178 18.8364 8.6488 18.8857 8.57213 18.9198C8.49546 18.954 8.4127 18.9724 8.32878 18.9738C8.24486 18.9753 8.16151 18.9599 8.08368 18.9285C8.00586 18.897 7.93517 18.8502 7.87582 18.7909C7.81647 18.7315 7.76968 18.6608 7.73825 18.583C7.70681 18.5052 7.69137 18.4218 7.69285 18.3379C7.69434 18.254 7.7127 18.1712 7.74686 18.0946C7.78102 18.0179 7.83028 17.9489 7.89168 17.8917L9.55835 16.225C9.67554 16.108 9.83439 16.0422 10 16.0422C10.1656 16.0422 10.3245 16.108 10.4417 16.225Z" fill="#8F8F8F"/>
<path d="M10.3967 3.125C8.10502 3.125 6.26002 4.95833 6.26002 7.20583C6.26002 7.59083 6.31419 7.96333 6.41419 8.315C6.82835 8.435 7.21669 8.615 7.56669 8.84833C7.63868 8.89194 7.70112 8.94965 7.75027 9.01798C7.79942 9.08632 7.83425 9.16387 7.85269 9.246C7.87113 9.32813 7.87279 9.41314 7.85757 9.49592C7.84235 9.57871 7.81056 9.65756 7.76412 9.72776C7.71767 9.79796 7.65753 9.85806 7.58729 9.90444C7.51705 9.95083 7.43817 9.98255 7.35537 9.9977C7.27257 10.0128 7.18757 10.0111 7.10545 9.99261C7.02334 9.97411 6.94581 9.9392 6.87752 9.89C6.39162 9.56804 5.82123 9.39725 5.23835 9.39917C3.60419 9.39917 2.29169 10.7075 2.29169 12.3042C2.29169 13.1992 2.70169 14.0008 3.35252 14.5358C3.4172 14.5875 3.47098 14.6515 3.51071 14.7242C3.55045 14.7968 3.57536 14.8766 3.584 14.9589C3.59264 15.0413 3.58483 15.1245 3.56104 15.2038C3.53724 15.2831 3.49792 15.3569 3.44537 15.4208C3.39282 15.4848 3.32809 15.5377 3.25493 15.5765C3.18176 15.6152 3.10163 15.639 3.01918 15.6466C2.93673 15.6541 2.85361 15.6451 2.77465 15.6203C2.69568 15.5954 2.62244 15.5551 2.55919 15.5017C2.08514 15.1144 1.70308 14.6267 1.44064 14.0737C1.17819 13.5207 1.04192 12.9163 1.04169 12.3042C1.04169 10.05 2.85002 8.22667 5.09502 8.15167C5.03847 7.83956 5.01002 7.52302 5.01002 7.20583C5.01002 4.255 7.42835 1.875 10.3967 1.875C13.0284 1.875 15.2267 3.745 15.6925 6.22583C17.6092 7.04 18.9584 8.92417 18.9584 11.1275C18.9575 11.9998 18.7418 12.8584 18.3304 13.6276C17.9189 14.3967 17.3243 15.0527 16.5992 15.5375C16.4617 15.6282 16.294 15.6609 16.1325 15.6286C15.971 15.5962 15.8288 15.5015 15.7368 15.3649C15.6448 15.2283 15.6104 15.0609 15.6411 14.8991C15.6718 14.7373 15.7652 14.5942 15.9009 14.5008C16.4562 14.1304 16.9116 13.6288 17.2269 13.0404C17.5422 12.4521 17.7075 11.795 17.7084 11.1275C17.7084 9.34667 16.55 7.82583 14.9267 7.27083C14.4905 7.12166 14.0327 7.04563 13.5717 7.04583C13.0859 7.04583 12.6217 7.12917 12.19 7.27917C12.0345 7.32994 11.8653 7.31772 11.7187 7.24513C11.5721 7.17253 11.4598 7.04536 11.4059 6.89091C11.352 6.73645 11.3609 6.56702 11.4305 6.419C11.5001 6.27097 11.625 6.15614 11.7784 6.09917C12.5866 5.81701 13.4501 5.72992 14.2984 5.845C14.0071 5.04515 13.476 4.3547 12.7777 3.86789C12.0794 3.38108 11.2479 3.12164 10.3967 3.125Z" fill="#8F8F8F"/>
</svg>
