<svg width="20" height="20" viewBox="0 0 20 20" fill="none" xmlns="http://www.w3.org/2000/svg">
<path d="M12.8958 7.93C13.075 8.59667 12.8592 9.23334 12.415 9.3525C11.97 9.47167 11.465 9.0275 11.2858 8.36084C11.1075 7.69417 11.3233 7.0575 11.7675 6.93834C12.2125 6.81917 12.7175 7.26334 12.8958 7.93ZM8.06667 9.22417C8.24501 9.89084 8.03001 10.5283 7.58501 10.6475C7.14084 10.7667 6.63501 10.3225 6.45667 9.65584C6.27834 8.98917 6.49334 8.35167 6.93834 8.2325C7.38251 8.11334 7.88834 8.5575 8.06667 9.22417Z" fill="#B8B8B8"/>
<path fill-rule="evenodd" clip-rule="evenodd" d="M12.1733 2.34581C11.19 2.47248 9.94248 2.80581 8.19831 3.27331C6.45248 3.74081 5.20498 4.07664 4.29081 4.45831C3.39331 4.83331 2.90498 5.21748 2.60748 5.73248C2.31081 6.24664 2.22164 6.86164 2.34581 7.82664C2.47248 8.80998 2.80581 10.0575 3.27331 11.8016C3.74081 13.5475 4.07664 14.795 4.45831 15.7091C4.83331 16.6066 5.21748 17.095 5.73248 17.3925C6.24664 17.6891 6.86164 17.7783 7.82664 17.6541C8.80998 17.5275 10.0575 17.1941 11.8016 16.7266C13.5475 16.2591 14.795 15.9233 15.7091 15.5416C16.6066 15.1666 17.095 14.7825 17.3925 14.2675C17.6891 13.7533 17.7783 13.1383 17.6541 12.1733C17.5275 11.19 17.1941 9.94248 16.7266 8.19831C16.2591 6.45248 15.9233 5.20498 15.5416 4.29081C15.1666 3.39331 14.7825 2.90498 14.2675 2.60748C13.7533 2.31081 13.1383 2.22164 12.1733 2.34581ZM12.0133 1.10664C13.1166 0.964144 14.0466 1.03664 14.8925 1.52498C15.7391 2.01414 16.2675 2.78331 16.695 3.80914C17.1133 4.80998 17.4691 6.13914 17.9216 7.82831L17.9466 7.91998C18.3991 9.60914 18.755 10.9375 18.8933 12.0133C19.0358 13.1166 18.9633 14.0466 18.4741 14.8925C17.9858 15.7391 17.2175 16.2675 16.1908 16.695C15.19 17.1133 13.8608 17.4691 12.1716 17.9216L12.08 17.9466C10.3908 18.3991 9.06164 18.755 7.98664 18.8933C6.88331 19.0358 5.95331 18.9633 5.10748 18.4741C4.26081 17.9858 3.73248 17.2175 3.30498 16.1908C2.88664 15.19 2.52998 13.8608 2.07831 12.1716L2.05331 12.08C1.60081 10.3908 1.24498 9.06164 1.10664 7.98664C0.964144 6.88331 1.03664 5.95331 1.52498 5.10748C2.01414 4.26081 2.78331 3.73248 3.80914 3.30498C4.80998 2.88664 6.13914 2.52998 7.82831 2.07831L7.91998 2.05331C9.60914 1.60081 10.9383 1.24498 12.0133 1.10664ZM14.3166 11.1166C14.4318 11.2357 14.495 11.3956 14.4924 11.5612C14.4897 11.7269 14.4214 11.8847 14.3025 12C14.1594 12.1386 14.0104 12.271 13.8558 12.3966L14.0375 12.7666C14.146 12.9877 14.2099 13.228 14.2255 13.4737C14.2412 13.7195 14.2083 13.9659 14.1287 14.1989C14.0491 14.432 13.9244 14.6471 13.7617 14.8319C13.599 15.0167 13.4015 15.1677 13.1804 15.2762C12.9593 15.3847 12.7191 15.4486 12.4733 15.4643C12.2276 15.4799 11.9811 15.447 11.7481 15.3674C11.5151 15.2878 11.3 15.1631 11.1151 15.0004C10.9303 14.8377 10.7793 14.6402 10.6708 14.4191L10.4433 13.9558C9.39484 14.1603 8.31452 14.1353 7.27664 13.8825C7.19431 13.8652 7.11631 13.8315 7.04731 13.7834C6.97831 13.7353 6.91973 13.6738 6.87508 13.6025C6.83044 13.5312 6.80064 13.4516 6.78748 13.3685C6.77432 13.2855 6.77807 13.2006 6.79849 13.119C6.81892 13.0374 6.85561 12.9607 6.90636 12.8937C6.95712 12.8266 7.02089 12.7704 7.09386 12.7286C7.16683 12.6867 7.2475 12.66 7.33103 12.6501C7.41456 12.6402 7.49923 12.6472 7.57998 12.6708C8.52164 12.9066 9.60331 12.9091 10.7016 12.615C11.8 12.3208 12.735 11.7775 13.4325 11.1025C13.5515 10.9873 13.7114 10.9241 13.8771 10.9267C14.0427 10.9294 14.2013 10.9977 14.3166 11.1166ZM11.6708 13.62L11.7925 13.8683C11.8654 14.0172 11.9945 14.1309 12.1513 14.1846C12.3081 14.2383 12.4799 14.2275 12.6287 14.1546C12.7776 14.0816 12.8914 13.9525 12.945 13.7957C12.9987 13.6389 12.9879 13.4672 12.915 13.3183L12.8091 13.1025C12.4442 13.3051 12.0636 13.4787 11.6708 13.62Z" fill="#B8B8B8"/>
</svg>
