<svg width="26" height="26" viewBox="0 0 26 26" fill="none" xmlns="http://www.w3.org/2000/svg">
<path opacity="0.5" d="M3.75267 3.75266C2.16667 5.34082 2.16667 7.89316 2.16667 13C2.16667 18.1068 2.16667 20.6602 3.75267 22.2462C5.34084 23.8333 7.89317 23.8333 13 23.8333C18.1068 23.8333 20.6603 23.8333 22.2463 22.2462C23.8333 20.6613 23.8333 18.1068 23.8333 13C23.8333 7.89316 23.8333 5.33974 22.2463 3.75266C20.6613 2.16666 18.1068 2.16666 13 2.16666C7.89317 2.16666 5.33975 2.16666 3.75267 3.75266Z" fill="#FF5733"/>
<path d="M10.8377 6.23133C10.9444 6.23077 11.0499 6.20919 11.1483 6.16783C11.2466 6.12647 11.3359 6.06614 11.4109 5.99029C11.486 5.91444 11.5453 5.82456 11.5856 5.72576C11.626 5.62697 11.6464 5.5212 11.6458 5.4145C11.6453 5.3078 11.6237 5.20226 11.5823 5.1039C11.541 5.00554 11.4806 4.91629 11.4048 4.84125C11.3289 4.7662 11.2391 4.70683 11.1403 4.66652C11.0415 4.62622 10.9357 4.60577 10.829 4.60633C9.65684 4.61283 8.684 4.63883 7.88992 4.77858C7.07525 4.9205 6.37867 5.19242 5.80776 5.73517C5.31484 6.20425 4.98442 6.67984 4.80567 7.36342C4.64317 7.98309 4.61392 8.74467 4.60634 9.74459C4.60476 9.96007 4.68884 10.1674 4.8401 10.3209C4.99136 10.4743 5.19739 10.5615 5.41288 10.563C5.62837 10.5646 5.83566 10.4805 5.98915 10.3293C6.14264 10.178 6.22976 9.97199 6.23134 9.7565C6.24 8.72842 6.27467 8.16834 6.37759 7.77617C6.46426 7.44792 6.60075 7.22367 6.929 6.91167C7.19117 6.6625 7.54867 6.487 8.16942 6.37867C8.81075 6.26709 9.65359 6.23783 10.8377 6.23133ZM15.171 4.60633C14.9555 4.60519 14.7484 4.68969 14.5952 4.84125C14.442 4.99281 14.3553 5.19901 14.3542 5.4145C14.353 5.62999 14.4375 5.83711 14.5891 5.99029C14.7406 6.14348 14.9468 6.23019 15.1623 6.23133C16.3464 6.23783 17.1893 6.26709 17.8306 6.37867C18.4513 6.487 18.8088 6.6625 19.071 6.91167C19.3993 7.22475 19.5368 7.44792 19.6224 7.77617C19.7253 8.16834 19.7611 8.7295 19.7687 9.7565C19.7703 9.97199 19.8574 10.178 20.0109 10.3293C20.0869 10.4042 20.1769 10.4634 20.2757 10.5035C20.3746 10.5436 20.4804 10.5638 20.5871 10.563C20.6938 10.5623 20.7993 10.5405 20.8976 10.4989C20.9959 10.4574 21.085 10.3969 21.1599 10.3209C21.2348 10.2449 21.294 10.1548 21.3341 10.056C21.3742 9.95709 21.3945 9.85128 21.3937 9.74459C21.3861 8.74467 21.3568 7.98309 21.1943 7.36342C21.0145 6.68092 20.6852 6.20425 20.1923 5.73517C19.6213 5.19242 18.9248 4.9205 18.1101 4.77858C17.316 4.63883 16.3432 4.61283 15.171 4.60633ZM5.41667 12.1875C5.20118 12.1875 4.99452 12.2731 4.84215 12.4255C4.68977 12.5779 4.60417 12.7845 4.60417 13C4.60417 13.2155 4.68977 13.4222 4.84215 13.5745C4.99452 13.7269 5.20118 13.8125 5.41667 13.8125H20.5833C20.7988 13.8125 21.0055 13.7269 21.1579 13.5745C21.3102 13.4222 21.3958 13.2155 21.3958 13C21.3958 12.7845 21.3102 12.5779 21.1579 12.4255C21.0055 12.2731 20.7988 12.1875 20.5833 12.1875H5.41667ZM6.23134 16.2446C6.23056 16.1379 6.20877 16.0324 6.16721 15.9341C6.12566 15.8358 6.06515 15.7467 5.98915 15.6718C5.91315 15.5969 5.82314 15.5377 5.72426 15.4976C5.62539 15.4575 5.51958 15.4373 5.41288 15.438C5.30618 15.4388 5.20068 15.4606 5.1024 15.5022C5.00413 15.5437 4.915 15.6042 4.8401 15.6802C4.76521 15.7562 4.70601 15.8462 4.66591 15.9451C4.6258 16.044 4.60556 16.1498 4.60634 16.2565C4.61392 17.2564 4.64317 18.018 4.80567 18.6377C4.9855 19.3202 5.31484 19.7968 5.80776 20.2659C6.37867 20.8076 7.07525 21.0795 7.88992 21.2225C8.684 21.3612 9.65684 21.3883 10.829 21.3948C10.9357 21.3953 11.0415 21.3749 11.1403 21.3346C11.2391 21.2943 11.3289 21.2349 11.4048 21.1598C11.4806 21.0848 11.541 20.9955 11.5823 20.8972C11.6237 20.7988 11.6453 20.6933 11.6458 20.5866C11.6464 20.4799 11.626 20.3741 11.5856 20.2753C11.5453 20.1765 11.486 20.0866 11.4109 20.0108C11.3359 19.9349 11.2466 19.8746 11.1483 19.8333C11.0499 19.7919 10.9444 19.7703 10.8377 19.7698C9.65359 19.7633 8.81075 19.734 8.16942 19.6213C7.54867 19.513 7.19117 19.3386 6.929 19.0883C6.60075 18.7763 6.46317 18.5521 6.37759 18.2249C6.27467 17.8328 6.24 17.2716 6.23134 16.2446ZM21.3937 16.2565C21.3953 16.041 21.3112 15.8337 21.1599 15.6802C21.0087 15.5267 20.8026 15.4396 20.5871 15.438C20.3716 15.4365 20.1644 15.5206 20.0109 15.6718C19.8574 15.8231 19.7703 16.0291 19.7687 16.2446C19.76 17.2716 19.7253 17.8328 19.6224 18.2249C19.5358 18.5521 19.3993 18.7763 19.071 19.0883C18.8088 19.3375 18.4513 19.513 17.8306 19.6213C17.1893 19.734 16.3464 19.7622 15.1623 19.7698C15.0556 19.7703 14.9501 19.7919 14.8517 19.8333C14.7534 19.8746 14.6641 19.9349 14.5891 20.0108C14.4375 20.164 14.353 20.3711 14.3542 20.5866C14.3553 20.8021 14.442 21.0083 14.5952 21.1598C14.7484 21.3114 14.9555 21.3959 15.171 21.3948C16.3432 21.3883 17.316 21.3623 18.1101 21.2214C18.9248 21.0806 19.6213 20.8087 20.1923 20.2659C20.6852 19.7958 21.0156 19.3202 21.1943 18.6377C21.3568 18.018 21.3861 17.2564 21.3937 16.2565Z" fill="#FF5733"/>
</svg>
