<svg width="41" height="39" viewBox="0 0 41 39" fill="none" xmlns="http://www.w3.org/2000/svg">
<rect x="0.791016" width="40" height="39" rx="8" fill="white"/>
<path opacity="0.5" d="M29.1244 21.665C29.1002 24.51 28.9427 26.0784 27.9077 27.1125C26.6877 28.3334 24.7227 28.3334 20.7935 28.3334C16.8635 28.3334 14.8994 28.3334 13.6785 27.1125C12.4577 25.8917 12.4577 23.9275 12.4577 19.9975C12.4577 16.0684 12.4577 14.1034 13.6785 12.8834C14.7127 11.8484 16.281 11.6909 19.126 11.6667" stroke="#8F8F8F" stroke-width="1.5" stroke-linecap="round"/>
<path d="M29.1243 15.8334H22.4577C20.9427 15.8334 20.0302 16.5767 19.691 16.9167C19.5868 17.0225 19.5343 17.075 19.5327 17.075C19.5327 17.0767 19.4802 17.1292 19.3743 17.2334C19.0343 17.5725 18.291 18.485 18.291 20V22.5M29.1243 15.8334L24.9577 11.6667M29.1243 15.8334L24.9577 20" stroke="#8F8F8F" stroke-width="1.5" stroke-linecap="round" stroke-linejoin="round"/>
</svg>
