<svg width="26" height="26" viewBox="0 0 26 26" fill="none" xmlns="http://www.w3.org/2000/svg">
<path opacity="0.5" d="M3.75269 3.75269C2.16669 5.34085 2.16669 7.89319 2.16669 13C2.16669 18.1069 2.16669 20.6603 3.75269 22.2463C5.34085 23.8334 7.89319 23.8334 13 23.8334C18.1069 23.8334 20.6603 23.8334 22.2463 22.2463C23.8334 20.6614 23.8334 18.1069 23.8334 13C23.8334 7.89319 23.8334 5.33977 22.2463 3.75269C20.6614 2.16669 18.1069 2.16669 13 2.16669C7.89319 2.16669 5.33977 2.16669 3.75269 3.75269Z" fill="#FF5733"/>
<path d="M10.8377 6.23133C10.9444 6.23077 11.0499 6.20919 11.1483 6.16783C11.2466 6.12647 11.3359 6.06614 11.4109 5.99029C11.486 5.91444 11.5454 5.82456 11.5857 5.72576C11.626 5.62697 11.6464 5.5212 11.6459 5.4145C11.6453 5.3078 11.6237 5.20226 11.5823 5.1039C11.541 5.00554 11.4807 4.91629 11.4048 4.84125C11.329 4.7662 11.2391 4.70683 11.1403 4.66652C11.0415 4.62622 10.9357 4.60577 10.829 4.60633C9.65685 4.61283 8.68402 4.63883 7.88994 4.77858C7.07527 4.9205 6.37869 5.19242 5.80777 5.73517C5.31485 6.20425 4.98444 6.67984 4.80569 7.36342C4.64319 7.98309 4.61394 8.74467 4.60635 9.74458C4.60477 9.96007 4.68886 10.1674 4.84012 10.3209C4.99137 10.4743 5.19741 10.5615 5.4129 10.563C5.62838 10.5646 5.83567 10.4805 5.98916 10.3293C6.14266 10.178 6.22977 9.97199 6.23135 9.7565C6.24002 8.72842 6.27469 8.16834 6.3776 7.77617C6.46427 7.44792 6.60077 7.22367 6.92902 6.91167C7.19119 6.6625 7.54869 6.487 8.16944 6.37867C8.81077 6.26709 9.6536 6.23783 10.8377 6.23133ZM15.171 4.60633C14.9555 4.60519 14.7484 4.68969 14.5952 4.84125C14.442 4.99281 14.3553 5.19901 14.3542 5.4145C14.353 5.62999 14.4375 5.83711 14.5891 5.99029C14.7407 6.14348 14.9469 6.23019 15.1624 6.23133C16.3464 6.23783 17.1893 6.26709 17.8306 6.37867C18.4514 6.487 18.8089 6.6625 19.071 6.91167C19.3993 7.22475 19.5369 7.44792 19.6224 7.77617C19.7254 8.16834 19.7611 8.7295 19.7687 9.7565C19.7703 9.97199 19.8574 10.178 20.0109 10.3293C20.0869 10.4042 20.1769 10.4634 20.2758 10.5035C20.3746 10.5436 20.4804 10.5638 20.5871 10.563C20.6938 10.5623 20.7993 10.5405 20.8976 10.4989C20.9959 10.4574 21.085 10.3969 21.1599 10.3209C21.2348 10.2449 21.294 10.1548 21.3341 10.056C21.3742 9.95709 21.3945 9.85128 21.3937 9.74458C21.3861 8.74467 21.3569 7.98309 21.1944 7.36342C21.0145 6.68092 20.6852 6.20425 20.1923 5.73517C19.6214 5.19242 18.9248 4.9205 18.1101 4.77858C17.316 4.63883 16.3432 4.61283 15.171 4.60633ZM5.41669 12.1875C5.2012 12.1875 4.99454 12.2731 4.84216 12.4255C4.68979 12.5779 4.60419 12.7845 4.60419 13C4.60419 13.2155 4.68979 13.4222 4.84216 13.5745C4.99454 13.7269 5.2012 13.8125 5.41669 13.8125H20.5834C20.7988 13.8125 21.0055 13.7269 21.1579 13.5745C21.3103 13.4222 21.3959 13.2155 21.3959 13C21.3959 12.7845 21.3103 12.5779 21.1579 12.4255C21.0055 12.2731 20.7988 12.1875 20.5834 12.1875H5.41669ZM6.23135 16.2446C6.23057 16.1379 6.20878 16.0324 6.16723 15.9341C6.12567 15.8358 6.06517 15.7467 5.98916 15.6718C5.91316 15.5969 5.82316 15.5377 5.72428 15.4976C5.6254 15.4575 5.51959 15.4373 5.4129 15.438C5.3062 15.4388 5.2007 15.4606 5.10242 15.5022C5.00414 15.5437 4.91501 15.6042 4.84012 15.6802C4.76522 15.7562 4.70603 15.8462 4.66592 15.9451C4.62581 16.044 4.60557 16.1498 4.60635 16.2565C4.61394 17.2564 4.64319 18.018 4.80569 18.6377C4.98552 19.3202 5.31485 19.7968 5.80777 20.2659C6.37869 20.8076 7.07527 21.0795 7.88994 21.2225C8.68402 21.3612 9.65685 21.3883 10.829 21.3948C10.9357 21.3953 11.0415 21.3749 11.1403 21.3346C11.2391 21.2943 11.329 21.2349 11.4048 21.1598C11.4807 21.0848 11.541 20.9955 11.5823 20.8972C11.6237 20.7988 11.6453 20.6933 11.6459 20.5866C11.6464 20.4799 11.626 20.3741 11.5857 20.2753C11.5454 20.1765 11.486 20.0866 11.4109 20.0108C11.3359 19.9349 11.2466 19.8746 11.1483 19.8333C11.0499 19.7919 10.9444 19.7703 10.8377 19.7698C9.6536 19.7633 8.81077 19.734 8.16944 19.6213C7.54869 19.513 7.19119 19.3386 6.92902 19.0883C6.60077 18.7763 6.46319 18.5521 6.3776 18.2249C6.27469 17.8328 6.24002 17.2716 6.23135 16.2446ZM21.3937 16.2565C21.3953 16.041 21.3112 15.8337 21.1599 15.6802C21.0087 15.5267 20.8026 15.4396 20.5871 15.438C20.3717 15.4365 20.1644 15.5206 20.0109 15.6718C19.8574 15.8231 19.7703 16.0291 19.7687 16.2446C19.76 17.2716 19.7254 17.8328 19.6224 18.2249C19.5358 18.5521 19.3993 18.7763 19.071 19.0883C18.8089 19.3375 18.4514 19.513 17.8306 19.6213C17.1893 19.734 16.3464 19.7622 15.1624 19.7698C15.0557 19.7703 14.9501 19.7919 14.8518 19.8333C14.7534 19.8746 14.6641 19.9349 14.5891 20.0108C14.4375 20.164 14.353 20.3711 14.3542 20.5866C14.3553 20.8021 14.442 21.0083 14.5952 21.1598C14.7484 21.3114 14.9555 21.3959 15.171 21.3948C16.3432 21.3883 17.316 21.3623 18.1101 21.2214C18.9248 21.0806 19.6214 20.8087 20.1923 20.2659C20.6852 19.7958 21.0156 19.3202 21.1944 18.6377C21.3569 18.018 21.3861 17.2564 21.3937 16.2565Z" fill="#FF5733"/>
</svg>
