<svg width="40" height="40" viewBox="0 0 40 40" fill="none" xmlns="http://www.w3.org/2000/svg">
<path opacity="0.5" d="M21.6667 3.33331H18.3334C15.19 3.33331 13.62 3.33331 12.6434 4.30998C11.6667 5.28665 11.6667 6.85665 11.6667 9.99998V16.6666H28.3334V9.99998C28.3334 6.85665 28.3334 5.28665 27.3567 4.30998C26.38 3.33331 24.81 3.33331 21.6667 3.33331Z" fill="#FF5733"/>
<path fill-rule="evenodd" clip-rule="evenodd" d="M20 36.6667C23.5362 36.6667 26.9276 35.2619 29.4281 32.7614C31.9286 30.2609 33.3334 26.8696 33.3334 23.3333C33.3334 19.7971 31.9286 16.4057 29.4281 13.9052C26.9276 11.4048 23.5362 10 20 10C16.4638 10 13.0724 11.4048 10.5719 13.9052C8.07145 16.4057 6.66669 19.7971 6.66669 23.3333C6.66669 26.8696 8.07145 30.2609 10.5719 32.7614C13.0724 35.2619 16.4638 36.6667 20 36.6667ZM20 18.3333C19.5267 18.3333 19.21 18.9 18.5767 20.0383L18.4134 20.3317C18.2334 20.655 18.1434 20.815 18.0034 20.9217C17.8617 21.0283 17.6867 21.0683 17.3367 21.1467L17.02 21.22C15.79 21.4983 15.175 21.6367 15.0284 22.1067C14.8817 22.5783 15.3017 23.0683 16.14 24.0483L16.3567 24.3017C16.595 24.58 16.715 24.7183 16.7684 24.8917C16.8217 25.065 16.8034 25.25 16.7684 25.6217L16.735 25.96C16.6084 27.2683 16.545 27.9233 16.9267 28.2133C17.31 28.5033 17.8867 28.2383 19.0384 27.7083L19.335 27.5717C19.6634 27.4217 19.8267 27.345 20 27.345C20.1734 27.345 20.3367 27.4217 20.665 27.5717L20.9617 27.7083C22.1134 28.24 22.69 28.5033 23.0734 28.2133C23.4567 27.9233 23.3917 27.2683 23.265 25.96L23.2317 25.6217C23.1967 25.25 23.1784 25.065 23.2317 24.8917C23.285 24.72 23.405 24.58 23.6434 24.3017L23.86 24.0483C24.6984 23.0683 25.1184 22.5783 24.9717 22.1067C24.825 21.6367 24.21 21.4983 22.98 21.22L22.6634 21.1467C22.3134 21.0683 22.1384 21.03 21.9967 20.9217C21.8567 20.815 21.7667 20.655 21.5867 20.3317L21.4234 20.0383C20.79 18.9 20.4734 18.3333 20 18.3333Z" fill="#FF5733"/>
</svg>
