<svg width="33" height="32" viewBox="0 0 33 32" fill="none" xmlns="http://www.w3.org/2000/svg">
<path opacity="0.5" d="M3.652 17.2773C3.14533 13.7613 2.892 12.0027 3.61333 10.5C4.33333 8.99732 5.868 8.08266 8.936 6.25599L10.7827 5.15599C13.5667 3.49599 14.9613 2.66666 16.5 2.66666C18.0387 2.66666 19.432 3.49599 22.2173 5.15599L24.064 6.25599C27.1307 8.08266 28.6653 8.99732 29.3867 10.5C30.1067 12.0027 29.8533 13.7613 29.3467 17.2773L28.976 19.86C28.3267 24.3773 28.0013 26.6347 26.4347 27.984C24.868 29.3333 22.5707 29.3333 17.9747 29.3333H15.0253C10.4293 29.3333 8.132 29.3333 6.56533 27.984C4.99867 26.6347 4.67333 24.3773 4.024 19.86L3.652 17.2773Z" stroke="black" stroke-width="2"/>
<path d="M12.5 21.3333C13.6333 22.1733 15.0133 22.6666 16.5 22.6666C17.9867 22.6666 19.3667 22.1733 20.5 21.3333" stroke="black" stroke-width="2" stroke-linecap="round"/>
</svg>
