<svg width="32" height="32" viewBox="0 0 32 32" fill="none" xmlns="http://www.w3.org/2000/svg">
<path d="M2.66666 7.00932C2.66666 4.61066 4.75599 2.66666 7.33332 2.66666C9.91066 2.66666 12 4.61066 12 7.00932C12 9.38932 10.5107 12.1667 8.18666 13.16C7.91675 13.2746 7.62654 13.3336 7.33332 13.3336C7.04011 13.3336 6.7499 13.2746 6.47999 13.16C4.15599 12.1667 2.66666 9.38932 2.66666 7.00932ZM20 23.0093C20 20.6107 22.0893 18.6667 24.6667 18.6667C27.244 18.6667 29.3333 20.6107 29.3333 23.0093C29.3333 25.3893 27.844 28.1667 25.52 29.16C25.2501 29.2746 24.9599 29.3336 24.6667 29.3336C24.3734 29.3336 24.0832 29.2746 23.8133 29.16C21.4893 28.1667 20 25.3893 20 23.0093Z" stroke="black" stroke-width="2"/>
<path opacity="0.5" d="M16 5.66666C15.7348 5.66666 15.4804 5.77201 15.2929 5.95955C15.1054 6.14709 15 6.40144 15 6.66666C15 6.93187 15.1054 7.18623 15.2929 7.37376C15.4804 7.5613 15.7348 7.66666 16 7.66666V5.66666ZM16 25.3333L16.7067 26.04C16.8939 25.8525 16.9991 25.5983 16.9991 25.3333C16.9991 25.0683 16.8939 24.8142 16.7067 24.6267L16 25.3333ZM14.7067 22.6267C14.5171 22.45 14.2664 22.3539 14.0073 22.3584C13.7482 22.363 13.5011 22.4679 13.3178 22.6512C13.1346 22.8344 13.0297 23.0816 13.0251 23.3406C13.0205 23.5997 13.1167 23.8504 13.2933 24.04L14.7067 22.6267ZM13.2933 26.6267C13.1951 26.7182 13.1163 26.8286 13.0616 26.9513C13.007 27.0739 12.9776 27.2064 12.9752 27.3406C12.9728 27.4749 12.9975 27.6083 13.0478 27.7328C13.0981 27.8573 13.173 27.9704 13.268 28.0654C13.3629 28.1603 13.476 28.2352 13.6005 28.2855C13.7251 28.3358 13.8584 28.3605 13.9927 28.3581C14.127 28.3557 14.2594 28.3264 14.3821 28.2717C14.5047 28.217 14.6151 28.1382 14.7067 28.04L13.2933 26.6267ZM21.5093 5.66666H16V7.66666H21.5093V5.66666ZM16 24.3333H10.4907V26.3333H16V24.3333ZM22.404 10.74L8.52267 19.5733L9.596 21.26L23.4773 12.4267L22.404 10.74ZM16.7067 24.6267L14.7067 22.6267L13.2933 24.04L15.2933 26.04L16.7067 24.6267ZM15.2933 24.6267L13.2933 26.6267L14.7067 28.04L16.7067 26.04L15.2933 24.6267ZM10.4907 24.3333C8.824 24.3333 8.18934 22.156 9.596 21.26L8.52267 19.5733C5.428 21.5427 6.82267 26.3333 10.4907 26.3333V24.3333ZM21.5093 7.66666C23.176 7.66666 23.8107 9.84399 22.404 10.74L23.4773 12.4267C26.572 10.4573 25.1773 5.66666 21.5093 5.66666V7.66666Z" fill="black"/>
<path d="M24.6666 23.3333H24.6786M7.31998 7.33331H7.33331" stroke="black" stroke-width="2" stroke-linecap="round" stroke-linejoin="round"/>
</svg>
