<svg width="33" height="32" viewBox="0 0 33 32" fill="none" xmlns="http://www.w3.org/2000/svg">
<path opacity="0.5" d="M20.22 25.3C11.8293 28.6533 7.63334 30.3333 5.23868 28.7053C4.67063 28.3193 4.18069 27.8294 3.79468 27.2613C2.16668 24.8653 3.84401 20.6693 7.20001 12.28C7.91601 10.4907 8.27468 9.59601 8.88934 8.89334C9.04668 8.71468 9.21468 8.54668 9.39335 8.38934C10.096 7.77468 10.9907 7.41601 12.78 6.70001C21.1693 3.34401 25.3653 1.66668 27.7613 3.29468C28.3293 3.68134 28.8187 4.17068 29.2053 4.73868C30.8333 7.13468 29.1547 11.3293 25.8 19.72C25.084 21.5093 24.7253 22.404 24.1107 23.1067C23.9533 23.2853 23.7853 23.4533 23.6067 23.6107C22.904 24.2253 22.0093 24.584 20.22 25.3Z" stroke="black" stroke-width="2"/>
<path d="M16.5 20C18.7091 20 20.5 18.2091 20.5 16C20.5 13.7909 18.7091 12 16.5 12C14.2909 12 12.5 13.7909 12.5 16C12.5 18.2091 14.2909 20 16.5 20Z" stroke="black" stroke-width="2"/>
</svg>
