<svg width="16" height="12" viewBox="0 0 16 12" fill="none" xmlns="http://www.w3.org/2000/svg">
<path fill-rule="evenodd" clip-rule="evenodd" d="M7.63661 2.9373C9.8525 2.9374 11.9837 3.78883 13.5896 5.31563C13.7105 5.43351 13.9038 5.43202 14.0229 5.3123L15.1789 4.14563C15.2392 4.08491 15.2729 4.00266 15.2724 3.91708C15.2719 3.8315 15.2373 3.74965 15.1763 3.68963C10.9612 -0.349914 4.31137 -0.349914 0.0962725 3.68963C0.0352139 3.7496 0.00057 3.83143 6.97078e-06 3.91701C-0.000556058 4.00259 0.0330082 4.08487 0.0932725 4.14563L1.24961 5.3123C1.36863 5.4322 1.56208 5.43369 1.68294 5.31563C3.28909 3.78873 5.4205 2.93729 7.63661 2.9373ZM7.63661 6.73297C8.8541 6.73289 10.0281 7.18542 10.9306 8.00263C11.0527 8.11861 11.245 8.1161 11.3639 7.99697L12.5186 6.8303C12.5794 6.76911 12.6132 6.68609 12.6123 6.59982C12.6114 6.51356 12.576 6.43125 12.5139 6.3713C9.76574 3.81492 5.5098 3.81492 2.76161 6.3713C2.69953 6.43125 2.66411 6.5136 2.6633 6.59989C2.66248 6.68619 2.69634 6.76919 2.75727 6.8303L3.91161 7.99697C4.03059 8.1161 4.22288 8.11861 4.34494 8.00263C5.24681 7.18596 6.41992 6.73347 7.63661 6.73297ZM9.9496 9.28679C9.95137 9.37329 9.91736 9.45669 9.85561 9.5173L7.85827 11.533C7.79972 11.5922 7.7199 11.6255 7.63661 11.6255C7.55332 11.6255 7.47349 11.5922 7.41494 11.533L5.41727 9.5173C5.35556 9.45665 5.32161 9.37322 5.32344 9.28671C5.32527 9.20021 5.36272 9.11829 5.42694 9.0603C6.70251 7.98142 8.5707 7.98142 9.84627 9.0603C9.91045 9.11833 9.94783 9.20028 9.9496 9.28679Z" fill="black"/>
</svg>
