<svg width="9" height="13" viewBox="0 0 9 13" fill="none" xmlns="http://www.w3.org/2000/svg">
<path d="M4.03529 0.906296C1.8062 0.906296 0 2.4666 0 4.3993C0 7.7411 4.03529 12.0993 4.03529 12.0993C4.03529 12.0993 8.07059 7.7404 8.07059 4.3993C8.07059 2.4673 6.26439 0.906296 4.03529 0.906296ZM4.03529 6.332C3.45737 6.332 2.90312 6.13287 2.49447 5.77843C2.08581 5.42398 1.85624 4.94325 1.85624 4.442C1.85624 3.94074 2.08581 3.46001 2.49447 3.10556C2.90312 2.75112 3.45737 2.552 4.03529 2.552C4.61322 2.552 5.16747 2.75112 5.57612 3.10556C5.98477 3.46001 6.21435 3.94074 6.21435 4.442C6.21435 4.94325 5.98477 5.42398 5.57612 5.77843C5.16747 6.13287 4.61322 6.332 4.03529 6.332Z" fill="#FF9680"/>
</svg>
