<svg width="15" height="13" viewBox="0 0 15 13" fill="none" xmlns="http://www.w3.org/2000/svg">
<path d="M13.6059 4.51717L9.63871 3.94061L7.86528 0.3453C7.81684 0.246862 7.73715 0.167175 7.63871 0.118737C7.39184 -0.00313752 7.09184 0.098425 6.9684 0.3453L5.19496 3.94061L1.22778 4.51717C1.1184 4.5328 1.0184 4.58436 0.941838 4.66249C0.849279 4.75762 0.798274 4.88561 0.800032 5.01833C0.80179 5.15106 0.856166 5.27765 0.951213 5.3703L3.82153 8.16874L3.1434 12.1203C3.1275 12.2122 3.13767 12.3068 3.17276 12.3932C3.20786 12.4796 3.26647 12.5545 3.34195 12.6093C3.41743 12.6641 3.50676 12.6967 3.59981 12.7034C3.69286 12.71 3.78591 12.6904 3.8684 12.6469L7.41684 10.7812L10.9653 12.6469C11.0622 12.6984 11.1747 12.7156 11.2825 12.6969C11.5543 12.65 11.7372 12.3922 11.6903 12.1203L11.0122 8.16874L13.8825 5.3703C13.9606 5.29374 14.0122 5.19374 14.0278 5.08436C14.07 4.81092 13.8793 4.5578 13.6059 4.51717Z" fill="#FF5733"/>
</svg>
