<svg width="24" height="24" viewBox="0 0 24 24" fill="none" xmlns="http://www.w3.org/2000/svg">
<path fill-rule="evenodd" clip-rule="evenodd" d="M2 10C1.99991 9.28105 2.15487 8.57052 2.45432 7.91689C2.75377 7.26326 3.19065 6.68189 3.73518 6.21244C4.27972 5.74299 4.91909 5.39649 5.60969 5.19657C6.3003 4.99666 7.02589 4.94803 7.737 5.054C8.0394 4.16332 8.61319 3.38972 9.37779 2.84185C10.1424 2.29398 11.0594 1.99936 12 1.99936C12.9406 1.99936 13.8576 2.29398 14.6222 2.84185C15.3868 3.38972 15.9606 4.16332 16.263 5.054C17.4631 4.87339 18.6878 5.1354 19.709 5.79117C20.7301 6.44694 21.4779 7.45171 21.8129 8.61812C22.1479 9.78454 22.0472 11.033 21.5297 12.1307C21.0121 13.2283 20.113 14.1003 19 14.584V17.25H5V14.584C4.10819 14.1946 3.34935 13.5536 2.81647 12.7393C2.2836 11.9251 1.99985 10.9731 2 10ZM11.043 13.67C10.165 13.024 9 11.984 9 11C9 9.327 10.65 8.703 12 9.995C13.35 8.703 15 9.327 15 11C15 11.985 13.835 13.025 12.957 13.67C12.537 13.977 12.327 14.131 12 14.131C11.672 14.131 11.463 13.977 11.043 13.669" fill="#FF5733"/>
<path d="M5.586 21.414C5.083 20.912 5.012 20.147 5.002 18.75H18.998C18.988 20.147 18.917 20.912 18.414 21.414C17.828 22 16.886 22 15 22H9C7.114 22 6.172 22 5.586 21.414Z" fill="#FF5733"/>
</svg>
