<svg width="25" height="24" viewBox="0 0 25 24" fill="none" xmlns="http://www.w3.org/2000/svg">
<path fill-rule="evenodd" clip-rule="evenodd" d="M12.7761 2C9.00512 2 7.11912 2 5.94812 3.172C4.88412 4.235 4.78612 5.886 4.77612 9H3.77612C3.51091 9 3.25655 9.10536 3.06902 9.29289C2.88148 9.48043 2.77612 9.73478 2.77612 10V11C2.77612 11.1552 2.81227 11.3084 2.8817 11.4472C2.95112 11.5861 3.05193 11.7069 3.17612 11.8L4.77612 13C4.78612 16.114 4.88412 17.765 5.94812 18.828C6.19012 19.071 6.46212 19.263 6.77612 19.415V21C6.77612 21.2652 6.88148 21.5196 7.06902 21.7071C7.25655 21.8946 7.51091 22 7.77612 22H9.27612C9.54134 22 9.79569 21.8946 9.98323 21.7071C10.1708 21.5196 10.2761 21.2652 10.2761 21V19.982C11.0031 20 11.8301 20 12.7761 20C13.7221 20 14.5491 20 15.2761 19.982V21C15.2761 21.2652 15.3815 21.5196 15.569 21.7071C15.7566 21.8946 16.0109 22 16.2761 22H17.7761C18.0413 22 18.2957 21.8946 18.4832 21.7071C18.6708 21.5196 18.7761 21.2652 18.7761 21V19.415C19.0833 19.2674 19.3632 19.069 19.6041 18.828C20.6681 17.765 20.7671 16.114 20.7761 13L22.3761 11.8C22.5003 11.7069 22.6011 11.5861 22.6705 11.4472C22.74 11.3084 22.7761 11.1552 22.7761 11V10C22.7761 9.73478 22.6708 9.48043 22.4832 9.29289C22.2957 9.10536 22.0413 9 21.7761 9H20.7761C20.7661 5.886 20.6681 4.235 19.6041 3.172C18.4331 2 16.5471 2 12.7761 2ZM6.27612 9.5C6.27612 10.914 6.27612 11.621 6.71612 12.06C7.15512 12.5 7.86212 12.5 9.27612 12.5H16.2761C17.6901 12.5 18.3971 12.5 18.8361 12.06C19.2761 11.621 19.2761 10.914 19.2761 9.5V7C19.2761 5.586 19.2761 4.879 18.8361 4.44C18.3981 4 17.6911 4 16.2761 4H9.27612C7.86212 4 7.15512 4 6.71612 4.44C6.27612 4.878 6.27612 5.585 6.27612 7V9.5ZM7.02612 16C7.02612 15.8011 7.10514 15.6103 7.24579 15.4697C7.38645 15.329 7.57721 15.25 7.77612 15.25H9.27612C9.47504 15.25 9.6658 15.329 9.80645 15.4697C9.94711 15.6103 10.0261 15.8011 10.0261 16C10.0261 16.1989 9.94711 16.3897 9.80645 16.5303C9.6658 16.671 9.47504 16.75 9.27612 16.75H7.77612C7.57721 16.75 7.38645 16.671 7.24579 16.5303C7.10514 16.3897 7.02612 16.1989 7.02612 16ZM18.5261 16C18.5261 15.8011 18.4471 15.6103 18.3065 15.4697C18.1658 15.329 17.975 15.25 17.7761 15.25H16.2761C16.0772 15.25 15.8864 15.329 15.7458 15.4697C15.6051 15.6103 15.5261 15.8011 15.5261 16C15.5261 16.1989 15.6051 16.3897 15.7458 16.5303C15.8864 16.671 16.0772 16.75 16.2761 16.75H17.7761C17.975 16.75 18.1658 16.671 18.3065 16.5303C18.4471 16.3897 18.5261 16.1989 18.5261 16Z" fill="#00C2FF"/>
</svg>
