<svg width="24" height="24" viewBox="0 0 24 24" fill="none" xmlns="http://www.w3.org/2000/svg">
<path d="M2.436 5.14701C2 5.64301 2 6.495 2 8.197V17.591C2 18.797 2 19.4 2.315 19.854C2.629 20.308 3.179 20.499 4.279 20.88L5.573 21.329C6.274 21.572 6.813 21.759 7.266 21.879C7.562 21.958 7.833 21.726 7.833 21.42V6.27001C7.82954 6.14856 7.78597 6.03168 7.70908 5.93761C7.6322 5.84354 7.52633 5.77757 7.408 5.75001C7.019 5.65101 6.551 5.48901 5.91 5.26701C4.357 4.72801 3.58 4.45901 2.99 4.73201C2.77838 4.83013 2.58966 4.9715 2.436 5.14701ZM12.62 3.48101L11.084 4.54601C10.529 4.93101 10.121 5.21401 9.774 5.41501C9.69224 5.46068 9.6239 5.52703 9.57581 5.6074C9.52773 5.68777 9.50159 5.77936 9.5 5.87301V20.92C9.5 21.29 9.884 21.522 10.196 21.322C10.531 21.108 10.915 20.842 11.38 20.52L12.916 19.455C13.471 19.07 13.879 18.787 14.226 18.586C14.3078 18.5403 14.3761 18.474 14.4242 18.3936C14.4723 18.3132 14.4984 18.2217 14.5 18.128V3.08001C14.5 2.70901 14.116 2.47801 13.804 2.67701C13.469 2.89201 13.085 3.15801 12.62 3.48101ZM19.72 3.12001L18.427 2.67201C17.726 2.42901 17.187 2.24201 16.734 2.12201C16.438 2.04301 16.167 2.27501 16.167 2.58101V17.731C16.1705 17.8525 16.214 17.9693 16.2909 18.0634C16.3678 18.1575 16.4737 18.2234 16.592 18.251C16.981 18.35 17.449 18.511 18.09 18.734C19.643 19.273 20.42 19.542 21.01 19.269C21.2216 19.1709 21.4103 19.0295 21.564 18.854C22 18.358 22 17.506 22 15.804V6.41001C22 5.20401 22 4.60001 21.685 4.14701C21.371 3.69301 20.821 3.50201 19.721 3.12101" fill="#27AE60"/>
</svg>
