<svg width="24" height="24" viewBox="0 0 24 24" fill="none" xmlns="http://www.w3.org/2000/svg">
<path fill-rule="evenodd" clip-rule="evenodd" d="M18.5 14C16.567 14 15 15.458 15 17.257C15 19.042 16.117 21.125 17.86 21.87C18.266 22.043 18.734 22.043 19.14 21.87C20.883 21.125 22 19.042 22 17.257C22 15.458 20.433 14 18.5 14ZM18.5 18.5C18.7652 18.5 19.0196 18.3946 19.2071 18.2071C19.3946 18.0196 19.5 17.7652 19.5 17.5C19.5 17.2348 19.3946 16.9804 19.2071 16.7929C19.0196 16.6054 18.7652 16.5 18.5 16.5C18.2348 16.5 17.9804 16.6054 17.7929 16.7929C17.6054 16.9804 17.5 17.2348 17.5 17.5C17.5 17.7652 17.6054 18.0196 17.7929 18.2071C17.9804 18.3946 18.2348 18.5 18.5 18.5ZM5.5 2C3.567 2 2 3.458 2 5.257C2 7.042 3.117 9.125 4.86 9.87C5.266 10.043 5.734 10.043 6.14 9.87C7.883 9.125 9 7.042 9 5.257C9 3.458 7.433 2 5.5 2ZM5.5 6.5C5.76522 6.5 6.01957 6.39464 6.20711 6.20711C6.39464 6.01957 6.5 5.76522 6.5 5.5C6.5 5.23478 6.39464 4.98043 6.20711 4.79289C6.01957 4.60536 5.76522 4.5 5.5 4.5C5.23478 4.5 4.98043 4.60536 4.79289 4.79289C4.60536 4.98043 4.5 5.23478 4.5 5.5C4.5 5.76522 4.60536 6.01957 4.79289 6.20711C4.98043 6.39464 5.23478 6.5 5.5 6.5ZM11.25 5C11.25 4.80109 11.329 4.61032 11.4697 4.46967C11.6103 4.32902 11.8011 4.25 12 4.25H16.132C18.883 4.25 19.929 7.843 17.608 9.32L7.198 15.945C6.142 16.617 6.618 18.25 7.868 18.25H10.189L9.969 18.03C9.8974 17.9608 9.8403 17.878 9.80104 17.7865C9.76178 17.695 9.74114 17.5965 9.74032 17.4969C9.7395 17.3974 9.75852 17.2986 9.79628 17.2065C9.83403 17.1143 9.88976 17.0306 9.96021 16.9602C10.0307 16.8898 10.1144 16.8342 10.2066 16.7965C10.2988 16.7588 10.3976 16.7399 10.4972 16.7408C10.5967 16.7417 10.6951 16.7625 10.7866 16.8018C10.8781 16.8412 10.9608 16.8983 11.03 16.97L12.53 18.47C12.6705 18.6106 12.7493 18.8012 12.7493 19C12.7493 19.1988 12.6705 19.3894 12.53 19.53L11.03 21.03C10.9613 21.1037 10.8785 21.1628 10.7865 21.2038C10.6945 21.2448 10.5952 21.2668 10.4945 21.2686C10.3938 21.2704 10.2938 21.2518 10.2004 21.2141C10.107 21.1764 10.0222 21.1203 9.95096 21.049C9.87974 20.9778 9.8236 20.893 9.78588 20.7996C9.74816 20.7062 9.72963 20.6062 9.73141 20.5055C9.73318 20.4048 9.75523 20.3055 9.79622 20.2135C9.83721 20.1215 9.89631 20.0387 9.97 19.97L10.19 19.75H7.867C5.116 19.75 4.07 16.157 6.391 14.68L16.802 8.055C17.857 7.383 17.382 5.75 16.131 5.75H12C11.8011 5.75 11.6103 5.67098 11.4697 5.53033C11.329 5.38968 11.25 5.19891 11.25 5Z" fill="#FF5733"/>
</svg>
