<svg width="20" height="20" viewBox="0 0 20 20" fill="none" xmlns="http://www.w3.org/2000/svg">
<path d="M5.62256 3.33333H8.50923C8.66758 3.33338 8.82001 3.39354 8.93572 3.50164C9.05143 3.60975 9.12179 3.75775 9.13258 3.91573C9.14337 4.07372 9.0938 4.22991 8.99387 4.35275C8.89393 4.47559 8.7511 4.55592 8.59423 4.5775L8.50923 4.58333H5.62256C5.14759 4.58326 4.69029 4.76345 4.34303 5.0875C3.99578 5.41156 3.78445 5.85532 3.75173 6.32917L3.74756 6.45833V14.375C3.74771 14.85 3.92811 15.3072 4.25232 15.6543C4.57652 16.0014 5.02038 16.2125 5.49423 16.245L5.62256 16.25H13.5392C14.0145 16.2503 14.4721 16.0701 14.8195 15.7458C15.167 15.4216 15.3784 14.9775 15.4109 14.5033L15.4151 14.375V13.96C15.4151 13.8016 15.4753 13.6492 15.5834 13.5335C15.6915 13.4178 15.8395 13.3474 15.9975 13.3366C16.1554 13.3259 16.3116 13.3754 16.4345 13.4754C16.5573 13.5753 16.6376 13.7181 16.6592 13.875L16.6651 13.96V14.375C16.6649 15.175 16.358 15.9445 15.8074 16.5249C15.2569 17.1053 14.5048 17.4525 13.7059 17.495L13.5392 17.5H5.62256C4.82242 17.5001 4.05275 17.1932 3.47213 16.6427C2.89151 16.0921 2.54419 15.3398 2.50173 14.5408L2.49756 14.3742V6.4575C2.4977 5.65765 2.80454 4.8883 3.35488 4.30788C3.90522 3.72746 4.65718 3.38016 5.45589 3.3375L5.62256 3.33333ZM12.0842 5.43333V3.125C12.0842 3.01004 12.1158 2.89728 12.1757 2.79914C12.2355 2.701 12.3213 2.62127 12.4236 2.56872C12.5258 2.51617 12.6406 2.49285 12.7552 2.50131C12.8699 2.50976 12.98 2.54968 13.0734 2.61667L13.1417 2.67333L18.1376 7.465C18.3709 7.68917 18.3917 8.04833 18.2009 8.29667L18.1376 8.3675L13.1417 13.1608C13.0588 13.2405 12.9555 13.2957 12.8431 13.3205C12.7308 13.3452 12.6139 13.3384 12.5051 13.3009C12.3964 13.2635 12.3001 13.1967 12.2269 13.108C12.1536 13.0194 12.1063 12.9122 12.0901 12.7983L12.0842 12.7092V10.4383L11.7984 10.4633C9.79839 10.6717 7.88173 11.5725 6.03589 13.18C5.60256 13.5575 4.93423 13.2008 5.00506 12.6317C5.55923 8.19833 7.87756 5.75583 11.8351 5.44917L12.0842 5.43333ZM13.3342 4.59V6.04167C13.3342 6.20743 13.2684 6.3664 13.1512 6.48361C13.034 6.60082 12.875 6.66667 12.7092 6.66667C9.48173 6.66667 7.48089 8.06333 6.61673 10.9642L6.55006 11.1958L6.84423 10.9983C8.70756 9.78083 10.6659 9.16667 12.7084 9.16667C12.8595 9.1667 13.0056 9.22151 13.1194 9.32095C13.2333 9.42039 13.3072 9.55772 13.3276 9.7075L13.3334 9.79167V11.2442L16.8017 7.91667L13.3342 4.59Z" fill="black"/>
</svg>
