<svg width="191" height="191" viewBox="0 0 191 191" fill="none" xmlns="http://www.w3.org/2000/svg">
<g clip-path="url(#clip0_38_79)">
<path d="M191 0H0V191H191V0Z" fill="white"/>
<path d="M65.8621 19.7586H72.4483V13.1724C68.8109 13.1724 65.8621 16.1211 65.8621 19.7586Z" fill="#FF5733"/>
<path d="M79.0344 13.1724H72.4482V19.7586H79.0344V13.1724Z" fill="#FF5733"/>
<path d="M85.6206 13.1724H79.0344V19.7586H85.6206V13.1724Z" fill="#FF5733"/>
<path d="M92.2069 13.1724H85.6207V19.7586H92.2069V13.1724Z" fill="#FF5733"/>
<path d="M95.5 19.7586C94.7324 19.7586 92.2068 19.7586 92.2068 19.7586C92.2068 19.7586 92.2068 17.5166 92.2068 16.4655C92.2068 15.6445 92.2068 13.1724 92.2068 13.1724C92.2068 13.1724 94.5023 13.1724 95.5 13.1724C97.3186 13.1724 98.7931 14.6468 98.7931 16.4655C98.7931 18.2841 97.3186 19.7586 95.5 19.7586Z" fill="#FF5733"/>
<path d="M121.845 13.1724C123.664 13.1724 125.138 14.6468 125.138 16.4655C125.138 18.2843 123.664 19.7586 121.845 19.7586C120.026 19.7586 118.552 18.2843 118.552 16.4655C118.552 14.6468 120.026 13.1724 121.845 13.1724Z" fill="#FF5733"/>
<path d="M65.8621 23.0517C65.8621 22.2841 65.8621 19.7586 65.8621 19.7586C65.8621 19.7586 68.104 19.7586 69.1552 19.7586C69.9761 19.7586 72.4483 19.7586 72.4483 19.7586C72.4483 19.7586 72.4483 22.054 72.4483 23.0517C72.4483 24.8703 70.9738 26.3448 69.1552 26.3448C67.3364 26.3448 65.8621 24.8703 65.8621 23.0517Z" fill="#FF5733"/>
<path d="M92.2069 19.7586H85.6207V26.3448H92.2069V19.7586Z" fill="#FF5733"/>
<path d="M75.7413 26.3448C77.5602 26.3448 79.0344 27.8192 79.0344 29.6379C79.0344 31.4567 77.5602 32.931 75.7413 32.931C73.9226 32.931 72.4482 31.4567 72.4482 29.6379C72.4482 27.8192 73.9226 26.3448 75.7413 26.3448Z" fill="#FF5733"/>
<path d="M92.2069 32.931V26.3448H85.6207C85.6207 29.9822 88.5694 32.931 92.2069 32.931Z" fill="#FF5733"/>
<path d="M98.7931 26.3448H92.2068V32.931H98.7931V26.3448Z" fill="#FF5733"/>
<path d="M105.379 26.3448H98.793V32.931H105.379V26.3448Z" fill="#FF5733"/>
<path d="M108.672 32.931C107.905 32.931 105.379 32.931 105.379 32.931C105.379 32.931 105.379 30.689 105.379 29.6379C105.379 28.8169 105.379 26.3448 105.379 26.3448C105.379 26.3448 107.675 26.3448 108.672 26.3448C110.491 26.3448 111.965 27.8192 111.965 29.6379C111.965 31.4565 110.491 32.931 108.672 32.931Z" fill="#FF5733"/>
<path d="M69.1552 32.931C70.974 32.931 72.4483 34.4054 72.4483 36.2241C72.4483 38.0429 70.974 39.5172 69.1552 39.5172C67.3364 39.5172 65.8621 38.0429 65.8621 36.2241C65.8621 34.4054 67.3364 32.931 69.1552 32.931Z" fill="#FF5733"/>
<path d="M85.6206 36.2241C85.6206 36.9916 85.6206 39.5172 85.6206 39.5172C85.6206 39.5172 83.3788 39.5172 82.3275 39.517C81.5066 39.5172 79.0344 39.517 79.0344 39.517C79.0344 39.517 79.0344 37.2219 79.0344 36.224C79.0345 34.4054 80.5088 32.931 82.3274 32.931C84.1462 32.931 85.6206 34.4054 85.6206 36.2241Z" fill="#FF5733"/>
<path d="M118.552 36.2241C118.552 36.9916 118.552 39.5172 118.552 39.5172C118.552 39.5172 116.31 39.5172 115.259 39.517C114.438 39.5172 111.965 39.517 111.965 39.517C111.965 39.517 111.965 37.2219 111.965 36.224C111.966 34.4054 113.44 32.931 115.258 32.931C117.077 32.931 118.552 34.4054 118.552 36.2241Z" fill="#FF5733"/>
<path d="M72.4482 46.1034H79.0344V39.5172C75.397 39.5172 72.4482 42.4659 72.4482 46.1034Z" fill="#FF5733"/>
<path d="M85.6206 39.5172H79.0344V46.1034C82.6719 46.1034 85.6206 43.1547 85.6206 39.5172Z" fill="#FF5733"/>
<path d="M102.086 39.5172C102.854 39.5172 105.379 39.5172 105.379 39.5172C105.379 39.5172 105.379 41.7589 105.379 42.8103C105.379 43.631 105.379 46.1034 105.379 46.1034C105.379 46.1034 103.084 46.1034 102.086 46.1034C100.267 46.1034 98.793 44.6284 98.793 42.8103C98.793 40.992 100.267 39.5172 102.086 39.5172Z" fill="#FF5733"/>
<path d="M111.965 39.5172H105.379V46.1034H111.965V39.5172Z" fill="#FF5733"/>
<path d="M118.552 39.5172H111.965V46.1034H118.552V39.5172Z" fill="#FF5733"/>
<path d="M121.845 46.1034C121.077 46.1034 118.552 46.1034 118.552 46.1034C118.552 46.1034 118.552 43.8614 118.552 42.8103C118.552 41.9893 118.552 39.5172 118.552 39.5172C118.552 39.5172 120.847 39.5172 121.845 39.5172C123.663 39.5172 125.138 40.9916 125.138 42.8103C125.138 44.6289 123.663 46.1034 121.845 46.1034Z" fill="#FF5733"/>
<path d="M72.4482 49.3966C72.4482 48.629 72.4482 46.1035 72.4482 46.1035C72.4482 46.1035 74.6902 46.1035 75.7413 46.1035C76.5623 46.1035 79.0344 46.1035 79.0344 46.1035C79.0344 46.1035 79.0344 48.3989 79.0344 49.3966C79.0344 51.2152 77.56 52.6897 75.7413 52.6897C73.9226 52.6897 72.4482 51.2152 72.4482 49.3966Z" fill="#FF5733"/>
<path d="M88.9138 46.1035C89.6813 46.1035 92.2069 46.1035 92.2069 46.1035C92.2069 46.1035 92.2069 48.3452 92.2069 49.3966C92.2069 50.2173 92.2069 52.6897 92.2069 52.6897C92.2069 52.6897 89.912 52.6897 88.9138 52.6897C87.0944 52.6897 85.6207 51.2146 85.6207 49.3966C85.6207 47.5783 87.0944 46.1035 88.9138 46.1035Z" fill="#FF5733"/>
<path d="M92.2068 46.1035V52.6897H98.7931C98.7931 49.0521 95.8443 46.1035 92.2068 46.1035Z" fill="#FF5733"/>
<path d="M111.965 46.1035H105.379V52.6897H111.965V46.1035Z" fill="#FF5733"/>
<path d="M72.4483 55.9827C72.4483 56.7503 72.4483 59.2759 72.4483 59.2759C72.4483 59.2759 70.2064 59.2759 69.1552 59.2757C68.3342 59.2759 65.8621 59.2757 65.8621 59.2757C65.8621 59.2757 65.8621 56.9805 65.8621 55.9827C65.8621 54.164 67.3364 52.6896 69.1551 52.6896C70.9738 52.6896 72.4483 54.164 72.4483 55.9827Z" fill="#FF5733"/>
<path d="M85.6206 55.9827C85.6206 56.7503 85.6206 59.2759 85.6206 59.2759C85.6206 59.2759 83.3788 59.2759 82.3275 59.2757C81.5066 59.2759 79.0344 59.2757 79.0344 59.2757C79.0344 59.2757 79.0344 56.9805 79.0344 55.9827C79.0345 54.164 80.5088 52.6896 82.3274 52.6896C84.1462 52.6896 85.6206 54.164 85.6206 55.9827Z" fill="#FF5733"/>
<path d="M92.2068 55.9827C92.2068 55.2152 92.2068 52.6896 92.2068 52.6896C92.2068 52.6896 94.4488 52.6896 95.5 52.6896C96.3209 52.6896 98.7931 52.6896 98.7931 52.6896C98.7931 52.6896 98.7931 54.9851 98.7931 55.9827C98.7931 57.8014 97.3186 59.2759 95.5 59.2759C93.6812 59.2759 92.2068 57.8014 92.2068 55.9827Z" fill="#FF5733"/>
<path d="M111.965 52.6896H105.379V59.2759H111.965V52.6896Z" fill="#FF5733"/>
<path d="M125.138 55.9827C125.138 56.7503 125.138 59.2759 125.138 59.2759C125.138 59.2759 122.896 59.2759 121.845 59.2757C121.024 59.2759 118.552 59.2757 118.552 59.2757C118.552 59.2757 118.552 56.9805 118.552 55.9827C118.552 54.164 120.026 52.6896 121.845 52.6896C123.663 52.6896 125.138 54.164 125.138 55.9827Z" fill="#FF5733"/>
<path d="M72.4483 65.862V59.2758H65.8621C65.8621 62.9133 68.8107 65.862 72.4483 65.862Z" fill="#FF5733"/>
<path d="M79.0344 59.2758H72.4482V65.862H79.0344V59.2758Z" fill="#FF5733"/>
<path d="M85.6206 59.2758H79.0344V65.862H85.6206V59.2758Z" fill="#FF5733"/>
<path d="M88.9138 65.862C88.1462 65.862 85.6207 65.862 85.6207 65.862C85.6207 65.862 85.6207 63.62 85.6207 62.5689C85.6207 61.748 85.6207 59.2758 85.6207 59.2758C85.6207 59.2758 87.9161 59.2758 88.9138 59.2758C90.7324 59.2758 92.2069 60.7502 92.2069 62.5689C92.2069 64.3876 90.7324 65.862 88.9138 65.862Z" fill="#FF5733"/>
<path d="M98.793 65.862H105.379V59.2758C101.742 59.2758 98.793 62.2245 98.793 65.862Z" fill="#FF5733"/>
<path d="M111.965 59.2758H105.379V65.862H111.965V59.2758Z" fill="#FF5733"/>
<path d="M118.552 59.2758H111.965V65.862H118.552V59.2758Z" fill="#FF5733"/>
<path d="M125.138 59.2758H118.552V65.862H125.138V59.2758Z" fill="#FF5733"/>
<path d="M16.4655 65.8621C18.2843 65.8621 19.7586 67.3364 19.7586 69.1552C19.7586 70.974 18.2843 72.4483 16.4655 72.4483C14.6468 72.4483 13.1724 70.974 13.1724 69.1552C13.1724 67.3364 14.6468 65.8621 16.4655 65.8621Z" fill="#FF5733"/>
<path d="M26.3448 72.4483H32.931V65.8621C29.2936 65.8621 26.3448 68.8108 26.3448 72.4483Z" fill="#FF5733"/>
<path d="M36.2241 72.4483C35.4565 72.4483 32.931 72.4483 32.931 72.4483C32.931 72.4483 32.931 70.2062 32.931 69.1552C32.931 68.3342 32.931 65.8621 32.931 65.8621C32.931 65.8621 35.2264 65.8621 36.2241 65.8621C38.0427 65.8621 39.5172 67.3364 39.5172 69.1552C39.5172 70.9738 38.0427 72.4483 36.2241 72.4483Z" fill="#FF5733"/>
<path d="M49.3966 65.8621C50.1641 65.8621 52.6897 65.8621 52.6897 65.8621C52.6897 65.8621 52.6897 68.1038 52.6897 69.1552C52.6897 69.9759 52.6897 72.4483 52.6897 72.4483C52.6897 72.4483 50.3948 72.4483 49.3966 72.4483C47.5772 72.4483 46.1035 70.9732 46.1035 69.1552C46.1035 67.3369 47.5772 65.8621 49.3966 65.8621Z" fill="#FF5733"/>
<path d="M59.2758 65.8621H52.6896V72.4483H59.2758V65.8621Z" fill="#FF5733"/>
<path d="M59.2759 65.8621V72.4483H65.8621C65.8621 68.8107 62.9133 65.8621 59.2759 65.8621Z" fill="#FF5733"/>
<path d="M79.0344 69.1552C79.0344 68.3876 79.0344 65.8621 79.0344 65.8621C79.0344 65.8621 81.2764 65.8621 82.3275 65.8621C83.1485 65.8621 85.6206 65.8621 85.6206 65.8621C85.6206 65.8621 85.6206 68.1575 85.6206 69.1552C85.6206 70.9738 84.1462 72.4483 82.3275 72.4483C80.5088 72.4483 79.0344 70.9738 79.0344 69.1552Z" fill="#FF5733"/>
<path d="M92.2068 72.4483H98.7931V65.8621C95.1556 65.8621 92.2068 68.8108 92.2068 72.4483Z" fill="#FF5733"/>
<path d="M105.379 65.8621H98.793V72.4483H105.379V65.8621Z" fill="#FF5733"/>
<path d="M111.965 65.8621H105.379V72.4483H111.965V65.8621Z" fill="#FF5733"/>
<path d="M118.552 65.8621H111.965V72.4483H118.552V65.8621Z" fill="#FF5733"/>
<path d="M125.138 65.8621H118.552V72.4483H125.138V65.8621Z" fill="#FF5733"/>
<path d="M135.017 65.8621C136.836 65.8621 138.31 67.3364 138.31 69.1552C138.31 70.974 136.836 72.4483 135.017 72.4483C133.198 72.4483 131.724 70.974 131.724 69.1552C131.724 67.3364 133.198 65.8621 135.017 65.8621Z" fill="#FF5733"/>
<path d="M154.776 65.8621C156.595 65.8621 158.069 67.3364 158.069 69.1552C158.069 70.974 156.595 72.4483 154.776 72.4483C152.957 72.4483 151.483 70.974 151.483 69.1552C151.483 67.3364 152.957 65.8621 154.776 65.8621Z" fill="#FF5733"/>
<path d="M164.655 72.4483H171.241V65.8621C167.604 65.8621 164.655 68.8108 164.655 72.4483Z" fill="#FF5733"/>
<path d="M174.534 72.4483C173.767 72.4483 171.241 72.4483 171.241 72.4483C171.241 72.4483 171.241 70.2062 171.241 69.1552C171.241 68.3342 171.241 65.8621 171.241 65.8621C171.241 65.8621 173.537 65.8621 174.534 65.8621C176.353 65.8621 177.828 67.3364 177.828 69.1552C177.828 70.9738 176.353 72.4483 174.534 72.4483Z" fill="#FF5733"/>
<path d="M23.0516 72.4482C23.8192 72.4482 26.3448 72.4482 26.3448 72.4482C26.3448 72.4482 26.3448 74.69 26.3448 75.7414C26.3448 76.5621 26.3448 79.0345 26.3448 79.0345C26.3448 79.0345 24.0499 79.0345 23.0516 79.0345C21.2323 79.0345 19.7585 77.5594 19.7585 75.7414C19.7585 73.9231 21.2323 72.4482 23.0516 72.4482Z" fill="#FF5733"/>
<path d="M32.931 72.4482H26.3448V79.0345H32.931V72.4482Z" fill="#FF5733"/>
<path d="M42.8103 72.4482C44.6291 72.4482 46.1034 73.9226 46.1034 75.7414C46.1034 77.5602 44.6291 79.0345 42.8103 79.0345C40.9915 79.0345 39.5172 77.5602 39.5172 75.7414C39.5172 73.9226 40.9915 72.4482 42.8103 72.4482Z" fill="#FF5733"/>
<path d="M65.8621 72.4482H59.2759V79.0345H65.8621V72.4482Z" fill="#FF5733"/>
<path d="M65.8621 72.4482V79.0345H72.4483C72.4483 75.3969 69.4995 72.4482 65.8621 72.4482Z" fill="#FF5733"/>
<path d="M85.6207 79.0345H92.2069V72.4482C88.5695 72.4483 85.6207 75.3969 85.6207 79.0345Z" fill="#FF5733"/>
<path d="M98.7931 72.4482H92.2068V79.0345C95.8443 79.0345 98.7931 76.0857 98.7931 72.4482Z" fill="#FF5733"/>
<path d="M125.138 72.4482H118.552V79.0345H125.138V72.4482Z" fill="#FF5733"/>
<path d="M128.431 79.0345C127.663 79.0345 125.138 79.0345 125.138 79.0345C125.138 79.0345 125.138 76.7924 125.138 75.7414C125.138 74.9204 125.138 72.4482 125.138 72.4482C125.138 72.4482 127.433 72.4482 128.431 72.4482C130.25 72.4482 131.724 73.9226 131.724 75.7414C131.724 77.56 130.25 79.0345 128.431 79.0345Z" fill="#FF5733"/>
<path d="M144.897 75.7414C144.897 76.5089 144.897 79.0345 144.897 79.0345C144.897 79.0345 142.655 79.0345 141.603 79.0343C140.782 79.0345 138.31 79.0343 138.31 79.0343C138.31 79.0343 138.31 76.7391 138.31 75.7413C138.31 73.9227 139.785 72.4482 141.603 72.4482C143.422 72.4482 144.897 73.9226 144.897 75.7414Z" fill="#FF5733"/>
<path d="M164.655 75.7414C164.655 74.9738 164.655 72.4482 164.655 72.4482C164.655 72.4482 166.897 72.4482 167.948 72.4482C168.769 72.4482 171.241 72.4482 171.241 72.4482C171.241 72.4482 171.241 74.7437 171.241 75.7414C171.241 77.56 169.767 79.0345 167.948 79.0345C166.13 79.0345 164.655 77.56 164.655 75.7414Z" fill="#FF5733"/>
<path d="M32.931 79.0344H26.3448V85.6206H32.931V79.0344Z" fill="#FF5733"/>
<path d="M36.2241 85.6206C35.4565 85.6206 32.931 85.6206 32.931 85.6206C32.931 85.6206 32.931 83.3786 32.931 82.3275C32.931 81.5066 32.931 79.0344 32.931 79.0344C32.931 79.0344 35.2264 79.0344 36.2241 79.0344C38.0427 79.0344 39.5172 80.5088 39.5172 82.3275C39.5172 84.1462 38.0427 85.6206 36.2241 85.6206Z" fill="#FF5733"/>
<path d="M46.1035 85.6206H52.6897V79.0344C49.0522 79.0345 46.1035 81.9831 46.1035 85.6206Z" fill="#FF5733"/>
<path d="M59.2758 79.0344H52.6896V85.6206H59.2758V79.0344Z" fill="#FF5733"/>
<path d="M65.8621 79.0344H59.2759V85.6206H65.8621V79.0344Z" fill="#FF5733"/>
<path d="M72.4483 79.0344H65.8621V85.6206C69.4995 85.6206 72.4483 82.6719 72.4483 79.0344Z" fill="#FF5733"/>
<path d="M79.0344 85.6206H85.6206V79.0344C81.9832 79.0345 79.0344 81.9831 79.0344 85.6206Z" fill="#FF5733"/>
<path d="M92.2069 79.0344H85.6207V85.6206H92.2069V79.0344Z" fill="#FF5733"/>
<path d="M111.965 82.3275C111.965 83.095 111.965 85.6206 111.965 85.6206C111.965 85.6206 109.724 85.6206 108.672 85.6205C107.851 85.6206 105.379 85.6205 105.379 85.6205C105.379 85.6205 105.379 83.3253 105.379 82.3275C105.379 80.5088 106.854 79.0344 108.672 79.0344C110.491 79.0344 111.965 80.5088 111.965 82.3275Z" fill="#FF5733"/>
<path d="M125.138 79.0344H118.552V85.6206H125.138V79.0344Z" fill="#FF5733"/>
<path d="M138.31 82.3275C138.31 81.56 138.31 79.0344 138.31 79.0344C138.31 79.0344 140.552 79.0344 141.603 79.0344C142.424 79.0344 144.897 79.0344 144.897 79.0344C144.897 79.0344 144.897 81.3299 144.897 82.3275C144.897 84.1462 143.422 85.6206 141.603 85.6206C139.785 85.6206 138.31 84.1462 138.31 82.3275Z" fill="#FF5733"/>
<path d="M19.7586 88.9138C19.7586 89.6813 19.7586 92.2069 19.7586 92.2069C19.7586 92.2069 17.5167 92.2069 16.4655 92.2067C15.6445 92.2069 13.1724 92.2067 13.1724 92.2067C13.1724 92.2067 13.1724 89.9115 13.1724 88.9137C13.1724 87.0951 14.6467 85.6207 16.4654 85.6207C18.2841 85.6207 19.7586 87.0951 19.7586 88.9138Z" fill="#FF5733"/>
<path d="M32.931 85.6207H26.3448V92.2069H32.931V85.6207Z" fill="#FF5733"/>
<path d="M52.6897 85.6207H46.1035V92.2069H52.6897V85.6207Z" fill="#FF5733"/>
<path d="M75.7413 85.6207C76.5089 85.6207 79.0344 85.6207 79.0344 85.6207C79.0344 85.6207 79.0344 87.8624 79.0344 88.9138C79.0344 89.7345 79.0344 92.2069 79.0344 92.2069C79.0344 92.2069 76.7396 92.2069 75.7413 92.2069C73.922 92.2069 72.4482 90.7318 72.4482 88.9138C72.4482 87.0955 73.922 85.6207 75.7413 85.6207Z" fill="#FF5733"/>
<path d="M85.6206 85.6207H79.0344V92.2069H85.6206V85.6207Z" fill="#FF5733"/>
<path d="M92.2069 85.6207H85.6207V92.2069H92.2069V85.6207Z" fill="#FF5733"/>
<path d="M102.086 85.6207C102.854 85.6207 105.379 85.6207 105.379 85.6207C105.379 85.6207 105.379 87.8624 105.379 88.9138C105.379 89.7345 105.379 92.2069 105.379 92.2069C105.379 92.2069 103.084 92.2069 102.086 92.2069C100.267 92.2069 98.793 90.7318 98.793 88.9138C98.793 87.0955 100.267 85.6207 102.086 85.6207Z" fill="#FF5733"/>
<path d="M111.965 85.6207H105.379V92.2069H111.965V85.6207Z" fill="#FF5733"/>
<path d="M118.552 85.6207H111.965V92.2069H118.552V85.6207Z" fill="#FF5733"/>
<path d="M125.138 85.6207H118.552V92.2069H125.138V85.6207Z" fill="#FF5733"/>
<path d="M131.724 85.6207H125.138V92.2069H131.724V85.6207Z" fill="#FF5733"/>
<path d="M131.724 85.6207V92.2069H138.31C138.31 88.5694 135.362 85.6207 131.724 85.6207Z" fill="#FF5733"/>
<path d="M154.776 85.6207C155.543 85.6207 158.069 85.6207 158.069 85.6207C158.069 85.6207 158.069 87.8624 158.069 88.9138C158.069 89.7345 158.069 92.2069 158.069 92.2069C158.069 92.2069 155.774 92.2069 154.776 92.2069C152.956 92.2069 151.483 90.7318 151.483 88.9138C151.483 87.0955 152.956 85.6207 154.776 85.6207Z" fill="#FF5733"/>
<path d="M158.069 85.6207V92.2069H164.655C164.655 88.5694 161.706 85.6207 158.069 85.6207Z" fill="#FF5733"/>
<path d="M19.7586 98.7931V92.2069H13.1724C13.1724 95.8443 16.121 98.7931 19.7586 98.7931Z" fill="#FF5733"/>
<path d="M26.3448 92.2069H19.7585V98.7931H26.3448V92.2069Z" fill="#FF5733"/>
<path d="M32.931 92.2069H26.3448V98.7931H32.931V92.2069Z" fill="#FF5733"/>
<path d="M39.5172 92.2069H32.931V98.7931H39.5172V92.2069Z" fill="#FF5733"/>
<path d="M46.1034 92.2069H39.5172V98.7931H46.1034V92.2069Z" fill="#FF5733"/>
<path d="M52.6897 92.2069H46.1035V98.7931H52.6897V92.2069Z" fill="#FF5733"/>
<path d="M59.2758 92.2069H52.6896V98.7931H59.2758V92.2069Z" fill="#FF5733"/>
<path d="M59.2759 92.2069V98.7931H65.8621C65.8621 95.1555 62.9133 92.2069 59.2759 92.2069Z" fill="#FF5733"/>
<path d="M92.2069 92.2069H85.6207V98.7931H92.2069V92.2069Z" fill="#FF5733"/>
<path d="M118.552 92.2069H111.965V98.7931H118.552V92.2069Z" fill="#FF5733"/>
<path d="M131.724 98.7931V92.2069H125.138C125.138 95.8443 128.087 98.7931 131.724 98.7931Z" fill="#FF5733"/>
<path d="M138.31 92.2069H131.724V98.7931H138.31V92.2069Z" fill="#FF5733"/>
<path d="M144.897 92.2069H138.31V98.7931H144.897V92.2069Z" fill="#FF5733"/>
<path d="M144.896 92.2069V98.7931H151.483C151.483 95.1555 148.534 92.2069 144.896 92.2069Z" fill="#FF5733"/>
<path d="M164.655 98.7931V92.2069H158.069C158.069 95.8443 161.018 98.7931 164.655 98.7931Z" fill="#FF5733"/>
<path d="M171.241 92.2069H164.655V98.7931H171.241V92.2069Z" fill="#FF5733"/>
<path d="M171.241 92.2069V98.7931H177.828C177.828 95.1555 174.879 92.2069 171.241 92.2069Z" fill="#FF5733"/>
<path d="M39.5172 98.793H32.931V105.379H39.5172V98.793Z" fill="#FF5733"/>
<path d="M52.6897 98.793H46.1035V105.379H52.6897V98.793Z" fill="#FF5733"/>
<path d="M65.8621 98.793H59.2759V105.379H65.8621V98.793Z" fill="#FF5733"/>
<path d="M72.4483 98.793H65.8621V105.379H72.4483V98.793Z" fill="#FF5733"/>
<path d="M79.0344 98.793H72.4482V105.379H79.0344V98.793Z" fill="#FF5733"/>
<path d="M85.6206 98.793H79.0344V105.379H85.6206V98.793Z" fill="#FF5733"/>
<path d="M92.2069 98.793H85.6207V105.379C89.2581 105.379 92.2069 102.431 92.2069 98.793Z" fill="#FF5733"/>
<path d="M102.086 98.793C103.905 98.793 105.379 100.267 105.379 102.086C105.379 103.905 103.905 105.379 102.086 105.379C100.267 105.379 98.793 103.905 98.793 102.086C98.793 100.267 100.267 98.793 102.086 98.793Z" fill="#FF5733"/>
<path d="M118.552 105.379V98.793H111.965C111.965 102.431 114.914 105.379 118.552 105.379Z" fill="#FF5733"/>
<path d="M118.552 98.793V105.379H125.138C125.138 101.742 122.189 98.793 118.552 98.793Z" fill="#FF5733"/>
<path d="M138.31 105.379V98.793H131.724C131.724 102.431 134.673 105.379 138.31 105.379Z" fill="#FF5733"/>
<path d="M144.897 98.793H138.31V105.379H144.897V98.793Z" fill="#FF5733"/>
<path d="M151.483 98.793H144.896V105.379H151.483V98.793Z" fill="#FF5733"/>
<path d="M171.241 102.086C171.241 101.319 171.241 98.793 171.241 98.793C171.241 98.793 173.483 98.793 174.534 98.793C175.355 98.793 177.828 98.793 177.828 98.793C177.828 98.793 177.828 101.088 177.828 102.086C177.828 103.905 176.353 105.379 174.534 105.379C172.716 105.379 171.241 103.905 171.241 102.086Z" fill="#FF5733"/>
<path d="M23.0516 105.379C24.8705 105.379 26.3448 106.854 26.3448 108.672C26.3448 110.491 24.8705 111.966 23.0516 111.966C21.2329 111.966 19.7585 110.491 19.7585 108.672C19.7585 106.854 21.2329 105.379 23.0516 105.379Z" fill="#FF5733"/>
<path d="M39.5172 105.379H32.931V111.966H39.5172V105.379Z" fill="#FF5733"/>
<path d="M52.6897 111.966V105.379H46.1035C46.1035 109.017 49.0521 111.966 52.6897 111.966Z" fill="#FF5733"/>
<path d="M59.2758 105.379H52.6896V111.966H59.2758V105.379Z" fill="#FF5733"/>
<path d="M65.8621 105.379H59.2759V111.966C62.9133 111.966 65.8621 109.017 65.8621 105.379Z" fill="#FF5733"/>
<path d="M85.6206 105.379H79.0344V111.966H85.6206V105.379Z" fill="#FF5733"/>
<path d="M98.7931 108.672C98.7931 109.44 98.7931 111.966 98.7931 111.966C98.7931 111.966 96.5512 111.966 95.5 111.965C94.679 111.966 92.2068 111.965 92.2068 111.965C92.2068 111.965 92.2068 109.67 92.2068 108.672C92.2069 106.854 93.6812 105.379 95.4999 105.379C97.3186 105.379 98.7931 106.854 98.7931 108.672Z" fill="#FF5733"/>
<path d="M108.672 105.379C110.491 105.379 111.965 106.854 111.965 108.672C111.965 110.491 110.491 111.966 108.672 111.966C106.854 111.966 105.379 110.491 105.379 108.672C105.379 106.854 106.854 105.379 108.672 105.379Z" fill="#FF5733"/>
<path d="M125.138 111.966V105.379H118.552C118.552 109.017 121.5 111.966 125.138 111.966Z" fill="#FF5733"/>
<path d="M125.138 105.379V111.966H131.724C131.724 108.328 128.775 105.379 125.138 105.379Z" fill="#FF5733"/>
<path d="M151.483 105.379H144.896V111.966H151.483V105.379Z" fill="#FF5733"/>
<path d="M161.362 105.379C162.13 105.379 164.655 105.379 164.655 105.379C164.655 105.379 164.655 107.621 164.655 108.672C164.655 109.493 164.655 111.966 164.655 111.966C164.655 111.966 162.36 111.966 161.362 111.966C159.543 111.966 158.069 110.49 158.069 108.672C158.069 106.854 159.543 105.379 161.362 105.379Z" fill="#FF5733"/>
<path d="M167.948 111.966C167.181 111.966 164.655 111.966 164.655 111.966C164.655 111.966 164.655 109.723 164.655 108.672C164.655 107.851 164.655 105.379 164.655 105.379C164.655 105.379 166.951 105.379 167.948 105.379C169.767 105.379 171.241 106.854 171.241 108.672C171.241 110.491 169.767 111.966 167.948 111.966Z" fill="#FF5733"/>
<path d="M16.4655 111.965C18.2843 111.965 19.7586 113.44 19.7586 115.259C19.7586 117.077 18.2843 118.552 16.4655 118.552C14.6468 118.552 13.1724 117.077 13.1724 115.259C13.1724 113.44 14.6468 111.965 16.4655 111.965Z" fill="#FF5733"/>
<path d="M29.6379 111.965C30.4054 111.965 32.931 111.965 32.931 111.965C32.931 111.965 32.931 114.207 32.931 115.259C32.931 116.079 32.931 118.552 32.931 118.552C32.931 118.552 30.6361 118.552 29.6379 118.552C27.8185 118.552 26.3448 117.077 26.3448 115.259C26.3448 113.44 27.8185 111.965 29.6379 111.965Z" fill="#FF5733"/>
<path d="M39.5172 111.965H32.931V118.552C36.5684 118.552 39.5172 115.603 39.5172 111.965Z" fill="#FF5733"/>
<path d="M69.1552 111.965C69.9227 111.965 72.4483 111.965 72.4483 111.965C72.4483 111.965 72.4483 114.207 72.4483 115.259C72.4483 116.079 72.4483 118.552 72.4483 118.552C72.4483 118.552 70.1534 118.552 69.1552 118.552C67.3358 118.552 65.8621 117.077 65.8621 115.259C65.8621 113.44 67.3358 111.965 69.1552 111.965Z" fill="#FF5733"/>
<path d="M79.0344 111.965H72.4482V118.552H79.0344V111.965Z" fill="#FF5733"/>
<path d="M85.6206 111.965H79.0344V118.552C82.6719 118.552 85.6206 115.603 85.6206 111.965Z" fill="#FF5733"/>
<path d="M98.7931 118.552V111.965H92.2068C92.2069 115.603 95.1555 118.552 98.7931 118.552Z" fill="#FF5733"/>
<path d="M102.086 118.552C101.319 118.552 98.793 118.552 98.793 118.552C98.793 118.552 98.793 116.31 98.793 115.259C98.793 114.438 98.793 111.965 98.793 111.965C98.793 111.965 101.088 111.965 102.086 111.965C103.905 111.965 105.379 113.44 105.379 115.259C105.379 117.077 103.905 118.552 102.086 118.552Z" fill="#FF5733"/>
<path d="M131.724 111.965H125.138V118.552H131.724V111.965Z" fill="#FF5733"/>
<path d="M138.31 118.552H144.897V111.965C141.259 111.965 138.31 114.914 138.31 118.552Z" fill="#FF5733"/>
<path d="M151.483 111.965H144.896V118.552H151.483V111.965Z" fill="#FF5733"/>
<path d="M177.828 115.259C177.828 116.026 177.828 118.552 177.828 118.552C177.828 118.552 175.586 118.552 174.534 118.552C173.713 118.552 171.241 118.552 171.241 118.552C171.241 118.552 171.241 116.256 171.241 115.258C171.241 113.44 172.716 111.965 174.534 111.965C176.353 111.965 177.828 113.44 177.828 115.259Z" fill="#FF5733"/>
<path d="M42.8103 118.552C44.6291 118.552 46.1034 120.026 46.1034 121.845C46.1034 123.664 44.6291 125.138 42.8103 125.138C40.9915 125.138 39.5172 123.664 39.5172 121.845C39.5172 120.026 40.9915 118.552 42.8103 118.552Z" fill="#FF5733"/>
<path d="M55.9827 118.552C57.8015 118.552 59.2758 120.026 59.2758 121.845C59.2758 123.664 57.8015 125.138 55.9827 125.138C54.164 125.138 52.6896 123.664 52.6896 121.845C52.6896 120.026 54.164 118.552 55.9827 118.552Z" fill="#FF5733"/>
<path d="M88.9138 118.552C90.7326 118.552 92.2069 120.026 92.2069 121.845C92.2069 123.664 90.7326 125.138 88.9138 125.138C87.0951 125.138 85.6207 123.664 85.6207 121.845C85.6207 120.026 87.0951 118.552 88.9138 118.552Z" fill="#FF5733"/>
<path d="M118.552 125.138H125.138V118.552C121.5 118.552 118.552 121.5 118.552 125.138Z" fill="#FF5733"/>
<path d="M131.724 118.552H125.138V125.138H131.724V118.552Z" fill="#FF5733"/>
<path d="M138.31 118.552H131.724V125.138H138.31V118.552Z" fill="#FF5733"/>
<path d="M144.897 118.552H138.31V125.138H144.897V118.552Z" fill="#FF5733"/>
<path d="M151.483 118.552H144.896V125.138H151.483V118.552Z" fill="#FF5733"/>
<path d="M158.069 118.552H151.483V125.138H158.069V118.552Z" fill="#FF5733"/>
<path d="M164.655 118.552H158.069V125.138H164.655V118.552Z" fill="#FF5733"/>
<path d="M171.241 118.552H164.655V125.138H171.241V118.552Z" fill="#FF5733"/>
<path d="M177.828 118.552H171.241V125.138H177.828V118.552Z" fill="#FF5733"/>
<path d="M72.4483 128.431C72.4483 129.199 72.4483 131.724 72.4483 131.724C72.4483 131.724 70.2064 131.724 69.1552 131.724C68.3342 131.724 65.8621 131.724 65.8621 131.724C65.8621 131.724 65.8621 129.429 65.8621 128.431C65.8621 126.612 67.3364 125.138 69.1551 125.138C70.9738 125.138 72.4483 126.612 72.4483 128.431Z" fill="#FF5733"/>
<path d="M82.3275 125.138C84.1463 125.138 85.6206 126.612 85.6206 128.431C85.6206 130.25 84.1463 131.724 82.3275 131.724C80.5088 131.724 79.0344 130.25 79.0344 128.431C79.0344 126.612 80.5088 125.138 82.3275 125.138Z" fill="#FF5733"/>
<path d="M92.2068 131.724H98.7931V125.138C95.1556 125.138 92.2068 128.087 92.2068 131.724Z" fill="#FF5733"/>
<path d="M102.086 131.724C101.319 131.724 98.793 131.724 98.793 131.724C98.793 131.724 98.793 129.482 98.793 128.431C98.793 127.61 98.793 125.138 98.793 125.138C98.793 125.138 101.088 125.138 102.086 125.138C103.905 125.138 105.379 126.612 105.379 128.431C105.379 130.25 103.905 131.724 102.086 131.724Z" fill="#FF5733"/>
<path d="M115.259 125.138C116.026 125.138 118.552 125.138 118.552 125.138C118.552 125.138 118.552 127.38 118.552 128.431C118.552 129.252 118.552 131.724 118.552 131.724C118.552 131.724 116.257 131.724 115.259 131.724C113.439 131.724 111.965 130.249 111.965 128.431C111.965 126.613 113.439 125.138 115.259 125.138Z" fill="#FF5733"/>
<path d="M125.138 125.138H118.552V131.724H125.138V125.138Z" fill="#FF5733"/>
<path d="M151.483 125.138H144.896V131.724H151.483V125.138Z" fill="#FF5733"/>
<path d="M164.655 125.138H158.069V131.724H164.655V125.138Z" fill="#FF5733"/>
<path d="M177.828 125.138H171.241V131.724H177.828V125.138Z" fill="#FF5733"/>
<path d="M72.4483 131.724H65.8621V138.31H72.4483V131.724Z" fill="#FF5733"/>
<path d="M88.9138 131.724C89.6813 131.724 92.2069 131.724 92.2069 131.724C92.2069 131.724 92.2069 133.966 92.2069 135.017C92.2069 135.838 92.2069 138.31 92.2069 138.31C92.2069 138.31 89.912 138.31 88.9138 138.31C87.0944 138.31 85.6207 136.835 85.6207 135.017C85.6207 133.199 87.0944 131.724 88.9138 131.724Z" fill="#FF5733"/>
<path d="M98.7931 131.724H92.2068V138.31H98.7931V131.724Z" fill="#FF5733"/>
<path d="M125.138 131.724H118.552V138.31H125.138V131.724Z" fill="#FF5733"/>
<path d="M135.017 131.724C136.836 131.724 138.31 133.199 138.31 135.017C138.31 136.836 136.836 138.31 135.017 138.31C133.198 138.31 131.724 136.836 131.724 135.017C131.724 133.199 133.198 131.724 135.017 131.724Z" fill="#FF5733"/>
<path d="M151.483 131.724H144.896V138.31H151.483V131.724Z" fill="#FF5733"/>
<path d="M164.655 138.31V131.724H158.069C158.069 135.362 161.018 138.31 164.655 138.31Z" fill="#FF5733"/>
<path d="M171.241 131.724H164.655V138.31H171.241V131.724Z" fill="#FF5733"/>
<path d="M177.828 131.724H171.241V138.31H177.828V131.724Z" fill="#FF5733"/>
<path d="M72.4483 144.897V138.31H65.8621C65.8621 141.948 68.8107 144.897 72.4483 144.897Z" fill="#FF5733"/>
<path d="M72.4482 138.31V144.897H79.0344C79.0344 141.259 76.0857 138.31 72.4482 138.31Z" fill="#FF5733"/>
<path d="M98.7931 138.31H92.2068V144.897H98.7931V138.31Z" fill="#FF5733"/>
<path d="M115.259 138.31C116.026 138.31 118.552 138.31 118.552 138.31C118.552 138.31 118.552 140.552 118.552 141.603C118.552 142.424 118.552 144.897 118.552 144.897C118.552 144.897 116.257 144.897 115.259 144.897C113.439 144.897 111.965 143.421 111.965 141.603C111.965 139.785 113.439 138.31 115.259 138.31Z" fill="#FF5733"/>
<path d="M125.138 138.31H118.552V144.897H125.138V138.31Z" fill="#FF5733"/>
<path d="M151.483 138.31H144.896V144.897H151.483V138.31Z" fill="#FF5733"/>
<path d="M171.241 144.897V138.31H164.655C164.655 141.948 167.604 144.897 171.241 144.897Z" fill="#FF5733"/>
<path d="M177.828 138.31H171.241V144.897C174.879 144.897 177.828 141.948 177.828 138.31Z" fill="#FF5733"/>
<path d="M72.4482 148.19C72.4482 147.422 72.4482 144.897 72.4482 144.897C72.4482 144.897 74.6902 144.897 75.7413 144.897C76.5623 144.897 79.0344 144.897 79.0344 144.897C79.0344 144.897 79.0344 147.192 79.0344 148.19C79.0344 150.008 77.56 151.483 75.7413 151.483C73.9226 151.483 72.4482 150.008 72.4482 148.19Z" fill="#FF5733"/>
<path d="M88.9138 144.897C89.6813 144.897 92.2069 144.897 92.2069 144.897C92.2069 144.897 92.2069 147.138 92.2069 148.19C92.2069 149.01 92.2069 151.483 92.2069 151.483C92.2069 151.483 89.912 151.483 88.9138 151.483C87.0944 151.483 85.6207 150.008 85.6207 148.19C85.6207 146.371 87.0944 144.897 88.9138 144.897Z" fill="#FF5733"/>
<path d="M98.7931 144.897H92.2068V151.483H98.7931V144.897Z" fill="#FF5733"/>
<path d="M98.793 144.897V151.483H105.379C105.379 147.845 102.43 144.897 98.793 144.897Z" fill="#FF5733"/>
<path d="M125.138 151.483V144.897H118.552C118.552 148.534 121.5 151.483 125.138 151.483Z" fill="#FF5733"/>
<path d="M131.724 144.897H125.138V151.483H131.724V144.897Z" fill="#FF5733"/>
<path d="M138.31 144.897H131.724V151.483H138.31V144.897Z" fill="#FF5733"/>
<path d="M144.897 144.897H138.31V151.483H144.897V144.897Z" fill="#FF5733"/>
<path d="M151.483 144.897H144.896V151.483H151.483V144.897Z" fill="#FF5733"/>
<path d="M151.483 144.897V151.483H158.069C158.069 147.845 155.12 144.897 151.483 144.897Z" fill="#FF5733"/>
<path d="M72.4483 154.776C72.4483 155.543 72.4483 158.069 72.4483 158.069C72.4483 158.069 70.2064 158.069 69.1552 158.069C68.3342 158.069 65.8621 158.069 65.8621 158.069C65.8621 158.069 65.8621 155.774 65.8621 154.776C65.8621 152.957 67.3364 151.483 69.1551 151.483C70.9738 151.483 72.4483 152.957 72.4483 154.776Z" fill="#FF5733"/>
<path d="M98.7931 151.483H92.2068V158.069H98.7931V151.483Z" fill="#FF5733"/>
<path d="M105.379 151.483H98.793V158.069H105.379V151.483Z" fill="#FF5733"/>
<path d="M108.672 158.069C107.905 158.069 105.379 158.069 105.379 158.069C105.379 158.069 105.379 155.827 105.379 154.776C105.379 153.955 105.379 151.483 105.379 151.483C105.379 151.483 107.675 151.483 108.672 151.483C110.491 151.483 111.965 152.957 111.965 154.776C111.965 156.594 110.491 158.069 108.672 158.069Z" fill="#FF5733"/>
<path d="M138.31 151.483H131.724V158.069H138.31V151.483Z" fill="#FF5733"/>
<path d="M151.483 151.483H144.896V158.069H151.483V151.483Z" fill="#FF5733"/>
<path d="M158.069 151.483H151.483V158.069H158.069V151.483Z" fill="#FF5733"/>
<path d="M164.655 151.483H158.069V158.069H164.655V151.483Z" fill="#FF5733"/>
<path d="M171.241 151.483H164.655V158.069H171.241V151.483Z" fill="#FF5733"/>
<path d="M174.534 158.069C173.767 158.069 171.241 158.069 171.241 158.069C171.241 158.069 171.241 155.827 171.241 154.776C171.241 153.955 171.241 151.483 171.241 151.483C171.241 151.483 173.537 151.483 174.534 151.483C176.353 151.483 177.828 152.957 177.828 154.776C177.828 156.594 176.353 158.069 174.534 158.069Z" fill="#FF5733"/>
<path d="M65.8621 161.362C65.8621 160.594 65.8621 158.069 65.8621 158.069C65.8621 158.069 68.104 158.069 69.1552 158.069C69.9761 158.069 72.4483 158.069 72.4483 158.069C72.4483 158.069 72.4483 160.364 72.4483 161.362C72.4483 163.181 70.9738 164.655 69.1552 164.655C67.3364 164.655 65.8621 163.181 65.8621 161.362Z" fill="#FF5733"/>
<path d="M79.0344 164.655H85.6206V158.069C81.9832 158.069 79.0344 161.018 79.0344 164.655Z" fill="#FF5733"/>
<path d="M92.2069 158.069H85.6207V164.655H92.2069V158.069Z" fill="#FF5733"/>
<path d="M98.7931 158.069H92.2068V164.655H98.7931V158.069Z" fill="#FF5733"/>
<path d="M105.379 158.069H98.793V164.655C102.43 164.655 105.379 161.706 105.379 158.069Z" fill="#FF5733"/>
<path d="M125.138 164.655H131.724V158.069C128.087 158.069 125.138 161.018 125.138 164.655Z" fill="#FF5733"/>
<path d="M138.31 158.069H131.724V164.655H138.31V158.069Z" fill="#FF5733"/>
<path d="M151.483 158.069H144.896V164.655H151.483V158.069Z" fill="#FF5733"/>
<path d="M164.655 158.069H158.069V164.655H164.655V158.069Z" fill="#FF5733"/>
<path d="M171.241 158.069H164.655V164.655C168.293 164.655 171.241 161.706 171.241 158.069Z" fill="#FF5733"/>
<path d="M79.0344 167.948C79.0344 167.181 79.0344 164.655 79.0344 164.655C79.0344 164.655 81.2764 164.655 82.3275 164.655C83.1485 164.655 85.6206 164.655 85.6206 164.655C85.6206 164.655 85.6206 166.951 85.6206 167.948C85.6206 169.767 84.1462 171.241 82.3275 171.241C80.5088 171.241 79.0344 169.767 79.0344 167.948Z" fill="#FF5733"/>
<path d="M115.259 164.655C117.077 164.655 118.552 166.13 118.552 167.948C118.552 169.767 117.077 171.241 115.259 171.241C113.44 171.241 111.965 169.767 111.965 167.948C111.965 166.13 113.44 164.655 115.259 164.655Z" fill="#FF5733"/>
<path d="M131.724 171.241V164.655H125.138C125.138 168.293 128.087 171.241 131.724 171.241Z" fill="#FF5733"/>
<path d="M138.31 164.655H131.724V171.241C135.362 171.241 138.31 168.293 138.31 164.655Z" fill="#FF5733"/>
<path d="M151.483 164.655H144.896V171.241H151.483V164.655Z" fill="#FF5733"/>
<path d="M164.655 164.655H158.069V171.241H164.655V164.655Z" fill="#FF5733"/>
<path d="M69.1552 171.241C69.9227 171.241 72.4483 171.241 72.4483 171.241C72.4483 171.241 72.4483 173.483 72.4483 174.534C72.4483 175.355 72.4483 177.828 72.4483 177.828C72.4483 177.828 70.1534 177.828 69.1552 177.828C67.3358 177.828 65.8621 176.353 65.8621 174.534C65.8621 172.716 67.3358 171.241 69.1552 171.241Z" fill="#FF5733"/>
<path d="M75.7413 177.828C74.9738 177.828 72.4482 177.828 72.4482 177.828C72.4482 177.828 72.4482 175.586 72.4482 174.534C72.4482 173.713 72.4482 171.241 72.4482 171.241C72.4482 171.241 74.7437 171.241 75.7413 171.241C77.56 171.241 79.0344 172.716 79.0344 174.534C79.0344 176.353 77.56 177.828 75.7413 177.828Z" fill="#FF5733"/>
<path d="M95.5 171.241C97.3188 171.241 98.7931 172.716 98.7931 174.534C98.7931 176.353 97.3188 177.828 95.5 177.828C93.6812 177.828 92.2068 176.353 92.2068 174.534C92.2068 172.716 93.6812 171.241 95.5 171.241Z" fill="#FF5733"/>
<path d="M108.672 171.241C110.491 171.241 111.965 172.716 111.965 174.534C111.965 176.353 110.491 177.828 108.672 177.828C106.854 177.828 105.379 176.353 105.379 174.534C105.379 172.716 106.854 171.241 108.672 171.241Z" fill="#FF5733"/>
<path d="M141.603 171.241C142.371 171.241 144.897 171.241 144.897 171.241C144.897 171.241 144.897 173.483 144.897 174.534C144.897 175.355 144.897 177.828 144.897 177.828C144.897 177.828 142.602 177.828 141.603 177.828C139.784 177.828 138.31 176.353 138.31 174.534C138.31 172.716 139.784 171.241 141.603 171.241Z" fill="#FF5733"/>
<path d="M151.483 171.241H144.896V177.828H151.483V171.241Z" fill="#FF5733"/>
<path d="M158.069 171.241H151.483V177.828H158.069V171.241Z" fill="#FF5733"/>
<path d="M164.655 171.241H158.069V177.828H164.655V171.241Z" fill="#FF5733"/>
<path d="M171.241 171.241H164.655V177.828H171.241V171.241Z" fill="#FF5733"/>
<path d="M174.534 177.828C173.767 177.828 171.241 177.828 171.241 177.828C171.241 177.828 171.241 175.586 171.241 174.534C171.241 173.713 171.241 171.241 171.241 171.241C171.241 171.241 173.537 171.241 174.534 171.241C176.353 171.241 177.828 172.716 177.828 174.534C177.828 176.353 176.353 177.828 174.534 177.828Z" fill="#FF5733"/>
<path d="M43.5356 13.1759H28.9125C21.7859 13.1759 15.7482 17.8844 13.8178 24.32C13.6182 24.9857 13.4624 25.6699 13.354 26.3693C13.2346 27.1411 13.1724 27.9313 13.1724 28.7358V43.706C13.1724 52.29 20.2354 59.2706 28.9125 59.2706L36.2241 59.272L43.5356 59.2701C52.2123 59.2701 59.2758 52.2896 59.2758 43.7056V28.7358C59.2758 20.1559 52.2128 13.1759 43.5356 13.1759ZM52.3603 43.706C52.3603 48.475 48.4019 52.3551 43.5338 52.3551L36.2241 52.3564L28.9144 52.3546C24.0463 52.3546 20.0879 48.4745 20.0879 43.706V28.7358C20.0879 27.2462 20.4742 25.8437 21.1543 24.6183C21.8089 23.4394 22.7351 22.4256 23.8504 21.658C25.2842 20.6709 27.0301 20.0914 28.9121 20.0914H43.5356C48.4019 20.0914 52.3603 23.9692 52.3603 28.7358V43.706Z" fill="#FF5733"/>
<path d="M162.087 13.1761H147.464C140.338 13.1761 134.3 17.8846 132.37 24.3202C132.17 24.9859 132.014 25.6701 131.906 26.3695C131.786 27.1413 131.724 27.9315 131.724 28.736V43.7062C131.724 52.2902 138.787 59.2708 147.464 59.2708L154.776 59.2721L162.087 59.2703C170.764 59.2703 177.828 52.2898 177.828 43.7058V28.736C177.828 20.1561 170.764 13.1761 162.087 13.1761ZM170.912 43.7062C170.912 48.4752 166.954 52.3552 162.085 52.3552L154.776 52.3566L147.466 52.3548C142.598 52.3548 138.64 48.4747 138.64 43.7062V28.736C138.64 27.2464 139.026 25.8439 139.706 24.6185C140.361 23.4396 141.287 22.4258 142.402 21.6582C143.836 20.6711 145.582 20.0916 147.464 20.0916H162.087C166.954 20.0916 170.912 23.9693 170.912 28.736V43.7062Z" fill="#FF5733"/>
<path d="M43.5356 131.728H28.9125C21.7859 131.728 15.7482 136.436 13.8178 142.872C13.6182 143.538 13.4624 144.222 13.354 144.921C13.2346 145.693 13.1724 146.483 13.1724 147.288V162.258C13.1724 170.842 20.2354 177.822 28.9125 177.822L36.2241 177.824L43.5356 177.822C52.2123 177.822 59.2758 170.841 59.2758 162.257V147.288C59.2758 138.708 52.2128 131.728 43.5356 131.728ZM52.3603 162.258C52.3603 167.027 48.4019 170.907 43.5338 170.907L36.2241 170.908L28.9144 170.907C24.0463 170.907 20.0879 167.026 20.0879 162.258V147.288C20.0879 145.798 20.4742 144.396 21.1543 143.17C21.8089 141.991 22.7351 140.978 23.8504 140.21C25.2842 139.223 27.0301 138.643 28.9121 138.643H43.5356C48.4019 138.643 52.3603 142.521 52.3603 147.288V162.258Z" fill="#FF5733"/>
<path d="M31.749 46.1034C28.7674 46.1034 26.342 43.7261 26.342 40.8065V31.6389C26.342 30.7269 26.5791 29.8685 26.9943 29.1175C27.3952 28.3947 27.9626 27.7735 28.6461 27.3049C29.524 26.7006 30.5941 26.3448 31.746 26.3448H40.702C43.6808 26.3448 46.1062 28.7194 46.1062 31.6387V40.8063C46.1062 43.7257 43.681 46.1032 40.702 46.1032H36.2241L31.749 46.1034Z" fill="#FF5733"/>
<path d="M150.301 46.1034C147.319 46.1034 144.894 43.7261 144.894 40.8065V31.6389C144.894 30.7269 145.131 29.8685 145.546 29.1175C145.947 28.3947 146.514 27.7735 147.198 27.3049C148.076 26.7006 149.146 26.3448 150.298 26.3448H159.254C162.233 26.3448 164.658 28.7194 164.658 31.6387V40.8063C164.658 43.7257 162.233 46.1032 159.254 46.1032H154.776L150.301 46.1034Z" fill="#FF5733"/>
<path d="M31.749 164.655C28.7674 164.655 26.342 162.278 26.342 159.358V150.191C26.342 149.279 26.5791 148.42 26.9943 147.669C27.3952 146.946 27.9626 146.325 28.6461 145.857C29.524 145.252 30.5941 144.897 31.746 144.897H40.702C43.6808 144.897 46.1062 147.271 46.1062 150.19V159.358C46.1062 162.277 43.681 164.655 40.702 164.655H36.2241L31.749 164.655Z" fill="#FF5733"/>
</g>
<defs>
<clipPath id="clip0_38_79">
<rect width="191" height="191" fill="white"/>
</clipPath>
</defs>
</svg>
