<svg width="24" height="24" viewBox="0 0 24 24" fill="none" xmlns="http://www.w3.org/2000/svg">
<path d="M18.375 1.5C17.5447 1.49984 16.7435 1.80574 16.1246 2.35921C15.5057 2.91267 15.1125 3.67486 15.0203 4.5H13.5V6H18V4.5H16.5375C16.6278 4.05457 16.8768 3.6571 17.2382 3.38152C17.5996 3.10594 18.0488 2.971 18.5022 3.00181C18.9557 3.03262 19.3825 3.22708 19.7033 3.54902C20.0241 3.87095 20.217 4.29845 20.2462 4.752L20.25 4.875V12H0.75V13.5H2.25V17.25C2.24989 17.9798 2.4627 18.6938 2.86235 19.3045C3.26201 19.9152 3.83114 20.396 4.5 20.688V22.5H6V21H18V22.5H19.5V20.688C20.1414 20.408 20.6917 19.9541 21.0886 19.3777C21.4856 18.8013 21.7134 18.1253 21.7462 17.4263L21.75 17.25V13.5H23.25V12H21.75V4.875C21.75 3.97989 21.3944 3.12145 20.7615 2.48851C20.1286 1.85558 19.2701 1.5 18.375 1.5V1.5ZM3.75075 13.5H20.2507L20.25 17.25C20.2501 17.8013 20.0477 18.3335 19.6814 18.7455C19.315 19.1575 18.8101 19.4207 18.2625 19.485L18.132 19.4963L18 19.5H6C5.42609 19.5 4.87386 19.2808 4.45631 18.887C4.03875 18.4933 3.78742 17.9549 3.75375 17.382L3.75 17.25L3.75075 13.5Z" fill="#B8B8B8"/>
</svg>
