<svg width="24" height="24" viewBox="0 0 24 24" fill="none" xmlns="http://www.w3.org/2000/svg">
<path d="M18 19.5C18.741 19.5 19.4587 19.7633 20.0032 20.2568C20.2327 20.4638 20.5357 20.5905 20.8597 20.619L21 20.625V22.125L20.829 22.1205C20.1502 22.0868 19.5034 21.8213 18.9968 21.3683C18.7214 21.1266 18.3663 20.9955 18 21C17.6235 21 17.2665 21.1313 17.004 21.3683C16.4531 21.8596 15.7396 22.1292 15.0015 22.125C14.2628 22.1296 13.5488 21.8599 12.9975 21.3683C12.7219 21.1265 12.3666 20.9953 12 21C11.6227 21 11.265 21.1313 11.0032 21.3683C10.4523 21.8595 9.73888 22.1292 9.00075 22.125C8.2622 22.1297 7.54815 21.8604 6.99675 21.369C6.72148 21.1271 6.36642 20.9957 6 21C5.62275 21 5.265 21.1313 5.0025 21.3683C4.49601 21.8211 3.84957 22.0866 3.171 22.1205L3 22.125V20.625L3.14025 20.619C3.45752 20.5945 3.75818 20.4673 3.99675 20.2568C4.54773 19.7651 5.26157 19.4954 6 19.5C6.741 19.5 7.45875 19.764 8.00325 20.2568C8.26575 20.4938 8.62275 20.6243 9.00075 20.625C9.37725 20.625 9.735 20.4938 9.99675 20.256C10.5478 19.7646 11.2617 19.4952 12 19.5C12.741 19.5 13.4587 19.7633 14.0032 20.2568C14.2657 20.4938 14.6227 20.6243 15.0007 20.625C15.3772 20.625 15.735 20.4938 15.9968 20.2568C16.5475 19.7653 17.2611 19.4956 17.9993 19.5H18ZM18 15.75C18.741 15.75 19.4587 16.0133 20.0032 16.5068C20.2327 16.7138 20.5357 16.8405 20.8597 16.869L21 16.875V18.375L20.829 18.3705C20.1502 18.3368 19.5034 18.0713 18.9968 17.6183C18.7214 17.3766 18.3663 17.2455 18 17.25C17.6235 17.25 17.2665 17.3813 17.004 17.6183C16.4531 18.1096 15.7396 18.3792 15.0015 18.375C14.2628 18.3796 13.5488 18.1099 12.9975 17.6183C12.7219 17.3765 12.3666 17.2453 12 17.25C11.6227 17.25 11.265 17.3813 11.0032 17.6183C10.4523 18.1095 9.73888 18.3792 9.00075 18.375C8.2622 18.3797 7.54815 18.1104 6.99675 17.619C6.72148 17.3771 6.36642 17.2457 6 17.25C5.62275 17.25 5.265 17.3813 5.0025 17.6183C4.49601 18.0711 3.84957 18.3366 3.171 18.3705L3 18.375V16.875L3.14025 16.869C3.45752 16.8445 3.75818 16.7173 3.99675 16.5068C4.54773 16.0151 5.26157 15.7454 6 15.75C6.741 15.75 7.45875 16.014 8.00325 16.5068C8.26575 16.7438 8.62275 16.8743 9.00075 16.875C9.37725 16.875 9.735 16.7438 9.99675 16.506C10.5478 16.0146 11.2617 15.7452 12 15.75C12.741 15.75 13.4587 16.0133 14.0032 16.5068C14.2657 16.7438 14.6227 16.8743 15.0007 16.875C15.3772 16.875 15.735 16.7438 15.9968 16.5068C16.5475 16.0153 17.2611 15.7456 17.9993 15.75H18ZM15 2.25C15.7697 2.25 16.5099 2.54583 17.0676 3.0763C17.6253 3.60676 17.9578 4.33128 17.9963 5.1L18 5.25V6.75H21V8.25H18V12C18.684 12 19.3485 12.225 19.875 12.6465L20.0032 12.7568C20.2327 12.9638 20.5357 13.0905 20.8597 13.119L21 13.125V14.625L20.829 14.6205C20.1502 14.5868 19.5034 14.3213 18.9968 13.8683C18.7214 13.6266 18.3663 13.4955 18 13.5C17.6235 13.5 17.2665 13.6313 17.004 13.8683C16.4531 14.3596 15.7396 14.6292 15.0015 14.625C14.2628 14.6296 13.5488 14.3599 12.9975 13.8683C12.7219 13.6265 12.3666 13.4953 12 13.5C11.6227 13.5 11.265 13.6313 11.0032 13.8683C10.4523 14.3595 9.73888 14.6292 9.00075 14.625C8.2622 14.6297 7.54815 14.3604 6.99675 13.869C6.72148 13.6271 6.36642 13.4957 6 13.5C5.62275 13.5 5.265 13.6313 5.0025 13.8683C4.49601 14.3211 3.84957 14.5866 3.171 14.6205L3 14.625V13.125L3.14025 13.119C3.45752 13.0945 3.75818 12.9673 3.99675 12.7568C4.54773 12.2651 5.26157 11.9955 6 12C6.741 12 7.45875 12.264 8.00325 12.7568C8.26575 12.9938 8.62275 13.1243 9.00075 13.125C9.37725 13.125 9.735 12.9938 9.99675 12.756C10.5036 12.3029 11.1507 12.0376 11.8297 12.0045L12 12V8.25H3V6.75H12V5.25C12.0017 4.86077 11.8521 4.48609 11.5827 4.20514C11.3133 3.92418 10.9453 3.75895 10.5563 3.74435C10.1673 3.72974 9.78792 3.86691 9.49821 4.12687C9.20851 4.38683 9.0312 4.74923 9.00375 5.1375L9 5.25H7.5C7.50011 4.64069 7.68576 4.04585 8.03225 3.54464C8.37873 3.04342 8.86962 2.6596 9.4396 2.44422C10.0096 2.22885 10.6316 2.19215 11.223 2.33899C11.8144 2.48583 12.347 2.80927 12.75 3.26625C13.031 2.94637 13.3771 2.69021 13.7652 2.51495C14.1532 2.33968 14.5742 2.24935 15 2.25V2.25ZM13.5 12.3923C13.62 12.4605 13.7347 12.5378 13.8442 12.6225L14.0032 12.7568C14.2657 12.9938 14.6227 13.1243 15.0007 13.125C15.33 13.125 15.6457 13.0245 15.894 12.84L15.9968 12.7568C16.1513 12.6165 16.32 12.4943 16.4993 12.3923V8.25H13.4993L13.5 12.3923ZM15 3.75C14.6216 3.74988 14.2571 3.89281 13.9796 4.15013C13.7021 4.40744 13.5321 4.76014 13.5037 5.1375L13.5 5.25V6.75H16.5V5.25C16.5 4.85218 16.342 4.47065 16.0607 4.18934C15.7794 3.90804 15.3978 3.75 15 3.75V3.75Z" fill="#B8B8B8"/>
</svg>
