<svg width="15" height="13" viewBox="0 0 15 13" fill="none" xmlns="http://www.w3.org/2000/svg">
<path d="M13.6059 4.51721L9.63871 3.94064L7.86528 0.34533C7.81684 0.246893 7.73715 0.167205 7.63871 0.118768C7.39184 -0.00310701 7.09184 0.0984555 6.9684 0.34533L5.19496 3.94064L1.22778 4.51721C1.1184 4.53283 1.0184 4.58439 0.941838 4.66252C0.849279 4.75765 0.798274 4.88564 0.800032 5.01836C0.80179 5.15109 0.856166 5.27768 0.951213 5.37033L3.82153 8.16877L3.1434 12.1203C3.1275 12.2123 3.13767 12.3068 3.17276 12.3932C3.20786 12.4797 3.26647 12.5545 3.34195 12.6094C3.41743 12.6642 3.50676 12.6967 3.59981 12.7034C3.69286 12.71 3.78591 12.6904 3.8684 12.6469L7.41684 10.7813L10.9653 12.6469C11.0622 12.6985 11.1747 12.7156 11.2825 12.6969C11.5543 12.65 11.7372 12.3922 11.6903 12.1203L11.0122 8.16877L13.8825 5.37033C13.9606 5.29377 14.0122 5.19377 14.0278 5.08439C14.07 4.81096 13.8793 4.55783 13.6059 4.51721V4.51721Z" fill="#FF5733"/>
</svg>
