<svg width="20" height="20" viewBox="0 0 20 20" fill="none" xmlns="http://www.w3.org/2000/svg">
<g clip-path="url(#clip0_47_1217)">
<path d="M3.125 15C3.125 14.8343 3.05916 14.6753 2.94195 14.5581C2.82474 14.4409 2.66576 14.375 2.5 14.375C2.33424 14.375 2.17527 14.4409 2.05806 14.5581C1.94085 14.6753 1.875 14.8343 1.875 15H3.125ZM1.875 11.6667C1.875 11.8325 1.94085 11.9914 2.05806 12.1086C2.17527 12.2258 2.33424 12.2917 2.5 12.2917C2.66576 12.2917 2.82474 12.2258 2.94195 12.1086C3.05916 11.9914 3.125 11.8325 3.125 11.6667H1.875ZM5.83334 7.29169C6.63667 7.29169 7.17667 7.29336 7.57917 7.34752C7.96334 7.39919 8.12834 7.48836 8.23667 7.59752L9.12 6.71252C8.74084 6.33336 8.26834 6.17919 7.745 6.10836C7.24 6.04002 6.60167 6.04169 5.83334 6.04169V7.29169ZM9.79167 10C9.79167 9.23169 9.79334 8.59336 9.725 8.08836C9.655 7.56502 9.5 7.09169 9.12 6.71252L8.23667 7.59752C8.345 7.70586 8.43417 7.87002 8.48667 8.25502C8.54 8.65669 8.54167 9.19669 8.54167 10H9.79167ZM5.83334 6.04169C5.065 6.04169 4.42667 6.04002 3.92167 6.10836C3.39834 6.17836 2.92584 6.33336 2.54667 6.71252L3.43 7.59669C3.53834 7.48836 3.70334 7.39919 4.08834 7.34669C4.49 7.29336 5.03 7.29169 5.83334 7.29169V6.04169ZM3.125 10C3.125 9.19669 3.12667 8.65669 3.18084 8.25419C3.2325 7.87002 3.32084 7.70502 3.43 7.59669L2.54584 6.71336C2.16667 7.09252 2.0125 7.56502 1.94167 8.08836C1.87334 8.59336 1.875 9.23169 1.875 10H3.125ZM3.125 18.3334V15H1.875V18.3334H3.125ZM3.125 11.6667V10H1.875V11.6667H3.125Z" fill="black"/>
<path d="M5.83332 18.3334V13.3334C5.83332 11.7617 5.83332 10.9767 6.32166 10.4884C6.80999 10 7.59499 10 9.16666 10H10.8333M10.8333 10C12.405 10 13.19 10 13.6783 10.4884C14.0717 10.8809 14.1483 11.4667 14.1633 12.5M10.8333 10V6.47669C10.8333 4.29169 10.8333 3.20002 11.5508 2.70169C12.2683 2.20502 13.2908 2.58835 15.3367 3.35585C16.3833 3.74752 16.9067 3.94419 17.2033 4.37252C17.5 4.80085 17.5 5.36002 17.5 6.47669M14.1667 18.3334V16.0417M17.5 18.3334V10M3.33332 6.66669V5.41669C3.33332 4.63085 3.33332 4.23835 3.57749 3.99419C3.82166 3.75002 4.21416 3.75002 4.99999 3.75002H6.66666C7.45249 3.75002 7.84499 3.75002 8.08916 3.99419C8.33332 4.23835 8.33332 4.63085 8.33332 5.41669V6.66669M5.83332 3.33335V1.66669M18.3333 18.3334H1.66666M8.33332 12.5H8.74999M11.6667 12.5H10.4167M8.33332 15H11.6667" stroke="black" stroke-width="1.5" stroke-linecap="round"/>
</g>
<defs>
<clipPath id="clip0_47_1217">
<rect width="20" height="20" fill="white"/>
</clipPath>
</defs>
</svg>
