<svg width="25" height="24" viewBox="0 0 25 24" fill="none" xmlns="http://www.w3.org/2000/svg">
<g clip-path="url(#clip0_47_1124)">
<path d="M12.4999 15.2499C14.0187 15.2499 15.2499 16.4811 15.2499 17.9999C15.2499 19.5187 14.0187 20.7499 12.4999 20.7499C10.9811 20.7499 9.74991 19.5187 9.74991 17.9999C9.74991 16.4811 10.9811 15.2499 12.4999 15.2499ZM12.4999 16.7499C11.8096 16.7499 11.2499 17.3096 11.2499 17.9999C11.2499 18.6903 11.8096 19.2499 12.4999 19.2499C13.1903 19.2499 13.7499 18.6903 13.7499 17.9999C13.7499 17.3096 13.1903 16.7499 12.4999 16.7499ZM12.5 11.25C15.1376 11.25 17.4219 12.7628 18.5324 14.9682L17.3967 16.1027C16.636 14.1409 14.7304 12.75 12.5 12.75C10.2695 12.75 8.36396 14.1409 7.6033 16.1027L6.46794 14.9674C7.57862 12.7625 9.86267 11.25 12.5 11.25V11.25ZM12.5001 7.2501C16.2354 7.2501 19.5258 9.15526 21.4525 12.0469L20.3672 13.1324C18.7362 10.502 15.8227 8.7501 12.5001 8.7501C9.17742 8.7501 6.26395 10.502 4.63294 13.1324L3.54762 12.0469C5.47433 9.15526 8.76471 7.2501 12.5001 7.2501V7.2501ZM12.4999 3.2499C17.3382 3.2499 21.6324 5.57943 24.3221 9.17806L23.2492 10.2513C20.8427 6.91873 16.9246 4.7499 12.4999 4.7499C8.07555 4.7499 4.15767 6.9184 1.75114 10.2505L0.678284 9.17731C3.36801 5.5791 7.66195 3.2499 12.4999 3.2499V3.2499Z" fill="#B8B8B8"/>
</g>
<defs>
<clipPath id="clip0_47_1124">
<rect width="24" height="24" fill="white" transform="translate(0.5)"/>
</clipPath>
</defs>
</svg>
