<svg width="20" height="20" viewBox="0 0 20 20" fill="none" xmlns="http://www.w3.org/2000/svg">
<path d="M10.8333 12.125C9.48609 12.125 8.49998 12.2014 7.87498 12.3542C7.24998 12.507 6.71526 12.8056 6.27081 13.25L3.43748 16.0833C3.2847 16.2361 3.09387 16.3125 2.86498 16.3125C2.63609 16.3125 2.43804 16.2361 2.27081 16.0833C2.10415 15.9167 2.02081 15.7189 2.02081 15.49C2.02081 15.2611 2.10415 15.0631 2.27081 14.8958L5.08331 12.0833C5.51387 11.6528 5.80915 11.1147 5.96915 10.4692C6.12915 9.82363 6.20887 8.8339 6.20831 7.50002C6.20831 6.69446 6.38887 5.90279 6.74998 5.12502C7.11109 4.34724 7.62498 3.62502 8.29165 2.95835C9.55553 1.69446 10.9514 0.979182 12.4791 0.812516C14.0069 0.645849 15.2639 1.06946 16.25 2.08335C17.25 3.08335 17.6666 4.34724 17.5 5.87502C17.3333 7.40279 16.625 8.79168 15.375 10.0417C14.7083 10.7083 13.9861 11.2222 13.2083 11.5833C12.4305 11.9445 11.6389 12.125 10.8333 12.125ZM8.58331 9.70835C9.23609 10.3472 10.118 10.5833 11.2291 10.4167C12.3403 10.25 13.3333 9.72918 14.2083 8.85418C15.0972 7.96529 15.6286 6.96863 15.8025 5.86418C15.9764 4.75974 15.7366 3.89529 15.0833 3.27085C14.4166 2.60418 13.5453 2.35418 12.4691 2.52085C11.393 2.68752 10.4033 3.21529 9.49998 4.10418C8.62498 4.97918 8.09387 5.9689 7.90665 7.07335C7.71942 8.17779 7.94498 9.05613 8.58331 9.70835ZM15 19.1667C14.0833 19.1667 13.2986 18.8403 12.6458 18.1875C11.993 17.5347 11.6666 16.75 11.6666 15.8333C11.6666 14.9167 11.993 14.132 12.6458 13.4792C13.2986 12.8264 14.0833 12.5 15 12.5C15.9166 12.5 16.7014 12.8264 17.3541 13.4792C18.0069 14.132 18.3333 14.9167 18.3333 15.8333C18.3333 16.75 18.0069 17.5347 17.3541 18.1875C16.7014 18.8403 15.9166 19.1667 15 19.1667ZM15 17.5C15.4583 17.5 15.8508 17.337 16.1775 17.0108C16.5041 16.6847 16.6672 16.2922 16.6666 15.8333C16.6661 15.3745 16.503 14.9822 16.1775 14.6567C15.8519 14.3311 15.4594 14.1678 15 14.1667C14.5405 14.1656 14.1483 14.3289 13.8233 14.6567C13.4983 14.9845 13.335 15.3767 13.3333 15.8333C13.3316 16.29 13.495 16.6825 13.8233 17.0108C14.1516 17.3392 14.5439 17.5022 15 17.5Z" fill="#FF5733"/>
</svg>
