<svg width="8" height="12" viewBox="0 0 8 12" fill="none" xmlns="http://www.w3.org/2000/svg">
<path d="M4 0.406311C2.0666 0.406311 0.5 1.96661 0.5 3.89931C0.5 7.24111 4 11.5993 4 11.5993C4 11.5993 7.5 7.24041 7.5 3.89931C7.5 1.96731 5.9334 0.406311 4 0.406311V0.406311ZM4 5.83201C3.49874 5.83201 3.01801 5.63289 2.66357 5.27844C2.30912 4.924 2.11 4.44327 2.11 3.94201C2.11 3.44075 2.30912 2.96002 2.66357 2.60558C3.01801 2.25114 3.49874 2.05201 4 2.05201C4.50126 2.05201 4.98199 2.25114 5.33643 2.60558C5.69088 2.96002 5.89 3.44075 5.89 3.94201C5.89 4.44327 5.69088 4.924 5.33643 5.27844C4.98199 5.63289 4.50126 5.83201 4 5.83201Z" fill="#FF9680"/>
</svg>
