<svg width="32" height="32" viewBox="0 0 32 32" fill="none" xmlns="http://www.w3.org/2000/svg">
<path opacity="0.5" d="M19.72 25.3C11.3293 28.6534 7.13331 30.3334 4.73865 28.7054C4.1706 28.3194 3.68066 27.8294 3.29465 27.2614C1.66665 24.8654 3.34398 20.6694 6.69998 12.28C7.41598 10.4907 7.77465 9.59604 8.38931 8.89338C8.54665 8.71471 8.71465 8.54671 8.89331 8.38937C9.59598 7.77471 10.4906 7.41604 12.28 6.70004C20.6693 3.34404 24.8653 1.66671 27.2613 3.29471C27.8293 3.68138 28.3186 4.17071 28.7053 4.73871C30.3333 7.13471 28.6546 11.3294 25.3 19.72C24.584 21.5094 24.2253 22.404 23.6106 23.1067C23.4533 23.2854 23.2853 23.4534 23.1066 23.6107C22.404 24.2254 21.5093 24.584 19.72 25.3Z" stroke="black" stroke-width="2"/>
<path d="M16 20C18.2091 20 20 18.2091 20 16C20 13.7909 18.2091 12 16 12C13.7909 12 12 13.7909 12 16C12 18.2091 13.7909 20 16 20Z" stroke="black" stroke-width="2"/>
</svg>
