<svg width="32" height="32" viewBox="0 0 32 32" fill="none" xmlns="http://www.w3.org/2000/svg">
<path opacity="0.5" d="M3.15197 17.2773C2.6453 13.7613 2.39197 12.0026 3.1133 10.5C3.8333 8.99729 5.36797 8.08263 8.43597 6.25596L10.2826 5.15596C13.0666 3.49596 14.4613 2.66663 16 2.66663C17.5386 2.66663 18.932 3.49596 21.7173 5.15596L23.564 6.25596C26.6306 8.08263 28.1653 8.99729 28.8866 10.5C29.6066 12.0026 29.3533 13.7613 28.8466 17.2773L28.476 19.86C27.8266 24.3773 27.5013 26.6346 25.9346 27.984C24.368 29.3333 22.0706 29.3333 17.4746 29.3333H14.5253C9.9293 29.3333 7.63197 29.3333 6.0653 27.984C4.49864 26.6346 4.1733 24.3773 3.52397 19.86L3.15197 17.2773Z" stroke="#FF5733" stroke-width="2"/>
<path d="M12 21.3333C13.1333 22.1733 14.5133 22.6666 16 22.6666C17.4867 22.6666 18.8667 22.1733 20 21.3333" stroke="#FF5733" stroke-width="2" stroke-linecap="round"/>
</svg>
