<svg width="33" height="32" viewBox="0 0 33 32" fill="none" xmlns="http://www.w3.org/2000/svg">
<path d="M3.16669 7.00929C3.16669 4.61063 5.25602 2.66663 7.83335 2.66663C10.4107 2.66663 12.5 4.61063 12.5 7.00929C12.5 9.38929 11.0107 12.1666 8.68669 13.16C8.41678 13.2745 8.12657 13.3336 7.83335 13.3336C7.54014 13.3336 7.24993 13.2745 6.98002 13.16C4.65602 12.1666 3.16669 9.38929 3.16669 7.00929ZM20.5 23.0093C20.5 20.6106 22.5894 18.6666 25.1667 18.6666C27.744 18.6666 29.8334 20.6106 29.8334 23.0093C29.8334 25.3893 28.344 28.1666 26.02 29.16C25.7501 29.2745 25.4599 29.3336 25.1667 29.3336C24.8735 29.3336 24.5833 29.2745 24.3134 29.16C21.9894 28.1666 20.5 25.3893 20.5 23.0093Z" stroke="black" stroke-width="2"/>
<path opacity="0.5" d="M16.5 5.66663C16.2348 5.66663 15.9804 5.77198 15.7929 5.95952C15.6054 6.14706 15.5 6.40141 15.5 6.66663C15.5 6.93184 15.6054 7.1862 15.7929 7.37373C15.9804 7.56127 16.2348 7.66663 16.5 7.66663V5.66663ZM16.5 25.3333L17.2067 26.04C17.3939 25.8525 17.4991 25.5983 17.4991 25.3333C17.4991 25.0683 17.3939 24.8141 17.2067 24.6266L16.5 25.3333ZM15.2067 22.6266C15.0171 22.45 14.7664 22.3538 14.5073 22.3584C14.2482 22.363 14.0011 22.4679 13.8178 22.6511C13.6346 22.8343 13.5297 23.0815 13.5251 23.3406C13.5205 23.5997 13.6167 23.8504 13.7933 24.04L15.2067 22.6266ZM13.7933 26.6266C13.6951 26.7182 13.6163 26.8286 13.5616 26.9512C13.507 27.0739 13.4776 27.2063 13.4752 27.3406C13.4728 27.4749 13.4975 27.6082 13.5478 27.7328C13.5981 27.8573 13.673 27.9704 13.768 28.0653C13.8629 28.1603 13.976 28.2352 14.1005 28.2855C14.2251 28.3358 14.3584 28.3605 14.4927 28.3581C14.627 28.3557 14.7594 28.3263 14.8821 28.2717C15.0047 28.217 15.1151 28.1382 15.2067 28.04L13.7933 26.6266ZM22.0093 5.66663H16.5V7.66663H22.0093V5.66663ZM16.5 24.3333H10.9907V26.3333H16.5V24.3333ZM22.904 10.74L9.02267 19.5733L10.096 21.26L23.9773 12.4266L22.904 10.74ZM17.2067 24.6266L15.2067 22.6266L13.7933 24.04L15.7933 26.04L17.2067 24.6266ZM15.7933 24.6266L13.7933 26.6266L15.2067 28.04L17.2067 26.04L15.7933 24.6266ZM10.9907 24.3333C9.324 24.3333 8.68934 22.156 10.096 21.26L9.02267 19.5733C5.928 21.5426 7.32267 26.3333 10.9907 26.3333V24.3333ZM22.0093 7.66663C23.676 7.66663 24.3107 9.84396 22.904 10.74L23.9773 12.4266C27.072 10.4573 25.6773 5.66663 22.0093 5.66663V7.66663Z" fill="black"/>
<path d="M25.1667 23.3333H25.1787M7.82001 7.33325H7.83334" stroke="black" stroke-width="2" stroke-linecap="round" stroke-linejoin="round"/>
</svg>
